<?xml version="1.0" standalone="no"?>
<!DOCTYPE svg PUBLIC "-//W3C//DTD SVG 1.1//EN" "http://www.w3.org/Graphics/SVG/1.1/DTD/svg11.dtd" >
<svg xmlns="http://www.w3.org/2000/svg" xmlns:xlink="http://www.w3.org/1999/xlink" version="1.1">
<metadata></metadata>
<defs>
<font id="maven_pro_light300" horiz-adv-x="1097" >
<font-face units-per-em="2048" ascent="1638" descent="-410" />
<missing-glyph horiz-adv-x="636" />
<glyph horiz-adv-x="0" />
<glyph horiz-adv-x="682" />
<glyph unicode=" "  horiz-adv-x="636" />
<glyph unicode="&#x09;" horiz-adv-x="636" />
<glyph unicode="&#xa0;" horiz-adv-x="636" />
<glyph unicode="!" horiz-adv-x="632" d="M256 0v162h113v-162h-113zM262 1317h100l-10 -979h-82z" />
<glyph unicode="&#x22;" horiz-adv-x="702" d="M156 1335h118l-24 -411h-68q-16 274 -26 411zM424 1335h119q-15 -205 -27 -411h-67z" />
<glyph unicode="#" horiz-adv-x="1183" d="M137 281v86h189l59 350h-188v84h204l45 260h86l-45 -260h322l47 260h86l-47 -260h162v-84h-176l-62 -350h176v-86h-190l-41 -244h-86l41 244h-322l-43 -244h-86l43 244h-174zM412 367h321l62 350h-324z" />
<glyph unicode="$" horiz-adv-x="1132" d="M135 70v110q169 -100 395 -100v559q-54 15 -83.5 23.5t-77 26.5t-74.5 34t-60.5 42t-51 55.5t-30 70.5t-12.5 90q0 70 23 130t69 108t122 78t175 36v193h66v-191q170 -5 330 -78v-104q-171 82 -330 84v-514q58 -16 98 -30t91 -36.5t84.5 -50.5t64.5 -66t46 -90.5 t15 -115.5q0 -147 -101.5 -241.5t-297.5 -106.5v-215h-66v213q-223 0 -395 86zM246 981q0 -43 16 -77.5t39.5 -57.5t64 -43.5t75.5 -32.5t89 -27v490q-139 -10 -211.5 -77t-72.5 -175zM596 84q139 9 218 74.5t79 175.5q0 52 -17 93.5t-41.5 69t-67.5 51.5t-79.5 38.5 t-91.5 31.5v-534z" />
<glyph unicode="%" horiz-adv-x="1648" d="M137 956q0 105 25 178.5t68 109.5t88 50.5t98 14.5q41 0 77 -8t74 -31.5t64.5 -61.5t43.5 -102.5t17 -149.5q0 -86 -17 -150.5t-43.5 -102.5t-64.5 -61.5t-74 -31.5t-77 -8q-42 0 -78 8t-74.5 31.5t-65.5 61.5t-44 102.5t-17 150.5zM215 956q0 -88 17 -146.5t48.5 -85.5 t62.5 -36.5t73 -9.5q32 0 57 5t53 22t46 46.5t30 81.5t12 123q0 88 -17 146.5t-48 86t-61.5 37t-71.5 9.5q-42 0 -73 -9.5t-62.5 -37t-48.5 -86t-17 -146.5zM358 0l842 1317h90l-839 -1317h-93zM956 360q0 106 25 180t68 110t87.5 50.5t98.5 14.5q34 0 64 -6t62.5 -20 t58.5 -40.5t47 -64t32.5 -95t11.5 -129.5q0 -86 -17 -150.5t-43.5 -102.5t-64.5 -61.5t-74 -31.5t-77 -8q-42 0 -78 8t-74.5 31.5t-65.5 61.5t-44 102.5t-17 150.5zM1034 360q0 -71 12 -123.5t30.5 -82t46.5 -47t53.5 -22.5t58.5 -5q32 0 57.5 5.5t53.5 22.5t46 46.5t30 82 t12 123.5q0 88 -16.5 146.5t-48 86t-62 37t-72.5 9.5t-73 -9.5t-62.5 -37t-48.5 -86t-17 -146.5z" />
<glyph unicode="&#x26;" horiz-adv-x="1234" d="M115 367q0 236 282 393q-63 79 -98 151t-35 152q0 120 76 195t199 75q130 0 201 -78.5t71 -195.5q0 -101 -63 -173.5t-195 -150.5l350 -407q62 103 94 213h101q-34 -145 -129 -293l209 -248h-131l-142 164q-160 -182 -389 -182q-96 0 -173.5 33t-126.5 87.5t-75 122.5 t-26 142zM215 356q0 -47 18.5 -93.5t54 -88t96.5 -67t138 -25.5q191 0 324 154l-385 452q-138 -77 -192 -157t-54 -175zM362 1061q0 -99 130 -254q123 66 172 123t49 119q0 83 -44.5 135.5t-127.5 52.5t-131 -52.5t-48 -123.5z" />
<glyph unicode="'" horiz-adv-x="477" d="M174 1335h117l-25 -411h-67z" />
<glyph unicode="(" horiz-adv-x="622" d="M168 590q0 139 22.5 277t59.5 250t70.5 191t70.5 146h109q-32 -56 -64 -126t-74 -184.5t-68 -260t-26 -293.5q0 -146 26 -292t67.5 -259t74.5 -185t64 -124h-109q-37 67 -70.5 145.5t-70.5 190t-59.5 248.5t-22.5 276z" />
<glyph unicode=")" horiz-adv-x="624" d="M123 -270q32 58 63 126t73.5 183.5t68.5 260.5t26 292t-26 292t-68.5 260.5t-73.5 183.5t-63 126h108q37 -67 70.5 -146t71 -191t60 -249t22.5 -276t-22.5 -276.5t-60 -249.5t-71 -190t-70.5 -146h-108z" />
<glyph unicode="*" horiz-adv-x="784" d="M154 1083l190 95l-190 92l39 65l174 -114l-15 204h78l-12 -204l172 114l39 -65l-189 -92l189 -95l-39 -67l-172 117l12 -205h-78l15 205l-174 -117z" />
<glyph unicode="+" horiz-adv-x="1062" d="M172 541v86h315v313h84v-313h314v-86h-314v-314h-84v314h-315z" />
<glyph unicode="," horiz-adv-x="546" d="M135 -209l133 377h115l-147 -377h-101z" />
<glyph unicode="-" horiz-adv-x="948" d="M147 532v99h646v-99h-646z" />
<glyph unicode="." horiz-adv-x="557" d="M227 0v162h113v-162h-113z" />
<glyph unicode="/" horiz-adv-x="778" d="M-31 -250l752 1747h94l-754 -1747h-92z" />
<glyph unicode="0" horiz-adv-x="1259" d="M129 655q0 678 504 678q255 0 378.5 -169t123.5 -509q0 -339 -123.5 -508.5t-378.5 -169.5q-504 0 -504 678zM231 655q0 -138 20.5 -241.5t55.5 -167.5t87.5 -104t109.5 -55t129 -15t128.5 15t109 55t87.5 104t55.5 167.5t20.5 241.5q0 137 -20.5 240.5t-55.5 168 t-87 104.5t-109.5 55.5t-128.5 15.5q-72 0 -129 -15t-109.5 -55t-87.5 -104.5t-55.5 -168t-20.5 -241.5z" />
<glyph unicode="1" horiz-adv-x="839" d="M195 1040v121l256 156h112v-1317h-100v1210z" />
<glyph unicode="2" horiz-adv-x="1126" d="M150 0v86q88 67 170.5 137t182.5 169t173 191t122.5 195.5t49.5 190.5q0 50 -16.5 94t-53 83.5t-104.5 63t-160 23.5q-185 0 -352 -103v111q165 94 356 94q112 0 198 -32t135.5 -85.5t74 -116.5t24.5 -132q0 -89 -41.5 -189.5t-104.5 -189t-152 -183t-167.5 -165 t-167.5 -142.5h662v-100h-829z" />
<glyph unicode="3" d="M139 61v105q147 -82 332 -82q188 0 287.5 72.5t99.5 208.5t-100.5 209.5t-292.5 74.5h-150v96h152q162 1 246 64.5t84 181.5q0 119 -87 181.5t-253 62.5q-156 0 -289 -68v105q133 65 299 65q112 0 197 -28t135.5 -77t75 -109.5t24.5 -131.5q0 -68 -24 -124t-60 -88.5 t-71 -50.5t-64 -21q34 -3 78.5 -26t91.5 -63t79 -108t32 -148q0 -79 -27.5 -145.5t-83 -120t-150 -84t-217.5 -30.5q-193 0 -344 79z" />
<glyph unicode="4" horiz-adv-x="1142" d="M82 391v107q386 484 649 819h113v-832h190v-94h-190v-391h-101v391h-661zM195 485h548v684q-46 -58 -548 -684z" />
<glyph unicode="5" horiz-adv-x="1140" d="M139 61v105q54 -33 154 -59.5t211 -26.5q187 0 281 85t94 241q0 299 -344 299q-58 0 -113.5 -8.5t-85 -17.5t-66 -22t-39.5 -14q-12 11 -34 34t-27 28l74 612h653v-100h-565q-46 -388 -53 -455q127 43 260 43q66 0 124.5 -10.5t118 -38.5t102 -72t69 -117t26.5 -168 q0 -100 -30 -176.5t-76.5 -120.5t-111.5 -71.5t-124.5 -37t-126.5 -9.5q-105 0 -205 21t-166 56z" />
<glyph unicode="6" horiz-adv-x="1144" d="M129 600q0 137 23.5 249.5t61.5 187t91 131t105.5 87.5t113.5 50t105.5 24.5t89.5 5.5q99 0 176 -22v-92q-106 18 -166 18q-35 0 -68.5 -3.5t-82 -16.5t-90 -35t-86.5 -62.5t-78 -94.5t-57 -136t-31 -182q56 45 143.5 77.5t198.5 32.5q201 0 319.5 -109t118.5 -296 q0 -65 -15 -125t-48.5 -116.5t-83 -97.5t-124.5 -66t-167 -25q-226 0 -337.5 152.5t-111.5 463.5zM229 598q0 -520 349 -520q81 0 143.5 24.5t98 60.5t57.5 84t29 87.5t7 79.5q0 149 -87.5 230t-247.5 81q-119 0 -207.5 -39t-141.5 -88z" />
<glyph unicode="7" horiz-adv-x="1126" d="M137 1217v100h883v-94l-524 -1223h-113l528 1217h-774z" />
<glyph unicode="8" horiz-adv-x="1134" d="M125 379q0 66 21 123.5t52.5 94.5t70 64t71 39.5t57.5 14.5q-27 2 -62.5 20t-72 51t-61.5 91t-25 127q0 142 99.5 237.5t297.5 95.5t298 -95.5t100 -237.5q0 -71 -24.5 -128.5t-61 -90t-71 -50t-62.5 -20.5q25 -1 58 -13.5t70.5 -40t69 -64.5t52 -94.5t20.5 -123.5 q0 -78 -26 -147t-78 -126t-141 -90.5t-204 -33.5t-203.5 33.5t-140.5 90t-78 126t-26 147.5zM225 379q0 -38 8.5 -75t32.5 -79t61 -73.5t100.5 -52.5t145.5 -21t145.5 21t100.5 52.5t60.5 73.5t32 79t8.5 75q0 135 -89.5 209t-257.5 74q-166 0 -257 -74.5t-91 -208.5z M276 1004q0 -117 78 -183.5t219 -66.5q139 0 217 66.5t78 183.5q0 63 -23.5 109.5t-66 72.5t-93.5 38.5t-112 12.5q-62 0 -113.5 -12.5t-94 -38.5t-66 -72.5t-23.5 -109.5z" />
<glyph unicode="9" horiz-adv-x="1157" d="M119 903q0 65 15 125.5t48.5 117t83 98t124.5 66.5t167 25q226 0 337.5 -154t111.5 -466q0 -107 -14.5 -199t-39 -160t-59.5 -124.5t-73.5 -94t-84 -66.5t-86.5 -45t-86 -26t-79 -13t-68 -3q-88 0 -176 18v94q81 -18 166 -18q35 0 68.5 3.5t82 16.5t90 34.5t86 62 t77.5 94.5t57 135.5t30 181.5q-53 -44 -140.5 -76t-199.5 -32q-203 0 -320.5 108t-117.5 297zM221 903q0 -149 88 -230t248 -81q120 0 208.5 39t139.5 88q0 520 -348 520q-81 0 -144 -24.5t-98 -60.5t-57.5 -83.5t-29.5 -87.5t-7 -80z" />
<glyph unicode=":" horiz-adv-x="643" d="M268 66v161h113v-161h-113zM268 762v164h113v-164h-113z" />
<glyph unicode=";" horiz-adv-x="690" d="M158 -209l133 377h115l-148 -377h-100zM289 762v164h112v-164h-112z" />
<glyph unicode="&#x3c;" horiz-adv-x="1228" d="M205 494v96l809 364v-112l-690 -301l690 -301v-113z" />
<glyph unicode="=" horiz-adv-x="1183" d="M213 358v99h754v-99h-754zM213 709v96h754v-96h-754z" />
<glyph unicode="&#x3e;" horiz-adv-x="1214" d="M221 127v113l688 301l-688 301v112q701 -317 807 -364v-96q-312 -140 -807 -367z" />
<glyph unicode="?" horiz-adv-x="903" d="M137 1157v109q121 67 262 67q45 0 90 -7t101 -29t98 -57.5t71 -99.5t29 -147q0 -64 -17 -114.5t-43.5 -83.5t-59 -61.5t-65.5 -58t-59.5 -64t-43.5 -87.5t-17 -121v-65h-102v74q0 76 17 136t43.5 98.5t59 70.5t65.5 59t59.5 55.5t43.5 69.5t17 92q0 120 -81.5 180 t-205.5 60q-149 0 -262 -76zM375 0v162h112v-162h-112z" />
<glyph unicode="@" horiz-adv-x="1869" d="M158 356q0 147 50.5 284.5t137 243.5t198 185.5t239 121.5t253.5 42q99 0 196 -26.5t186 -82t157 -134t108.5 -191.5t40.5 -246q0 -205 -91 -344t-234 -139q-90 0 -143 44.5t-68 108.5q-27 -68 -105.5 -110.5t-189.5 -42.5q-78 0 -141 22.5t-104.5 73t-41.5 123.5 q0 118 105 197t311 79q89 0 180 -16q0 11 2 33t2 34q0 42 -8 71t-30.5 55.5t-68.5 39.5t-116 13q-124 0 -229 -37l10 80q113 36 227 36q150 0 223.5 -65t73.5 -197q0 -50 -17.5 -166.5t-17.5 -166.5q0 -71 29 -111.5t104 -40.5q119 0 202 116t83 304q0 147 -53 269 t-142 200.5t-202.5 121t-237.5 42.5t-245.5 -40.5t-225 -116.5t-183 -176.5t-124.5 -229t-45 -265.5q0 -122 37.5 -225.5t100.5 -175t147 -121t175.5 -73t186.5 -23.5q214 0 391 94l-14 -64q-83 -40 -187.5 -60.5t-199.5 -20.5q-134 0 -257 45t-220.5 128t-156 213 t-58.5 287zM688 293q0 -42 19.5 -73t52.5 -46t66.5 -22t70.5 -7q106 0 175.5 38.5t90.5 115.5q10 41 29 176q-71 14 -162 14q-153 0 -247.5 -47.5t-94.5 -148.5z" />
<glyph unicode="A" horiz-adv-x="1282" d="M51 0q90 219 268.5 658.5t268.5 658.5h100l535 -1317h-109q-31 74 -86.5 215t-81.5 203h-618l-166 -418h-111zM367 514h542l-272 680z" />
<glyph unicode="B" horiz-adv-x="1200" d="M160 0v1317h432q117 0 202.5 -27.5t132.5 -75.5t69 -105.5t22 -125.5t-20 -124.5t-51 -89.5t-61.5 -52t-56.5 -23q23 -2 53 -12.5t68.5 -36t69.5 -61t52.5 -95t21.5 -131.5q0 -176 -120 -267t-337 -91h-477zM260 94h385q76 0 136 14t108.5 45t75 85t26.5 129 q0 264 -350 264h-381v-537zM260 725h354q141 0 222.5 58.5t81.5 187.5q0 250 -316 250h-342v-496z" />
<glyph unicode="C" horiz-adv-x="1212" d="M125 657q0 177 44 309t125.5 212.5t191 119.5t247.5 39q204 0 395 -75v-97q-199 76 -383 76q-121 0 -214 -31.5t-163 -99t-106.5 -181.5t-36.5 -272t37 -271.5t107 -180t162.5 -97t213.5 -30.5q195 0 383 72v-97q-197 -71 -393 -71q-139 0 -248.5 38t-191.5 117.5 t-126 211t-44 308.5z" />
<glyph unicode="D" horiz-adv-x="1296" d="M158 0v1317h401q623 0 623 -660q0 -657 -623 -657h-401zM260 94h291q271 0 399.5 137.5t128.5 425.5q0 289 -128.5 427.5t-399.5 138.5h-291v-1129z" />
<glyph unicode="E" horiz-adv-x="1083" d="M160 0v1317h815v-94h-715v-510h631v-99h-631v-518h715v-96h-815z" />
<glyph unicode="F" horiz-adv-x="1036" d="M160 0v1317h792v-94h-692v-512h608v-99h-608v-612h-100z" />
<glyph unicode="G" horiz-adv-x="1316" d="M123 657q0 177 44 308.5t126 211.5t191.5 119t248.5 39q202 0 404 -78v-98q-199 78 -392 78q-121 0 -214 -31.5t-163 -98.5t-106.5 -180.5t-36.5 -269.5q0 -158 36.5 -271.5t106.5 -180t163 -97t214 -30.5q170 0 330 55v461h-368v98h471v-616q-200 -92 -443 -92 q-139 0 -249 38t-192.5 117t-126.5 210t-44 308z" />
<glyph unicode="H" horiz-adv-x="1288" d="M160 0v1317h100v-608h760v608h102v-1317h-102v610h-760v-610h-100z" />
<glyph unicode="I" horiz-adv-x="432" d="M160 0v1317h100v-1317h-100z" />
<glyph unicode="J" horiz-adv-x="847" d="M66 47v105q113 -70 243 -70q138 0 202 71.5t64 227.5v936h103v-944q0 -89 -20 -157.5t-53 -112t-80 -71.5t-96.5 -39t-106.5 -11q-139 0 -256 65z" />
<glyph unicode="K" horiz-adv-x="1142" d="M160 2v1315h100v-731l662 731h135l-561 -615l610 -702h-133l-543 631l-170 -185v-444h-100z" />
<glyph unicode="L" horiz-adv-x="1005" d="M160 0v1317h100v-1219h690v-98h-790z" />
<glyph unicode="M" horiz-adv-x="1521" d="M160 0v1317h108l490 -713l489 713h111v-1317h-103v1149l-497 -713l-498 713v-1149h-100z" />
<glyph unicode="N" horiz-adv-x="1370" d="M158 0v1317h114l830 -1167v1167h102v-1317h-112l-832 1165v-1165h-102z" />
<glyph unicode="O" horiz-adv-x="1472" d="M125 659q0 678 606 678q608 0 608 -678q0 -677 -608 -677q-606 0 -606 677zM225 659q0 -296 122 -438.5t384 -142.5q263 0 384.5 142.5t121.5 438.5q0 295 -121.5 438.5t-384.5 143.5q-261 0 -383.5 -143.5t-122.5 -438.5z" />
<glyph unicode="P" horiz-adv-x="1128" d="M158 2v1315h442q215 0 331 -105t116 -294q0 -192 -118.5 -296t-330.5 -104h-340v-516h-100zM258 614h328q101 0 173.5 24t112 68t57 96t17.5 116q0 301 -358 301h-330v-605z" />
<glyph unicode="Q" horiz-adv-x="1466" d="M125 659q0 678 606 678q608 0 608 -678q0 -645 -553 -675q45 -215 301 -226v-92q-87 1 -156.5 23t-111.5 54t-72 76.5t-43 83t-20 81.5q-559 27 -559 675zM225 659q0 -296 122 -438.5t384 -142.5q263 0 384.5 142.5t121.5 438.5q0 295 -121.5 438.5t-384.5 143.5 q-261 0 -383.5 -143.5t-122.5 -438.5z" />
<glyph unicode="R" horiz-adv-x="1191" d="M158 0v1317h467q209 0 322.5 -98.5t113.5 -280.5q0 -78 -23 -142t-57.5 -103.5t-79 -68.5t-82.5 -42.5t-74 -18.5l367 -563h-119l-354 547h-379v-547h-102zM260 643h358q95 0 163 22.5t105.5 64t54.5 91t17 111.5q0 289 -340 289h-358v-578z" />
<glyph unicode="S" horiz-adv-x="1112" d="M125 72v108q173 -98 393 -98q163 0 264 64.5t101 189.5q0 66 -25.5 116t-69 81t-100 54t-119 40.5l-125 35t-119 42.5t-100 59.5t-69 89.5t-25.5 127q0 71 24.5 133t74.5 113t136 80.5t199 29.5q183 0 350 -80v-104q-161 84 -340 84q-166 0 -252.5 -67.5t-86.5 -188.5 q0 -55 25.5 -96t69 -66.5t100 -45.5t119 -37.5t124.5 -37t118.5 -49t100 -69t69 -102t25.5 -142.5q0 -160 -119.5 -257t-341.5 -97q-217 0 -401 90z" />
<glyph unicode="T" horiz-adv-x="1132" d="M35 1219v98h1059v-98h-478v-1219h-102v1219h-479z" />
<glyph unicode="U" horiz-adv-x="1353" d="M150 518v799h102v-803q0 -219 106 -329.5t312 -110.5q208 0 314 110.5t106 329.5v803h102v-799q0 -260 -134.5 -397t-387.5 -137q-251 0 -385.5 137t-134.5 397z" />
<glyph unicode="V" horiz-adv-x="1228" d="M39 1317h108l465 -1172l463 1172h109l-522 -1317h-101z" />
<glyph unicode="W" horiz-adv-x="1865" d="M39 1317h108q140 -453 367 -1174q266 844 371 1174h100l369 -1174l366 1174h109l-424 -1317h-100q-53 166 -178.5 555t-192.5 600l-369 -1155h-102z" />
<glyph unicode="X" horiz-adv-x="1169" d="M47 0l473 668l-459 649h121l400 -563l401 563h123l-461 -649l471 -668h-121l-413 580l-412 -580h-123z" />
<glyph unicode="Y" horiz-adv-x="1161" d="M37 1317h123l420 -639l419 639h121l-489 -737v-580h-103v580z" />
<glyph unicode="Z" horiz-adv-x="1202" d="M131 0v86q670 947 803 1137h-780v94h911v-86l-805 -1139h811v-92h-940z" />
<glyph unicode="[" horiz-adv-x="694" d="M203 -274v1691h346v-96h-246v-1499h246v-96h-346z" />
<glyph unicode="\" horiz-adv-x="731" d="M-61 1497h92l751 -1747h-92z" />
<glyph unicode="]" horiz-adv-x="712" d="M156 -178h241v1499h-241v96h344v-1691h-344v96z" />
<glyph unicode="^" horiz-adv-x="1011" d="M213 926q45 86 125 244t106 208h78l234 -452h-86l-185 370l-188 -370h-84z" />
<glyph unicode="_" horiz-adv-x="1028" d="M0 -49h1026v-62h-1026v62z" />
<glyph unicode="`" horiz-adv-x="473" d="M98 1448h115l160 -281h-78z" />
<glyph unicode="a" horiz-adv-x="1067" d="M117 295q0 63 22 114.5t55.5 84.5t81 57t90 36t92.5 19t78 8.5t56 1.5q127 0 237 -20q0 158 -79.5 235.5t-247.5 77.5q-132 0 -283 -45v99q139 47 289 47q218 0 321 -105t103 -311v-303q0 -65 -20.5 -116.5t-56.5 -83t-76.5 -54t-89 -33t-85.5 -14.5t-74 -4t-76 4.5 t-88 15.5t-91.5 34t-79 55.5t-57.5 84t-21 115.5zM217 295q0 -52 21 -92t53 -63t76 -37.5t83 -19.5t80 -5q52 0 99 8.5t95.5 30t77.5 66t29 108.5v213q-122 18 -251 18q-44 0 -86.5 -4t-95 -18.5t-90.5 -38t-64.5 -66.5t-26.5 -100z" />
<glyph unicode="b" horiz-adv-x="1112" d="M154 293v1085h102v-415q133 49 281 49q57 0 108 -9t104.5 -29.5t96 -59t76.5 -92.5t52.5 -134.5t18.5 -181.5q0 -94 -16 -172t-42 -131t-63.5 -93.5t-76 -63.5t-84 -37.5t-83 -19.5t-77.5 -5q-74 0 -135.5 13.5t-101.5 34.5t-71 50.5t-47 57.5t-26 59.5t-13 53t-3 40.5z M256 289q0 -89 71 -150t224 -61q49 0 90 7.5t89.5 34t82 71t56 125.5t22.5 190q0 220 -90 314.5t-264 94.5q-152 0 -281 -55v-571z" />
<glyph unicode="c" horiz-adv-x="946" d="M121 498q0 103 19.5 185.5t54.5 137.5t79 93.5t98.5 59t105.5 29.5t108 9q137 0 288 -54v-98q-141 53 -278 53q-180 0 -277.5 -96.5t-97.5 -318.5q0 -115 26.5 -196.5t77 -129t117 -69t154.5 -21.5q145 0 278 53v-98q-139 -53 -288 -53q-69 0 -130 12t-124.5 46.5 t-108.5 89.5t-73.5 149t-28.5 217z" />
<glyph unicode="d" horiz-adv-x="1118" d="M127 506q0 120 27.5 211.5t71 146t105 88.5t121.5 46t130 12q152 0 282 -47v413h101v-1083q0 -30 -6 -62t-30.5 -79t-64.5 -82t-117 -60.5t-180 -25.5q-58 0 -111 10t-115.5 43.5t-107.5 87.5t-75.5 152.5t-30.5 228.5zM229 506q0 -109 22.5 -190t55.5 -125.5t81 -71 t89 -34t90 -7.5q153 0 225 61t72 150v571q-132 55 -282 55q-172 0 -262.5 -95t-90.5 -314z" />
<glyph unicode="e" d="M125 477q0 39 3.5 79.5t15.5 95t31 102t53.5 96t79 83t111.5 56t148 21.5q68 0 126 -16t99 -41.5t74 -62.5t54 -73.5t36 -81.5t22.5 -79t11.5 -72.5t5 -56t0 -35.5v-23t-0.5 -15t-1 -8.5t-0.5 -5.5v-2h-764q3 -47 19 -88q40 -266 356 -266q196 0 324 70v-105 q-135 -63 -332 -63q-72 0 -135.5 12.5t-127 47t-108 88t-72.5 141.5t-28 202zM229 528h662q0 17 -1.5 37.5t-9 60t-19.5 75t-37 76t-58.5 69.5t-86.5 48t-118 19q-158 0 -241 -100t-91 -285z" />
<glyph unicode="f" horiz-adv-x="647" d="M82 903v90h158v90q0 67 13 120t32 86.5t48.5 57.5t53.5 35.5t57.5 18t50 7.5t40.5 1q54 0 108 -14v-90q-45 10 -92 10q-34 0 -54 -1.5t-53.5 -14t-52.5 -35t-34 -69t-15 -112.5v-90h295v-90h-295v-903h-102v903h-158z" />
<glyph unicode="g" horiz-adv-x="1069" d="M117 504q0 92 15.5 167.5t41 127t61.5 91t73.5 62t82 37t81 19t75.5 4.5q101 0 177 -25.5t115 -60t62.5 -80.5t29 -76.5t5.5 -58.5v-764q0 -338 -430 -338q-143 0 -275 33v96q136 -33 263 -33q85 0 148.5 14t99.5 36t58 55t29 64t7 69v125q-139 -52 -277 -52 q-66 0 -123.5 11t-118 43.5t-103 84.5t-70 141.5t-27.5 207.5zM219 504q0 -99 20.5 -172.5t52 -115t78.5 -66t90.5 -32t98.5 -7.5q144 0 277 59v545q0 38 -15 72.5t-47 64.5t-90 48t-137 18q-47 0 -86.5 -7t-86.5 -33t-79 -68.5t-54 -121t-22 -184.5z" />
<glyph unicode="h" horiz-adv-x="1124" d="M168 0v1376h102v-444q185 80 342 80q180 0 277.5 -103t97.5 -301v-608h-100v608q0 155 -72 228t-215 73q-160 0 -330 -75v-834h-102z" />
<glyph unicode="i" horiz-adv-x="450" d="M168 1178v151h113v-151h-113zM174 0v993h100v-993h-100z" />
<glyph unicode="j" horiz-adv-x="462" d="M-6 -297q109 0 161 47.5t52 163.5v1079h100v-1042q0 -72 -12 -127.5t-34.5 -92.5t-50.5 -61.5t-65 -37.5t-72.5 -18t-78.5 -5v94zM201 1178v151h112v-151h-112z" />
<glyph unicode="k" horiz-adv-x="972" d="M166 0v1376h102v-913l496 530h137l-424 -450l479 -543h-135l-411 471l-142 -152v-319h-102z" />
<glyph unicode="l" horiz-adv-x="471" d="M184 0v1376h103v-1376h-103z" />
<glyph unicode="m" horiz-adv-x="1771" d="M168 0v907q204 105 403 105q181 0 273 -103q197 103 393 103q176 0 272.5 -93t96.5 -272v-647h-103v647q0 58 -12.5 102.5t-42 82t-84.5 57.5t-133 20q-159 0 -328 -78q35 -81 35 -184v-647h-102v647q0 58 -13 102.5t-43 82t-86 57.5t-135 20q-145 0 -289 -61v-848h-102z " />
<glyph unicode="n" horiz-adv-x="1126" d="M154 0v905q76 40 187.5 73.5t238.5 33.5q185 0 285 -92.5t100 -272.5v-647h-103v647q0 58 -14 103t-45.5 82t-90.5 57t-143 20q-155 0 -315 -63v-846h-100z" />
<glyph unicode="o" horiz-adv-x="1144" d="M109 498q0 122 28.5 215t73 148.5t107.5 90.5t124 47.5t131 12.5t131 -12.5t124 -47.5t108 -90.5t73.5 -148.5t28.5 -215t-28.5 -215t-73.5 -148.5t-108 -90.5t-124 -47.5t-131 -12.5t-131 12.5t-124 47.5t-107.5 90.5t-73 148.5t-28.5 215zM209 498q0 -115 26 -197.5 t75 -130.5t114 -70t149 -22q175 0 270 98t95 322t-95 322t-270 98q-84 0 -149 -22t-114 -70t-75 -130.5t-26 -197.5z" />
<glyph unicode="p" horiz-adv-x="1114" d="M154 -377v1079q0 20 3 41.5t13 53t26 59.5t47 57.5t71 50.5t101.5 34.5t135.5 13.5q58 0 111 -10.5t115.5 -44t107.5 -88.5t75.5 -153.5t30.5 -228.5q0 -120 -27.5 -211t-70.5 -145.5t-104.5 -88.5t-122 -46t-129.5 -12q-147 0 -283 49v-410h-100zM254 135 q125 -55 283 -55q173 0 262.5 94t89.5 315q0 109 -22.5 190t-55.5 125.5t-81 71t-89 34.5t-90 8q-153 0 -225 -62t-72 -149v-572z" />
<glyph unicode="q" horiz-adv-x="1116" d="M117 487q0 130 30.5 228.5t75.5 153.5t107.5 88.5t115.5 44t111 10.5q103 0 180.5 -25.5t117.5 -61t64 -82.5t29.5 -79t5.5 -62v-1079h-100v410q-136 -49 -281 -49q-69 0 -129.5 12t-122.5 46t-105.5 88.5t-71 145.5t-27.5 211zM219 489q0 -221 89.5 -315t264.5 -94 q156 0 281 55v572q0 87 -72 149t-225 62q-49 0 -90 -8t-89 -34.5t-81 -71t-55.5 -125.5t-22.5 -190z" />
<glyph unicode="r" horiz-adv-x="651" d="M152 0v915q41 18 96 36t161 38t209 21v-99q-174 -4 -366 -61v-850h-100z" />
<glyph unicode="s" horiz-adv-x="868" d="M102 55v107q149 -78 308 -78q119 0 190.5 44.5t71.5 129.5q0 60 -31 101t-80.5 62.5t-109.5 38t-120.5 35t-110 44.5t-80.5 75.5t-31 120.5q0 55 19 103t58 88t106 63t154 23q130 0 269 -60v-100q-124 61 -258 61q-108 0 -177 -43.5t-69 -134.5q0 -43 24 -74t64 -48 t90.5 -33.5t103 -29t103 -36t90.5 -53.5t64 -82t24 -121q0 -124 -93 -199t-267 -75q-170 0 -312 71z" />
<glyph unicode="t" horiz-adv-x="673" d="M51 903v90h160v281h102v-281h287v-90h-287v-657q0 -94 45.5 -130t124.5 -36q63 0 121 20v-96q-70 -18 -133 -18q-260 0 -260 256v661h-160z" />
<glyph unicode="u" horiz-adv-x="1142" d="M152 412v581h102v-587q0 -328 311 -328q312 0 312 328v587h102v-581q0 -205 -108.5 -315.5t-305.5 -110.5q-198 0 -305.5 110.5t-107.5 315.5z" />
<glyph unicode="v" horiz-adv-x="1009" d="M51 993h109l344 -866l344 866h108l-401 -993h-102q-75 182 -211 520t-191 473z" />
<glyph unicode="w" horiz-adv-x="1531" d="M55 993h109l289 -848l264 848h96l268 -848q54 164 157.5 465.5t131.5 382.5h107l-344 -993h-103l-264 842l-264 -842h-101z" />
<glyph unicode="x" horiz-adv-x="1003" d="M70 0l364 502l-354 491h119q50 -69 148.5 -206.5t148.5 -206.5l295 413h124l-358 -493q71 -99 205 -282t160 -218h-121l-305 426q-150 -214 -303 -426h-123z" />
<glyph unicode="y" horiz-adv-x="987" d="M68 993h110q22 -59 326 -860l317 860h109l-416 -1112q-102 -272 -303 -272q-49 0 -94 18v94q36 -18 84 -18q37 0 69 14.5t53 35t41.5 54.5t32.5 61.5t29.5 68.5t28.5 63z" />
<glyph unicode="z" horiz-adv-x="935" d="M100 0v90q572 775 598 811h-581v92h706v-88l-600 -815h608v-90h-731z" />
<glyph unicode="{" horiz-adv-x="686" d="M158 541v67q133 61 133 172v318q0 151 69.5 235t206.5 84v-96q-174 -3 -174 -191v-350q0 -119 -127 -207q127 -88 127 -204v-351q0 -183 174 -190v-94q-137 0 -206.5 85t-69.5 232v318q0 111 -133 172z" />
<glyph unicode="|" horiz-adv-x="714" d="M305 -252v1626h101v-1626h-101z" />
<glyph unicode="}" horiz-adv-x="681" d="M137 -172q174 6 174 190v351q0 117 129 204q-129 87 -129 207v350q0 188 -174 191v96q137 0 207 -84t70 -235v-318q0 -111 133 -172v-67q-133 -61 -133 -172v-318q0 -147 -70 -232t-207 -85v94z" />
<glyph unicode="~" horiz-adv-x="1013" d="M166 557q70 107 168 107q42 0 91 -20.5t86.5 -45.5t85.5 -45.5t89 -20.5q90 0 158 105q4 -58 4 -82q-68 -109 -162 -109q-42 0 -90 20.5t-85 45.5t-84.5 45.5t-88.5 20.5q-99 0 -168 -103z" />
<glyph unicode="&#xa1;" horiz-adv-x="618" d="M256 834v161h113v-161h-113zM262 -322l8 977h82l10 -977h-100z" />
<glyph unicode="&#xa2;" horiz-adv-x="952" d="M119 684q0 114 24.5 202.5t64 143.5t96 92t112.5 52.5t121 19.5v164h69v-162q136 -3 266 -51v-98q-133 51 -266 51v-830q133 0 266 54v-101q-130 -48 -266 -51v-170h-69v172q-65 5 -121 20.5t-112.5 52t-96 91.5t-64 144t-24.5 204zM221 684q0 -385 316 -412v824 q-73 -7 -128.5 -32t-98.5 -72.5t-66 -125t-23 -182.5z" />
<glyph unicode="&#xa3;" horiz-adv-x="1091" d="M98 -23v103q79 36 178 39v454h-178v93h178v309q0 70 22.5 132t70 116t131.5 86t196 32q156 0 299 -75v-103q-137 80 -290 80q-75 0 -133.5 -16t-94.5 -41.5t-59 -61t-32 -71t-9 -74.5v-313h440v-93h-440v-456q63 -5 209 -34.5t231 -29.5q98 0 178 29v-102 q-80 -29 -178 -29q-90 0 -257.5 33.5t-252.5 33.5q-116 0 -209 -41z" />
<glyph unicode="&#xa5;" horiz-adv-x="1167" d="M45 1317h125l418 -621l418 621h124l-446 -660h287v-86h-332v-209h332v-86h-332v-276h-102v276h-330v86h330v209h-330v86h285z" />
<glyph unicode="&#xa7;" horiz-adv-x="1073" d="M123 731q0 88 57 142.5t150 72.5q-101 56 -101 166q0 105 94 176.5t275 71.5q153 0 291 -55v-101q-139 60 -283 60q-53 0 -100 -8.5t-88.5 -26t-65.5 -50.5t-24 -77q0 -55 57.5 -93t218.5 -79q52 -13 88.5 -24.5t82 -29.5t76 -39.5t58 -51t41 -68.5t13.5 -86 q0 -76 -54.5 -131.5t-146.5 -75.5q88 -64 88 -170q0 -113 -99 -183.5t-288 -70.5q-196 0 -336 63v103q136 -70 330 -70q121 0 204.5 50.5t83.5 121.5q0 64 -58.5 107.5t-215.5 83.5q-65 16 -108.5 30t-93 37t-78.5 49.5t-48.5 66.5t-19.5 89zM223 731q0 -55 54 -92.5 t192 -73.5q158 -41 227 -76q79 13 122.5 50.5t43.5 91.5q0 66 -53.5 110t-198.5 82q-129 33 -200 60q-85 -8 -136 -47.5t-51 -104.5z" />
<glyph unicode="&#xa8;" horiz-adv-x="720" d="M150 1167v160h110v-160h-110zM453 1167v160h110v-160h-110z" />
<glyph unicode="&#xa9;" horiz-adv-x="1550" d="M96 657q0 137 54 262.5t145 216t216.5 144t262.5 53.5t262.5 -53.5t216 -144t144 -216t53.5 -262.5q0 -183 -90.5 -338t-246 -245t-339.5 -90q-137 0 -262.5 53t-216.5 143t-145 215t-54 262zM147 657q0 -169 84.5 -313t229 -227.5t313.5 -83.5t313 83.5t228 227.5 t84 313t-84 313.5t-228 229t-313 84.5t-313.5 -84.5t-229 -229t-84.5 -313.5zM428 657q0 208 96.5 306t266.5 98q112 0 233 -43v-57q-118 43 -227 43q-310 0 -310 -347q0 -346 312 -346q118 0 225 43v-57q-105 -41 -233 -41q-170 0 -266.5 96.5t-96.5 304.5z" />
<glyph unicode="&#xaa;" horiz-adv-x="753" d="M135 977q0 44 19.5 77.5t47.5 51.5t65.5 29t67 14.5t58.5 3.5h41q28 0 63.5 -5t37.5 -5q0 88 -45 131t-138 43q-73 0 -157 -25v56q70 24 159 24q123 0 180.5 -57.5t57.5 -171.5v-172q0 -42 -17 -74t-41 -49t-57 -28t-58.5 -14t-51.5 -3t-53 3.5t-60.5 14.5t-58.5 29 t-42.5 51t-17.5 76zM193 977q0 -37 16.5 -63t45 -38t55.5 -17t57 -5q29 0 55.5 5t53.5 17t43 37t16 60v119q-1 0 -36.5 5t-68.5 5q-237 0 -237 -125z" />
<glyph unicode="&#xab;" horiz-adv-x="1101" d="M74 522l364 393h137l-376 -393l376 -391h-137zM475 522l365 393h135l-375 -393l375 -391h-135z" />
<glyph unicode="&#xac;" horiz-adv-x="1185" d="M178 541v94h836v-305h-94v211h-742z" />
<glyph unicode="&#xad;" horiz-adv-x="948" d="M147 532v99h646v-99h-646z" />
<glyph unicode="&#xae;" horiz-adv-x="1550" d="M96 657q0 137 54 262.5t145 216t216.5 144t262.5 53.5t262.5 -53.5t216 -144t144 -216t53.5 -262.5q0 -183 -90.5 -338t-246 -245t-339.5 -90q-137 0 -262.5 53t-216.5 143t-145 215t-54 262zM147 657q0 -169 84.5 -313t229 -227.5t313.5 -83.5t313 83.5t228 227.5 t84 313t-84 313.5t-228 229t-313 84.5t-313.5 -84.5t-229 -229t-84.5 -313.5zM528 266v783h287q125 0 194.5 -57.5t69.5 -166.5q0 -48 -14 -86.5t-36 -63t-50.5 -41.5t-54 -24.5t-50.5 -9.5l232 -334h-70l-223 326h-225v-326h-60zM588 649h223q207 0 207 172t-207 172h-223 v-344z" />
<glyph unicode="&#xaf;" horiz-adv-x="768" d="M158 1192v76h450v-76h-450z" />
<glyph unicode="&#xb0;" horiz-adv-x="759" d="M150 1135q0 106 60.5 167.5t166.5 61.5q104 0 165.5 -61.5t61.5 -167.5q0 -107 -61 -168.5t-166 -61.5q-106 0 -166.5 61.5t-60.5 168.5zM201 1135q0 -86 45.5 -132.5t130.5 -46.5q83 0 128.5 46.5t45.5 132.5q0 85 -45.5 130.5t-128.5 45.5q-85 0 -130.5 -45.5 t-45.5 -130.5z" />
<glyph unicode="&#xb1;" horiz-adv-x="1110" d="M195 45v84h712v-84h-712zM195 571v86h313v312h86v-312h313v-86h-313v-313h-86v313h-313z" />
<glyph unicode="&#xb4;" horiz-adv-x="493" d="M123 1167l160 281h114l-196 -281h-78z" />
<glyph unicode="&#xb5;" horiz-adv-x="1167" d="M174 -410v1403h102v-645q0 -59 13.5 -103.5t45 -82t90.5 -57t144 -19.5q160 0 314 64v843h102v-903q-73 -39 -185.5 -71.5t-240.5 -32.5q-116 0 -194.5 41.5t-88.5 89.5v-527h-102z" />
<glyph unicode="&#xb6;" horiz-adv-x="868" d="M90 954q0 194 116 295t337 101h159v-1319h-94v524h-65q-221 0 -337 101.5t-116 297.5z" />
<glyph unicode="&#xb7;" horiz-adv-x="536" d="M213 481v162h111v-162h-111z" />
<glyph unicode="&#xb8;" horiz-adv-x="555" d="M117 -289l200 283h78l-159 -283h-119z" />
<glyph unicode="&#xba;" horiz-adv-x="815" d="M147 1087q0 69 16 121.5t41 83.5t61 50.5t70 26.5t73 7q38 0 72 -7t69 -26.5t60 -50.5t41 -83.5t16 -121.5q0 -84 -23 -143t-63 -88t-81.5 -41t-90.5 -12q-39 0 -73 6.5t-70 25.5t-61 49.5t-41 82.5t-16 120zM203 1087q0 -231 205 -231q96 0 148 54t52 177q0 126 -52 181 t-148 55q-98 0 -151.5 -55t-53.5 -181z" />
<glyph unicode="&#xbb;" d="M123 129l373 393q-63 65 -186.5 195.5t-186.5 195.5h135q62 -64 182.5 -195t182.5 -196l-365 -393h-135zM522 129q56 58 118.5 123.5t138.5 145.5t118 124q-49 51 -176.5 185t-198.5 206h137q38 -41 166 -179t199 -212l-365 -393h-137z" />
<glyph unicode="&#xbf;" horiz-adv-x="899" d="M125 0q0 64 17 114.5t44 83.5t59.5 61.5t65.5 58t60 64t44 87.5t17 121v65h100v-73q0 -76 -17 -136t-43.5 -98.5t-59 -70.5t-65.5 -59.5t-59.5 -56t-43.5 -69.5t-17 -92q0 -115 76.5 -175.5t206.5 -60.5q74 0 147 21.5t121 50.5v-108q-1 0 -21 -9.5t-42 -18t-53.5 -18.5 t-70 -16t-77.5 -6q-45 0 -90 7t-101 29t-98 57.5t-71 99.5t-29 147zM426 831v162h113v-162h-113z" />
<glyph unicode="&#xc0;" horiz-adv-x="1282" d="M51 0q90 219 268.5 658.5t268.5 658.5h100l535 -1317h-109q-31 74 -86.5 215t-81.5 203h-618l-166 -418h-111zM367 514h542l-272 680zM432 1745h115l160 -283h-78z" />
<glyph unicode="&#xc1;" horiz-adv-x="1282" d="M51 0q90 219 268.5 658.5t268.5 658.5h100l535 -1317h-109q-31 74 -86.5 215t-81.5 203h-618l-166 -418h-111zM367 514h542l-272 680zM571 1462l160 283h115l-197 -283h-78z" />
<glyph unicode="&#xc2;" horiz-adv-x="1282" d="M51 0q90 219 268.5 658.5t268.5 658.5h100l535 -1317h-109q-31 74 -86.5 215t-81.5 203h-618l-166 -418h-111zM367 514h542l-272 680zM383 1462q34 47 103.5 141.5t103.5 141.5h94l209 -283h-98q-7 10 -158 221l-160 -221h-94z" />
<glyph unicode="&#xc3;" horiz-adv-x="1282" d="M51 0q90 219 268.5 658.5t268.5 658.5h100l535 -1317h-109q-31 74 -86.5 215t-81.5 203h-618l-166 -418h-111zM367 514h542l-272 680zM373 1556q36 47 66.5 69t66.5 22q32 0 70.5 -16.5t69 -37t68 -37t68.5 -16.5q64 0 123 82q0 -12 1 -38t1 -38q-34 -50 -64 -72t-65 -22 q-41 0 -91.5 26t-99.5 52t-87 26q-70 0 -123 -79z" />
<glyph unicode="&#xc4;" horiz-adv-x="1282" d="M51 0q90 219 268.5 658.5t268.5 658.5h100l535 -1317h-109q-31 74 -86.5 215t-81.5 203h-618l-166 -418h-111zM367 514h542l-272 680zM430 1462v160h111v-160h-111zM735 1462v160h111v-160h-111z" />
<glyph unicode="&#xc5;" horiz-adv-x="1282" d="M51 0q90 219 268.5 658.5t268.5 658.5h100l535 -1317h-109q-31 74 -86.5 215t-81.5 203h-618l-166 -418h-111zM367 514h542l-272 680zM467 1616q0 84 44 129t126 45q83 0 126.5 -44.5t43.5 -129.5q0 -86 -43.5 -131t-126.5 -45q-82 0 -126 45t-44 131zM526 1616 q0 -63 26.5 -92t84.5 -29q59 0 86 29t27 92q0 62 -27.5 91.5t-85.5 29.5t-84.5 -29.5t-26.5 -91.5z" />
<glyph unicode="&#xc6;" horiz-adv-x="1843" d="M8 0l823 1317h883v-96h-698v-510h614v-99h-614v-516h698v-96h-801v418h-530l-258 -418h-117zM444 518h469v699h-32z" />
<glyph unicode="&#xc7;" horiz-adv-x="1212" d="M125 657q0 177 44 309t125.5 212.5t191 119.5t247.5 39q204 0 395 -75v-97q-199 76 -383 76q-121 0 -214 -31.5t-163 -99t-106.5 -181.5t-36.5 -272t37 -271.5t107 -180t162.5 -97t213.5 -30.5q195 0 383 72v-97q-171 -63 -348 -69l-155 -273h-115l192 271 q-131 5 -235 45.5t-181.5 120t-119 208.5t-41.5 301z" />
<glyph unicode="&#xc8;" horiz-adv-x="1083" d="M160 0v1317h815v-94h-715v-510h631v-99h-631v-518h715v-96h-815zM371 1745h112l160 -281h-78z" />
<glyph unicode="&#xc9;" horiz-adv-x="1083" d="M160 0v1317h815v-94h-715v-510h631v-99h-631v-518h715v-96h-815zM489 1464l160 281h115l-197 -281h-78z" />
<glyph unicode="&#xca;" horiz-adv-x="1083" d="M158 0v1317h817v-96h-715v-510h631v-97h-631v-520h715v-94h-817zM311 1462l209 283h92q150 -201 209 -283h-98q-7 10 -158 221q-139 -194 -159 -221h-95z" />
<glyph unicode="&#xcb;" horiz-adv-x="1083" d="M160 0v1317h815v-94h-715v-510h631v-99h-631v-518h715v-96h-815zM367 1464v160h110v-160h-110zM672 1464v160h110v-160h-110z" />
<glyph unicode="&#xcc;" horiz-adv-x="432" d="M10 1745h115l160 -281h-78zM160 0v1317h100v-1317h-100z" />
<glyph unicode="&#xcd;" horiz-adv-x="432" d="M137 1464l160 281h115l-197 -281h-78zM160 0v1317h100v-1317h-100z" />
<glyph unicode="&#xce;" horiz-adv-x="432" d="M-43 1462q29 42 63.5 89.5t76 104t65.5 89.5h94l209 -283h-98q-7 10 -158 221l-160 -221h-92zM158 0v1317h102v-1317h-102z" />
<glyph unicode="&#xcf;" horiz-adv-x="432" d="M2 1464v160h113v-160h-113zM160 0v1317h100v-1317h-100zM307 1464v160h111v-160h-111z" />
<glyph unicode="&#xd0;" horiz-adv-x="1400" d="M98 614v84h160v619h399q623 0 623 -660q0 -657 -623 -657h-399v614h-160zM360 94h291q271 0 400 137.5t129 425.5q0 289 -129 427.5t-400 138.5h-291v-525h385v-84h-385v-520z" />
<glyph unicode="&#xd1;" horiz-adv-x="1370" d="M158 0v1317h114l830 -1167v1167h102v-1317h-112l-832 1165v-1165h-102zM420 1556q66 91 133 91q32 0 70.5 -16.5t69 -37t68 -37t68.5 -16.5q65 0 121 82l4 -76q-36 -50 -66 -72t-65 -22q-48 0 -139.5 52t-138.5 52q-65 0 -123 -79q0 13 -1 39t-1 40z" />
<glyph unicode="&#xd2;" horiz-adv-x="1472" d="M125 659q0 678 606 678q608 0 608 -678q0 -677 -608 -677q-606 0 -606 677zM225 659q0 -296 122 -438.5t384 -142.5q263 0 384.5 142.5t121.5 438.5q0 295 -121.5 438.5t-384.5 143.5q-261 0 -383.5 -143.5t-122.5 -438.5zM524 1745h115l160 -281h-78z" />
<glyph unicode="&#xd3;" horiz-adv-x="1472" d="M125 659q0 678 606 678q608 0 608 -678q0 -677 -608 -677q-606 0 -606 677zM225 659q0 -296 122 -438.5t384 -142.5q263 0 384.5 142.5t121.5 438.5q0 295 -121.5 438.5t-384.5 143.5q-261 0 -383.5 -143.5t-122.5 -438.5zM653 1464l160 281h117l-199 -281h-78z" />
<glyph unicode="&#xd4;" horiz-adv-x="1472" d="M123 659q0 676 608 676q606 0 606 -676q0 -675 -606 -675q-608 0 -608 675zM225 659q0 -297 121.5 -439t384.5 -142q262 0 384 142t122 439q0 295 -122 437.5t-384 142.5q-263 0 -384.5 -142.5t-121.5 -437.5zM475 1462q34 47 103.5 141.5t103.5 141.5h94l209 -283h-98 q-7 10 -158 221l-160 -221h-94z" />
<glyph unicode="&#xd5;" horiz-adv-x="1472" d="M123 659q0 676 608 676q606 0 606 -676q0 -675 -606 -675q-608 0 -608 675zM225 659q0 -297 121.5 -439t384.5 -142q262 0 384 142t122 439q0 295 -122 437.5t-384 142.5q-263 0 -384.5 -142.5t-121.5 -437.5zM461 1556q66 91 133 91q32 0 70.5 -16.5t69 -37t68 -37 t68.5 -16.5q62 0 121 82l4 -76q-36 -50 -66 -72t-65 -22q-48 0 -139.5 52t-138.5 52q-65 0 -123 -79q0 13 -1 39t-1 40z" />
<glyph unicode="&#xd6;" horiz-adv-x="1472" d="M125 659q0 678 606 678q608 0 608 -678q0 -677 -608 -677q-606 0 -606 677zM225 659q0 -296 122 -438.5t384 -142.5q263 0 384.5 142.5t121.5 438.5q0 295 -121.5 438.5t-384.5 143.5q-261 0 -383.5 -143.5t-122.5 -438.5zM524 1464v160h111v-160h-111zM827 1464v160h111 v-160h-111z" />
<glyph unicode="&#xd8;" horiz-adv-x="1472" d="M125 659q0 678 606 678q247 0 397 -116l80 96h109l-129 -158q151 -168 151 -500q0 -677 -608 -677q-250 0 -397 114l-78 -96h-111l127 158q-147 163 -147 501zM225 659q0 -284 115 -423l725 909q-122 96 -334 96q-261 0 -383.5 -143.5t-122.5 -438.5zM397 172 q122 -94 334 -94q263 0 384.5 142.5t121.5 438.5q0 283 -115 422z" />
<glyph unicode="&#xd9;" horiz-adv-x="1353" d="M150 518v799h102v-803q0 -219 106 -329.5t312 -110.5q208 0 314 110.5t106 329.5v803h102v-799q0 -260 -134.5 -397t-387.5 -137q-251 0 -385.5 137t-134.5 397zM485 1745h115q30 -56 91 -162.5t69 -120.5h-78z" />
<glyph unicode="&#xda;" horiz-adv-x="1353" d="M150 518v799h102v-803q0 -219 106 -329.5t312 -110.5q208 0 314 110.5t106 329.5v803h102v-799q0 -260 -134.5 -397t-387.5 -137q-251 0 -385.5 137t-134.5 397zM594 1462q8 14 69 120.5t91 162.5h116q-14 -19 -86 -123.5t-112 -159.5h-78z" />
<glyph unicode="&#xdb;" horiz-adv-x="1353" d="M150 518v799h102v-803q0 -219 106 -329.5t312 -110.5q208 0 314 110.5t106 329.5v803h102v-799q0 -260 -134.5 -397t-387.5 -137q-251 0 -385.5 137t-134.5 397zM416 1462l209 283h92q150 -201 209 -283h-99q-33 47 -157 221q-113 -157 -160 -221h-94z" />
<glyph unicode="&#xdc;" horiz-adv-x="1353" d="M150 518v799h102v-803q0 -219 106 -329.5t312 -110.5q208 0 314 110.5t106 329.5v803h102v-799q0 -260 -134.5 -397t-387.5 -137q-251 0 -385.5 137t-134.5 397zM463 1462v160h110v-160h-110zM768 1462v160h111v-160h-111z" />
<glyph unicode="&#xde;" d="M158 2v1315h100v-213h293q215 0 331.5 -106t116.5 -296q0 -192 -118.5 -294.5t-329.5 -102.5h-293v-303h-100zM258 401h281q81 0 143 16t102 43t66 66t36.5 82t10.5 94q0 304 -358 304h-281v-605z" />
<glyph unicode="&#xdf;" horiz-adv-x="1163" d="M158 0v913q0 104 25 187.5t76 147t135 98t196 34.5q107 0 187.5 -29.5t126 -80t67.5 -109.5t22 -125q0 -68 -25.5 -128t-62.5 -97t-74 -59t-65 -25q26 -1 60.5 -13.5t75.5 -39.5t75 -65t57 -97.5t23 -128.5q0 -189 -144.5 -286t-410.5 -97v90q213 0 334.5 75t121.5 222 q0 78 -35.5 135.5t-97.5 90t-136 48t-161 15.5v90q176 0 269.5 65.5t93.5 198.5q0 126 -78.5 191t-222.5 65q-330 0 -330 -379v-907h-102z" />
<glyph unicode="&#xe0;" horiz-adv-x="1054" d="M117 295q0 63 22 114.5t55.5 84.5t81 57t90 36t92.5 19t78 8.5t56 1.5q127 0 237 -20q0 158 -79.5 235.5t-247.5 77.5q-132 0 -283 -45v99q139 47 289 47q218 0 321 -105t103 -311v-303q0 -65 -20.5 -116.5t-56.5 -83t-76.5 -54t-89 -33t-85.5 -14.5t-74 -4t-76 4.5 t-88 15.5t-91.5 34t-79 55.5t-57.5 84t-21 115.5zM217 295q0 -52 21 -92t53 -63t76 -37.5t83 -19.5t80 -5q52 0 99 8.5t95.5 30t77.5 66t29 108.5v213q-122 18 -251 18q-44 0 -86.5 -4t-95 -18.5t-90.5 -38t-64.5 -66.5t-26.5 -100zM342 1448h115l159 -283h-77z" />
<glyph unicode="&#xe1;" horiz-adv-x="1054" d="M117 295q0 63 22 114.5t55.5 84.5t81 57t90 36t92.5 19t78 8.5t56 1.5q127 0 237 -20q0 158 -79.5 235.5t-247.5 77.5q-132 0 -283 -45v99q139 47 289 47q218 0 321 -105t103 -311v-303q0 -65 -20.5 -116.5t-56.5 -83t-76.5 -54t-89 -33t-85.5 -14.5t-74 -4t-76 4.5 t-88 15.5t-91.5 34t-79 55.5t-57.5 84t-21 115.5zM217 295q0 -52 21 -92t53 -63t76 -37.5t83 -19.5t80 -5q52 0 99 8.5t95.5 30t77.5 66t29 108.5v213q-122 18 -251 18q-44 0 -86.5 -4t-95 -18.5t-90.5 -38t-64.5 -66.5t-26.5 -100zM465 1165l160 283h114l-196 -283h-78z " />
<glyph unicode="&#xe2;" horiz-adv-x="1054" d="M117 295q0 63 22 114.5t55.5 84.5t81 57t90 36t92.5 19t78 8.5t56 1.5q127 0 237 -20q0 158 -79.5 235.5t-247.5 77.5q-132 0 -283 -45v99q139 47 289 47q218 0 321 -105t103 -311v-303q0 -65 -20.5 -116.5t-56.5 -83t-76.5 -54t-89 -33t-85.5 -14.5t-74 -4t-76 4.5 t-88 15.5t-91.5 34t-79 55.5t-57.5 84t-21 115.5zM217 295q0 -52 21 -92t53 -63t76 -37.5t83 -19.5t80 -5q52 0 99 8.5t95.5 30t77.5 66t29 108.5v213q-122 18 -251 18q-44 0 -86.5 -4t-95 -18.5t-90.5 -38t-64.5 -66.5t-26.5 -100zM279 1165q115 154 208 283h95l209 -283 h-99q-25 37 -78.5 110.5t-78.5 110.5l-160 -221h-96z" />
<glyph unicode="&#xe3;" horiz-adv-x="1054" d="M117 295q0 63 22 114.5t55.5 84.5t81 57t90 36t92.5 19t78 8.5t56 1.5q127 0 237 -20q0 158 -79.5 235.5t-247.5 77.5q-132 0 -283 -45v99q139 47 289 47q218 0 321 -105t103 -311v-303q0 -65 -20.5 -116.5t-56.5 -83t-76.5 -54t-89 -33t-85.5 -14.5t-74 -4t-76 4.5 t-88 15.5t-91.5 34t-79 55.5t-57.5 84t-21 115.5zM217 295q0 -52 21 -92t53 -63t76 -37.5t83 -19.5t80 -5q52 0 99 8.5t95.5 30t77.5 66t29 108.5v213q-122 18 -251 18q-44 0 -86.5 -4t-95 -18.5t-90.5 -38t-64.5 -66.5t-26.5 -100zM270 1247q36 47 66 68.5t67 21.5 q49 0 140 -53t137 -53q64 0 123 82q0 -26 4 -76q-35 -51 -65.5 -72.5t-65.5 -21.5q-41 0 -91.5 26t-100 52t-87.5 26q-27 0 -61.5 -20.5t-61.5 -59.5z" />
<glyph unicode="&#xe4;" horiz-adv-x="1054" d="M117 295q0 63 22 114.5t55.5 84.5t81 57t90 36t92.5 19t78 8.5t56 1.5q127 0 237 -20q0 158 -79.5 235.5t-247.5 77.5q-132 0 -283 -45v99q139 47 289 47q218 0 321 -105t103 -311v-303q0 -65 -20.5 -116.5t-56.5 -83t-76.5 -54t-89 -33t-85.5 -14.5t-74 -4t-76 4.5 t-88 15.5t-91.5 34t-79 55.5t-57.5 84t-21 115.5zM217 295q0 -52 21 -92t53 -63t76 -37.5t83 -19.5t80 -5q52 0 99 8.5t95.5 30t77.5 66t29 108.5v213q-122 18 -251 18q-44 0 -86.5 -4t-95 -18.5t-90.5 -38t-64.5 -66.5t-26.5 -100zM326 1165v160h110v-160h-110zM631 1165 v160h110v-160h-110z" />
<glyph unicode="&#xe5;" horiz-adv-x="1054" d="M117 295q0 63 22 114.5t55.5 84.5t81 57t90 36t92.5 19t78 8.5t56 1.5q127 0 237 -20q0 158 -79.5 235.5t-247.5 77.5q-132 0 -283 -45v99q139 47 289 47q218 0 321 -105t103 -311v-303q0 -65 -20.5 -116.5t-56.5 -83t-76.5 -54t-89 -33t-85.5 -14.5t-74 -4t-76 4.5 t-88 15.5t-91.5 34t-79 55.5t-57.5 84t-21 115.5zM217 295q0 -52 21 -92t53 -63t76 -37.5t83 -19.5t80 -5q52 0 99 8.5t95.5 30t77.5 66t29 108.5v213q-122 18 -251 18q-44 0 -86.5 -4t-95 -18.5t-90.5 -38t-64.5 -66.5t-26.5 -100zM358 1321q0 85 43.5 129.5t126.5 44.5 q82 0 126 -45t44 -129q0 -85 -44 -130.5t-126 -45.5q-83 0 -126.5 45.5t-43.5 130.5zM416 1321q0 -63 26 -92t86 -29q57 0 84 29t27 92q0 121 -111 121q-59 0 -85.5 -29.5t-26.5 -91.5z" />
<glyph unicode="&#xe6;" horiz-adv-x="1808" d="M115 295q0 58 18 106t47.5 80.5t71 57t83.5 38.5t90.5 22.5t86.5 11.5t76 3q118 0 239 -18q0 160 -80 236.5t-249 76.5q-136 0 -281 -45v99q139 47 287 47q159 0 251 -58.5t130 -175.5q98 234 375 234q86 0 156 -24.5t114 -61t77 -88t49 -97t25.5 -97t11 -78.5t1.5 -52 v-28t-0.5 -21t-1 -13.5t-0.5 -8.5v-3h-764q12 -189 110.5 -270.5t288.5 -81.5q168 0 301 68v-105q-145 -63 -338 -63q-292 0 -393 217q-35 -66 -79 -111t-94 -67t-96 -30.5t-102 -8.5q-36 0 -74 4.5t-87 15.5t-91 33.5t-79 55t-58.5 84t-21.5 116.5zM215 295q0 -52 21 -92 t53 -63t76 -37.5t83 -19.5t80 -5q52 0 98.5 8.5t94.5 30t77 66t29 108.5v213q-122 18 -249 18q-37 0 -72 -3t-79 -11t-79.5 -25t-66.5 -40.5t-48.5 -61.5t-17.5 -86zM928 528h661q0 19 -1.5 41t-9 61.5t-20 75t-38 75t-59.5 67.5t-88 46.5t-120 18.5q-312 0 -325 -385z" />
<glyph unicode="&#xe7;" horiz-adv-x="946" d="M121 498q0 103 19.5 185.5t54.5 137.5t79 93.5t98.5 59t105.5 29.5t108 9q137 0 288 -54v-98q-141 53 -278 53q-180 0 -277.5 -96.5t-97.5 -318.5q0 -115 26.5 -196.5t77 -129t117 -69t154.5 -21.5q145 0 278 53v-98q-109 -41 -239 -51l-154 -275h-116l190 273 q-55 3 -103.5 13.5t-99.5 33t-91 61.5t-72.5 93t-50 134t-17.5 179z" />
<glyph unicode="&#xe8;" d="M125 477q0 39 3.5 79.5t15.5 95t31 102t53.5 96t79 83t111.5 56t148 21.5q68 0 126 -16t99 -41.5t74 -62.5t54 -73.5t36 -81.5t22.5 -79t11.5 -72.5t4.5 -56t0.5 -35.5v-23t-0.5 -15t-1 -8.5t-0.5 -5.5v-2h-764q3 -47 19 -88q40 -266 356 -266q196 0 324 70v-105 q-135 -63 -332 -63q-72 0 -135.5 12.5t-127 47t-108 88t-72.5 141.5t-28 202zM229 528h662q0 17 -1.5 37.5t-9 60t-19.5 75t-37 76t-58.5 69.5t-86.5 48t-118 19q-158 0 -241 -100t-91 -285zM367 1448h114l160 -283h-78z" />
<glyph unicode="&#xe9;" d="M125 477q0 39 3.5 79.5t15.5 95t31 102t53.5 96t79 83t111.5 56t148 21.5q68 0 126 -16t99 -41.5t74 -62.5t54 -73.5t36 -81.5t22.5 -79t11.5 -72.5t4.5 -56t0.5 -35.5v-23t-0.5 -15t-1 -8.5t-0.5 -5.5v-2h-764q3 -47 19 -88q40 -266 356 -266q196 0 324 70v-105 q-135 -63 -332 -63q-72 0 -135.5 12.5t-127 47t-108 88t-72.5 141.5t-28 202zM229 528h662q0 17 -1.5 37.5t-9 60t-19.5 75t-37 76t-58.5 69.5t-86.5 48t-118 19q-158 0 -241 -100t-91 -285zM477 1165q30 56 91 162.5t69 120.5h115l-197 -283h-78z" />
<glyph unicode="&#xea;" d="M125 477q0 39 3.5 79.5t15.5 95t31 102t53.5 96t79 83t111.5 56t148 21.5q68 0 126 -16t99 -41.5t74 -62.5t54 -73.5t36 -81.5t22.5 -79t11.5 -72.5t4.5 -56t0.5 -35.5v-23t-0.5 -15t-1 -8.5t-0.5 -5.5v-2h-764q3 -47 19 -88q40 -266 356 -266q196 0 324 70v-105 q-135 -63 -332 -63q-72 0 -135.5 12.5t-127 47t-108 88t-72.5 141.5t-28 202zM229 528h662q0 17 -1.5 37.5t-9 60t-19.5 75t-37 76t-58.5 69.5t-86.5 48t-118 19q-158 0 -241 -100t-91 -285zM295 1165q150 201 209 283h94l209 -283h-98q-25 37 -78.5 110.5t-79.5 110.5 l-160 -221h-96z" />
<glyph unicode="&#xeb;" d="M125 477q0 39 3.5 79.5t15.5 95t31 102t53.5 96t79 83t111.5 56t148 21.5q68 0 126 -16t99 -41.5t74 -62.5t54 -73.5t36 -81.5t22.5 -79t11.5 -72.5t4.5 -56t0.5 -35.5v-23t-0.5 -15t-1 -8.5t-0.5 -5.5v-2h-764q3 -47 19 -88q40 -266 356 -266q196 0 324 70v-105 q-135 -63 -332 -63q-72 0 -135.5 12.5t-127 47t-108 88t-72.5 141.5t-28 202zM229 528h662q0 17 -1.5 37.5t-9 60t-19.5 75t-37 76t-58.5 69.5t-86.5 48t-118 19q-158 0 -241 -100t-91 -285zM346 1165v160h111v-160h-111zM651 1165v160h111v-160h-111z" />
<glyph unicode="&#xec;" horiz-adv-x="450" d="M23 1448h114q8 -14 69 -120.5t91 -162.5h-78q-24 34 -91 132t-105 151zM174 0v993h100v-993h-100z" />
<glyph unicode="&#xed;" horiz-adv-x="450" d="M147 1165q8 14 69 120.5t91 162.5h117l-197 -283h-80zM174 0v993h100v-993h-100z" />
<glyph unicode="&#xee;" horiz-adv-x="450" d="M-29 1165q34 47 103.5 141.5t103.5 141.5h94l209 -283h-98q-25 37 -78.5 110.5t-79.5 110.5l-159 -221h-95zM174 0v993h100v-993h-100z" />
<glyph unicode="&#xef;" horiz-adv-x="450" d="M18 1165v160h111v-160h-111zM174 0v993h100v-993h-100zM324 1165v160h110v-160h-110z" />
<glyph unicode="&#xf0;" horiz-adv-x="1153" d="M119 414q0 187 117.5 296t320.5 109q112 0 200 -32.5t140 -77.5q-16 296 -182 430l-248 -140q-1 3 -39 70q35 19 104.5 58t104.5 57q-101 55 -231 55q-44 0 -87 -6v96q43 6 91 6q195 0 329 -92q38 20 105 58.5t88 50.5q11 -18 37 -68q-12 -7 -162 -92q199 -186 199 -590 q0 -313 -111.5 -465.5t-337.5 -152.5q-92 0 -167 25t-124.5 66t-83 97.5t-48.5 116.5t-15 125zM221 414q0 -40 7 -80t29.5 -87.5t57.5 -83.5t98 -60.5t144 -24.5q44 0 80.5 7t78 25.5t73 55.5t58.5 92t42 141.5t16 196.5q-49 49 -139.5 89t-208.5 40q-160 0 -248 -81 t-88 -230z" />
<glyph unicode="&#xf1;" horiz-adv-x="1126" d="M152 0v905q204 105 426 105q185 0 285 -92.5t100 -270.5v-647h-101v647q0 262 -295 262q-161 0 -313 -65v-844h-102zM270 1247q36 47 66 68.5t67 21.5q41 0 91.5 -26.5t99.5 -53t86 -26.5q64 0 123 82l4 -76q-35 -51 -65.5 -72.5t-65.5 -21.5q-40 0 -90.5 26t-100.5 52 t-88 26q-26 0 -60 -20.5t-63 -59.5q0 26 -4 80z" />
<glyph unicode="&#xf2;" horiz-adv-x="1144" d="M109 498q0 122 28.5 215t73 148.5t107.5 90.5t124 47.5t131 12.5t131 -12.5t124 -47.5t108 -90.5t73.5 -148.5t28.5 -215t-28.5 -215t-73.5 -148.5t-108 -90.5t-124 -47.5t-131 -12.5t-131 12.5t-124 47.5t-107.5 90.5t-73 148.5t-28.5 215zM209 498q0 -115 26 -197.5 t75 -130.5t114 -70t149 -22q175 0 270 98t95 322t-95 322t-270 98q-84 0 -149 -22t-114 -70t-75 -130.5t-26 -197.5zM387 1448h115l160 -281h-78z" />
<glyph unicode="&#xf3;" horiz-adv-x="1144" d="M109 498q0 122 28.5 215t73 148.5t107.5 90.5t124 47.5t131 12.5t131 -12.5t124 -47.5t108 -90.5t73.5 -148.5t28.5 -215t-28.5 -215t-73.5 -148.5t-108 -90.5t-124 -47.5t-131 -12.5t-131 12.5t-124 47.5t-107.5 90.5t-73 148.5t-28.5 215zM209 498q0 -115 26 -197.5 t75 -130.5t114 -70t149 -22q175 0 270 98t95 322t-95 322t-270 98q-84 0 -149 -22t-114 -70t-75 -130.5t-26 -197.5zM506 1167l160 281h114l-196 -281h-78z" />
<glyph unicode="&#xf4;" horiz-adv-x="1144" d="M106 496q0 122 28.5 215.5t74 149t109 90t124.5 47t131 12.5q57 0 108 -9t105.5 -29.5t98.5 -59.5t79 -94t54.5 -137t19.5 -185q0 -102 -19.5 -184t-54.5 -136t-79 -92.5t-98.5 -59t-105.5 -29.5t-108 -9q-70 0 -131 12t-125 46.5t-109 89.5t-73.5 147.5t-28.5 214.5z M209 496q0 -420 364 -420q174 0 268.5 98.5t94.5 321.5q0 224 -94.5 323t-268.5 99q-364 0 -364 -422zM317 1165q34 47 103.5 141.5t103.5 141.5h94l209 -283h-98q-7 10 -158 221l-159 -221h-95z" />
<glyph unicode="&#xf5;" horiz-adv-x="1144" d="M106 496q0 122 28.5 215.5t74 149t109 90t124.5 47t131 12.5q57 0 108 -9t105.5 -29.5t98.5 -59.5t79 -94t54.5 -137t19.5 -185q0 -102 -19.5 -184t-54.5 -136t-79 -92.5t-98.5 -59t-105.5 -29.5t-108 -9q-70 0 -131 12t-125 46.5t-109 89.5t-73.5 147.5t-28.5 214.5z M209 496q0 -420 364 -420q174 0 268.5 98.5t94.5 321.5q0 224 -94.5 323t-268.5 99q-364 0 -364 -422zM303 1247q34 46 65 68t68 22q40 0 90 -26.5t99.5 -53t87.5 -26.5q62 0 121 82l4 -76q-35 -51 -65.5 -72.5t-65.5 -21.5q-48 0 -140 52t-139 52q-26 0 -60 -20.5 t-63 -59.5q0 13 -1 40t-1 40z" />
<glyph unicode="&#xf6;" horiz-adv-x="1144" d="M109 498q0 122 28.5 215t73 148.5t107.5 90.5t124 47.5t131 12.5t131 -12.5t124 -47.5t108 -90.5t73.5 -148.5t28.5 -215t-28.5 -215t-73.5 -148.5t-108 -90.5t-124 -47.5t-131 -12.5t-131 12.5t-124 47.5t-107.5 90.5t-73 148.5t-28.5 215zM209 498q0 -115 26 -197.5 t75 -130.5t114 -70t149 -22q175 0 270 98t95 322t-95 322t-270 98q-84 0 -149 -22t-114 -70t-75 -130.5t-26 -197.5zM365 1167v160h112v-160h-112zM670 1167v160h110v-160h-110z" />
<glyph unicode="&#xf8;" horiz-adv-x="1157" d="M113 500q0 121 28.5 214t73.5 148t108 90t124.5 47.5t130.5 12.5q179 0 294 -86l56 67h110l-104 -127q108 -124 108 -366q0 -122 -28.5 -216t-73 -149.5t-107.5 -90.5t-124 -47.5t-131 -12.5q-180 0 -295 84l-56 -68h-110l104 129q-108 128 -108 371zM213 500 q0 -191 76 -293l522 645q-88 66 -233 66q-175 0 -270 -98t-95 -320zM344 141q85 -63 234 -63q175 0 269.5 98.5t94.5 323.5q0 181 -76 288z" />
<glyph unicode="&#xf9;" horiz-adv-x="1142" d="M152 412v581h102v-587q0 -328 311 -328q312 0 312 328v587h102v-581q0 -205 -108.5 -315.5t-305.5 -110.5q-198 0 -305.5 110.5t-107.5 315.5zM373 1448h114l160 -283h-78z" />
<glyph unicode="&#xfa;" horiz-adv-x="1142" d="M152 412v581h102v-587q0 -328 311 -328q312 0 312 328v587h102v-581q0 -205 -108.5 -315.5t-305.5 -110.5q-198 0 -305.5 110.5t-107.5 315.5zM475 1165q30 56 91 162.5t69 120.5h115l-197 -283h-78z" />
<glyph unicode="&#xfb;" horiz-adv-x="1142" d="M152 412v581h102v-587q0 -328 311 -328q312 0 312 328v587h102v-581q0 -205 -108.5 -315.5t-305.5 -110.5q-198 0 -305.5 110.5t-107.5 315.5zM309 1165l209 283h94q59 -82 209 -283h-98q-151 210 -158 221l-159 -221h-97z" />
<glyph unicode="&#xfc;" horiz-adv-x="1142" d="M152 412v581h102v-587q0 -328 311 -328q312 0 312 328v587h102v-581q0 -205 -108.5 -315.5t-305.5 -110.5q-198 0 -305.5 110.5t-107.5 315.5zM358 1165v160h111v-160h-111zM662 1165v160h112v-160h-112z" />
<glyph unicode="&#xfe;" horiz-adv-x="1091" d="M154 -375v1743h102v-416q133 49 281 49q69 0 129.5 -12t122.5 -46t105.5 -88.5t71 -145.5t27.5 -211t-27.5 -211t-71 -145.5t-105.5 -89t-122.5 -46.5t-129.5 -12q-148 0 -281 49v-418h-102zM256 143q129 -55 281 -55q173 0 263.5 94.5t90.5 315.5q0 219 -90.5 314 t-263.5 95q-155 0 -281 -57v-707z" />
<glyph unicode="&#xff;" horiz-adv-x="987" d="M68 993h110q22 -59 326 -860l317 860h109l-416 -1112q-102 -272 -303 -272q-49 0 -94 18v94q36 -18 84 -18q37 0 69 14.5t53 35t41.5 54.5t32.5 61.5t29.5 68.5t28.5 63zM295 1165v160h113v-160h-113zM600 1165v160h111v-160h-111z" />
<glyph unicode="&#x2c6;" horiz-adv-x="774" d="M135 1165l209 283h94q59 -82 209 -283h-98q-26 37 -79 110.5t-79 110.5l-160 -221h-96z" />
<glyph unicode="&#x2c7;" horiz-adv-x="788" d="M135 1448h96l160 -221q26 37 79 110.5t79 110.5h98q-150 -201 -209 -283h-94z" />
<glyph unicode="&#x2d9;" horiz-adv-x="538" d="M211 1167v160h111v-160h-111z" />
<glyph unicode="&#x2da;" horiz-adv-x="739" d="M188 1323q0 84 43.5 129t126.5 45q82 0 126 -45.5t44 -128.5q0 -86 -44 -132t-126 -46q-83 0 -126.5 46t-43.5 132zM246 1323q0 -63 27 -92t85 -29t84.5 29t26.5 92q0 62 -26.5 90.5t-84.5 28.5t-85 -28.5t-27 -90.5z" />
<glyph unicode="&#x2dc;" horiz-adv-x="911" d="M180 1247q34 47 64 68.5t67 21.5q41 0 91.5 -26.5t100 -53t87.5 -26.5q65 0 121 82l4 -76q-35 -51 -65.5 -72.5t-65.5 -21.5q-40 0 -90.5 26t-100.5 52t-88 26q-64 0 -123 -80q0 13 -1 40t-1 40z" />
<glyph unicode="&#x2000;" horiz-adv-x="895" />
<glyph unicode="&#x2001;" horiz-adv-x="1790" />
<glyph unicode="&#x2002;" horiz-adv-x="895" />
<glyph unicode="&#x2003;" horiz-adv-x="1790" />
<glyph unicode="&#x2004;" horiz-adv-x="596" />
<glyph unicode="&#x2005;" horiz-adv-x="447" />
<glyph unicode="&#x2006;" horiz-adv-x="298" />
<glyph unicode="&#x2007;" horiz-adv-x="298" />
<glyph unicode="&#x2008;" horiz-adv-x="223" />
<glyph unicode="&#x2009;" horiz-adv-x="358" />
<glyph unicode="&#x200a;" horiz-adv-x="99" />
<glyph unicode="&#x2010;" horiz-adv-x="948" d="M147 532v99h646v-99h-646z" />
<glyph unicode="&#x2011;" horiz-adv-x="948" d="M147 532v99h646v-99h-646z" />
<glyph unicode="&#x2012;" horiz-adv-x="948" d="M147 532v99h646v-99h-646z" />
<glyph unicode="&#x2013;" horiz-adv-x="1210" d="M133 524v88h934v-88h-934z" />
<glyph unicode="&#x2014;" horiz-adv-x="1853" d="M147 524v94h1549v-94h-1549z" />
<glyph unicode="&#x2018;" horiz-adv-x="466" d="M98 1337h115l133 -379h-100z" />
<glyph unicode="&#x2019;" horiz-adv-x="464" d="M98 958l133 379h115l-145 -379h-103z" />
<glyph unicode="&#x201a;" horiz-adv-x="522" d="M133 -209l133 377h113l-146 -377h-100z" />
<glyph unicode="&#x201c;" horiz-adv-x="731" d="M98 1335h115l133 -377h-102q-104 266 -146 377zM367 1335h114l133 -377h-100z" />
<glyph unicode="&#x201d;" horiz-adv-x="722" d="M98 958l133 379h115l-145 -379h-103zM369 958l133 379h114l-147 -379h-100z" />
<glyph unicode="&#x201e;" horiz-adv-x="788" d="M133 -209l133 377h113l-146 -377h-100zM401 -209l134 377h114l-145 -377h-103z" />
<glyph unicode="&#x2020;" horiz-adv-x="874" d="M150 1004v67h253v285h68v-285h254v-67h-254v-801h-68v801h-253z" />
<glyph unicode="&#x2021;" horiz-adv-x="919" d="M113 373v84h301v446h-301v84h301v299h86v-299h299v-84h-299v-446h299v-84h-299v-301h-86v301h-301z" />
<glyph unicode="&#x2022;" horiz-adv-x="778" d="M193 682q0 84 58.5 142.5t141.5 58.5q84 0 142.5 -58.5t58.5 -142.5q0 -83 -59 -142t-142 -59t-141.5 59t-58.5 142z" />
<glyph unicode="&#x2026;" horiz-adv-x="1378" d="M201 0v162h112v-162h-112zM637 0v162h111v-162h-111zM1073 0v162h111v-162h-111z" />
<glyph unicode="&#x202f;" horiz-adv-x="358" />
<glyph unicode="&#x2030;" horiz-adv-x="2207" d="M137 956q0 105 25 178.5t68 109.5t88 50.5t98 14.5q41 0 77 -8t74 -31.5t64.5 -61.5t43.5 -102.5t17 -149.5q0 -86 -17 -150.5t-43.5 -102.5t-64.5 -61.5t-74 -31.5t-77 -8q-42 0 -78 8t-74.5 31.5t-65.5 61.5t-44 102.5t-17 150.5zM215 956q0 -88 17 -146.5t48.5 -85.5 t62.5 -36.5t73 -9.5q32 0 57 5t53 22t46 46.5t30 81.5t12 123q0 88 -17 146.5t-48 86t-61.5 37t-71.5 9.5q-42 0 -73 -9.5t-62.5 -37t-48.5 -86t-17 -146.5zM319 0l842 1317h90l-839 -1317h-93zM879 360q0 355 276 355q277 0 277 -355q0 -354 -277 -354q-276 0 -276 354z M956 360q0 -88 17 -147t48 -86t62 -37t72 -10q32 0 57.5 5.5t53.5 22.5t46 46.5t30 82t12 123.5q0 88 -16.5 146.5t-48 86t-62 37t-72.5 9.5q-41 0 -72 -9.5t-62 -37t-48 -86t-17 -146.5zM1528 360q0 355 276 355q277 0 277 -355q0 -354 -277 -354q-276 0 -276 354z M1606 360q0 -71 12 -123.5t30 -82t45.5 -46.5t53 -22.5t57.5 -5.5t57.5 5.5t53.5 22.5t46 46.5t30 82t12 123.5q0 88 -16.5 146.5t-48 86t-62 37t-72.5 9.5t-72.5 -9.5t-61.5 -37t-47.5 -86t-16.5 -146.5z" />
<glyph unicode="&#x2039;" horiz-adv-x="684" d="M74 522l364 393h137l-376 -393l376 -391h-137z" />
<glyph unicode="&#x203a;" horiz-adv-x="704" d="M117 131l375 391l-375 393h135l364 -393l-364 -391h-135z" />
<glyph unicode="&#x2044;" horiz-adv-x="659" d="M-150 -43l877 1399h68l-877 -1399h-68z" />
<glyph unicode="&#x205f;" horiz-adv-x="447" />
<glyph unicode="&#x20ac;" horiz-adv-x="1318" d="M82 461v86h141q-6 53 -6 110q0 63 6 115h-141v86h151q43 244 199 361.5t395 117.5q200 0 394 -75v-97q-199 76 -383 76q-427 0 -502 -383h647v-86h-659q-7 -61 -7 -115q0 -23 3.5 -66t3.5 -44h659v-86h-647q74 -383 504 -383q193 0 381 72v-97q-197 -71 -394 -71 q-241 0 -397 116.5t-197 362.5h-151z" />
<glyph unicode="&#x2122;" horiz-adv-x="1480" d="M86 1266v51h545v-51h-246v-609h-51v609h-248zM729 657v660h55l246 -350q52 76 244 350h57v-660h-53v574l-248 -350l-250 350v-574h-51z" />
<glyph unicode="&#x25fc;" horiz-adv-x="993" d="M0 0v993h993v-993h-993z" />
</font>
</defs>
</svg>
