<?xml version="1.0" encoding="iso-8859-1"?>
<!-- Generator: Adobe Illustrator 19.1.0, SVG Export Plug-In . SVG Version: 6.00 Build 0)  -->
<svg version="1.1" id="Capa_1" xmlns="http://www.w3.org/2000/svg" xmlns:xlink="http://www.w3.org/1999/xlink" x="0px" y="0px"
	 viewBox="0 0 516.45 516.45" style="enable-background:new 0 0 516.45 516.45;" xml:space="preserve">
<g>
	<g>
		<g>
			<path d="M123.065,209.722h84.075v189.437c0,7.431,11.822,13.455,26.406,13.455h46.213c14.583,0,26.409-6.024,26.409-13.455
				V209.722h84.071c8.433,0,15.269-5.339,15.269-11.927c0,0-125.952-184.874-137.404-193.819c-11.449-8.947-22.899,0-22.899,0
				L107.799,197.795C107.799,204.383,114.635,209.722,123.065,209.722z"/>
			<path d="M408.651,497.322c0,10.565-7.475,19.128-16.7,19.128H124.726c-9.221,0-16.7-8.563-16.7-19.128v-19.128
				c0-10.565,7.479-19.128,16.7-19.128h267.223c9.225,0,16.7,8.563,16.7,19.128v19.128L408.651,497.322L408.651,497.322z"/>
		</g>
	</g>
	<g>
	</g>
	<g>
	</g>
	<g>
	</g>
	<g>
	</g>
	<g>
	</g>
	<g>
	</g>
	<g>
	</g>
	<g>
	</g>
	<g>
	</g>
	<g>
	</g>
	<g>
	</g>
	<g>
	</g>
	<g>
	</g>
	<g>
	</g>
	<g>
	</g>
</g>
<g>
</g>
<g>
</g>
<g>
</g>
<g>
</g>
<g>
</g>
<g>
</g>
<g>
</g>
<g>
</g>
<g>
</g>
<g>
</g>
<g>
</g>
<g>
</g>
<g>
</g>
<g>
</g>
<g>
</g>
</svg>
