<?xml version="1.0" encoding="utf-8"?>
<!-- Generator: Adobe Illustrator 21.0.0, SVG Export Plug-In . SVG Version: 6.00 Build 0)  -->
<svg version="1.1" id="Capa_1" xmlns="http://www.w3.org/2000/svg" xmlns:xlink="http://www.w3.org/1999/xlink" x="0px" y="0px"
	 viewBox="-49 141 512 512" style="enable-background:new -49 141 512 512;" xml:space="preserve">
<style type="text/css">
	.st0{fill:#242628;}
	.st1{fill:#404143;}
	.st2{fill:#0A87B8;}
	.st3{fill:#0B6B89;}
</style>
<path class="st0" d="M441,603H1V211h110c182.3,0,330,147.7,330,330V603z"/>
<path class="st1" d="M463,601c0,4.1-3.4,7.5-7.5,7.5H8.5v37c0,4.1-3.4,7.5-7.5,7.5s-7.5-3.4-7.5-7.5v-37h-35c-4.1,0-7.5-3.4-7.5-7.5
	s3.4-7.5,7.5-7.5h35v-445c0-4.1,3.4-7.5,7.5-7.5s7.5,3.4,7.5,7.5v445h447C459.6,593.5,463,596.9,463,601z"/>
<path class="st2" d="M420.3,177.8c-1.5,1.5-3.4,2.2-5.3,2.2s-3.8-0.7-5.3-2.2l-11.2-11.2l0,231.9c0,26.2-21.3,47.5-47.5,47.5
	s-47.5-21.3-47.5-47.5v-100c0-17.9-14.6-32.5-32.5-32.5s-32.5,14.6-32.5,32.5v190c0,26.2-21.3,47.5-47.5,47.5s-47.5-21.3-47.5-47.5
	v-80c0-17.9-14.6-32.5-32.5-32.5s-32.5,14.6-32.5,32.5v190c0,4.1-3.4,7.5-7.5,7.5s-7.5-3.4-7.5-7.5v-190c0-26.2,21.3-47.5,47.5-47.5
	s47.5,21.3,47.5,47.5v80c0,17.9,14.6,32.5,32.5,32.5s32.5-14.6,32.5-32.5v-190c0-26.2,21.3-47.5,47.5-47.5s47.5,21.3,47.5,47.5v100
	c0,17.9,14.6,32.5,32.5,32.5s32.5-14.6,32.5-32.5l0-231.9l-11.2,11.2c-2.9,2.9-7.7,2.9-10.6,0c-2.9-2.9-2.9-7.7,0-10.6l24-24
	c2.9-2.9,7.7-2.9,10.6,0l24,24C423.2,170.1,423.2,174.9,420.3,177.8z"/>
<path class="st3" d="M91,601c0,11-9,20-20,20s-20-9-20-20s9-20,20-20S91,590,91,601z"/>
</svg>
