<?xml version="1.0" encoding="iso-8859-1"?>
<!-- Generator: Adobe Illustrator 18.1.1, SVG Export Plug-In . SVG Version: 6.00 Build 0)  -->
<svg version="1.1" id="Capa_1" xmlns="http://www.w3.org/2000/svg" xmlns:xlink="http://www.w3.org/1999/xlink" x="0px" y="0px"
	 viewBox="0 0 100 100" style="enable-background:new 0 0 100 100;" xml:space="preserve">
<g>
	<path style="fill:#030104;" d="M90,15H42.231c-2.2,0-5.354,1.186-7.011,2.634L1.242,47.366c-1.656,1.448-1.656,3.819,0,5.268
		l33.979,29.732c1.656,1.448,4.81,2.634,7.01,2.634H90c5.5,0,10-4.5,10-10V25C100,19.5,95.5,15,90,15z M75.956,69.999L63.175,57.218
		L50.393,69.999l-7.218-7.218L55.956,50L43.175,37.221l7.218-7.222l12.78,12.781l12.781-12.779l7.219,7.218l-12.78,12.78
		L83.175,62.78L75.956,69.999z"/>
</g>
<g>
</g>
<g>
</g>
<g>
</g>
<g>
</g>
<g>
</g>
<g>
</g>
<g>
</g>
<g>
</g>
<g>
</g>
<g>
</g>
<g>
</g>
<g>
</g>
<g>
</g>
<g>
</g>
<g>
</g>
</svg>
