<?xml version="1.0" encoding="UTF-8" standalone="no"?>
<!-- Generator: Adobe Illustrator 23.0.1, SVG Export Plug-In . SVG Version: 6.00 Build 0)  -->

<svg
   xmlns:dc="http://purl.org/dc/elements/1.1/"
   xmlns:cc="http://creativecommons.org/ns#"
   xmlns:rdf="http://www.w3.org/1999/02/22-rdf-syntax-ns#"
   xmlns:svg="http://www.w3.org/2000/svg"
   xmlns="http://www.w3.org/2000/svg"
   xmlns:sodipodi="http://sodipodi.sourceforge.net/DTD/sodipodi-0.dtd"
   xmlns:inkscape="http://www.inkscape.org/namespaces/inkscape"
   version="1.1"
   id="Слой_1"
   x="0px"
   y="0px"
   viewBox="0 0 2100 1785.83"
   xml:space="preserve"
   sodipodi:docname="HappyTrader.svg"
   width="2100"
   height="1785.83"
   inkscape:version="0.92.2 2405546, 2018-03-11"><metadata
   id="metadata600"><rdf:RDF><cc:Work
       rdf:about=""><dc:format>image/svg+xml</dc:format><dc:type
         rdf:resource="http://purl.org/dc/dcmitype/StillImage" /><dc:title></dc:title></cc:Work></rdf:RDF></metadata><defs
   id="defs598" /><sodipodi:namedview
   pagecolor="#ffffff"
   bordercolor="#666666"
   borderopacity="1"
   objecttolerance="10"
   gridtolerance="10"
   guidetolerance="10"
   inkscape:pageopacity="0"
   inkscape:pageshadow="2"
   inkscape:window-width="1920"
   inkscape:window-height="1080"
   id="namedview596"
   showgrid="false"
   inkscape:zoom="0.083490857"
   inkscape:cx="-538.98117"
   inkscape:cy="749.18667"
   inkscape:window-x="0"
   inkscape:window-y="0"
   inkscape:window-maximized="0"
   inkscape:current-layer="Слой_1" />
<style
   type="text/css"
   id="style2">
	.st0{fill:url(#SVGID_1_);}
	.st1{fill:url(#SVGID_2_);}
	.st2{fill:url(#SVGID_3_);}
	.st3{fill:#24ECA5;}
	.st4{fill:#21D892;}
	.st5{fill:#B3F4DB;}
	.st6{fill:none;stroke:#449978;stroke-width:6.0284;stroke-linecap:round;stroke-linejoin:round;stroke-miterlimit:10;}
	.st7{fill:#E3F9FF;}
	.st8{fill:none;stroke:#B0E6F5;stroke-width:6.0284;stroke-linecap:round;stroke-linejoin:round;stroke-miterlimit:10;}
	.st9{fill:#FDA96B;}
	.st10{fill:#B0E6F5;}
	.st11{fill:#B3F4F4;}
	.st12{fill:none;stroke:#B3F4F4;stroke-width:6.0284;stroke-linecap:round;stroke-linejoin:round;stroke-miterlimit:10;}
	.st13{fill:#241638;}
	.st14{fill:#FB8C49;}
	.st15{fill:#92FFF9;}
	.st16{fill:#38F4E2;}
	.st17{fill:#250949;}
	.st18{fill:url(#SVGID_4_);}
	.st19{fill:#71C1D9;}
	.st20{fill:#A83EB0;}
	.st21{fill:#958AB7;}
	.st22{fill:#2A73A3;}
	.st23{fill:#54B3E8;}
	.st24{fill:none;stroke:#ED7230;stroke-width:6.0284;stroke-linecap:round;stroke-linejoin:round;stroke-miterlimit:10;}
	.st25{fill:none;stroke:#0C0514;stroke-width:10;stroke-linecap:round;stroke-linejoin:round;stroke-miterlimit:10;}
	.st26{fill:#FFFFFF;}
	.st27{fill:#AF3F82;}
	.st28{fill:#FFA96A;}
	.st29{fill:#0101C5;}
	.st30{fill:url(#SVGID_5_);}
	.st31{fill:#4107C6;}
	.st32{fill:url(#SVGID_6_);}
	.st33{fill:#0C0514;}
	.st34{fill:#5631DB;}
	.st35{opacity:0.5;fill:#2020A8;}
	.st36{fill:#3F02C4;}
	.st37{fill:none;stroke:#FB8C49;stroke-width:6.0284;stroke-linecap:round;stroke-linejoin:round;stroke-miterlimit:10;}
	.st38{fill:#E5CCD3;}
	.st39{fill:#703577;}
	.st40{fill:#3307AA;}
	.st41{fill:#93DAED;}
	.st42{fill:#F9D998;}
	.st43{fill:#87DDF5;}
	.st44{fill:#FFC757;}
	.st45{fill:url(#SVGID_7_);}
	.st46{fill:url(#SVGID_8_);}
	.st47{fill:url(#SVGID_9_);}
	.st48{fill:url(#SVGID_10_);}
	.st49{fill:url(#SVGID_11_);}
	.st50{fill:url(#SVGID_12_);}
	.st51{fill:url(#SVGID_13_);}
	.st52{fill:url(#SVGID_14_);}
	.st53{fill:url(#SVGID_15_);}
	.st54{fill:url(#SVGID_16_);}
	.st55{fill:url(#SVGID_17_);}
	.st56{fill:#6DB5AF;}
	.st57{fill:none;stroke:#FFF4DC;stroke-width:6.0284;stroke-linecap:round;stroke-linejoin:round;stroke-miterlimit:10;}
	.st58{fill:none;stroke:#FFF4DC;stroke-width:4;stroke-linecap:round;stroke-linejoin:round;stroke-miterlimit:10;}
	.st59{fill:none;stroke:#FFF4DC;stroke-width:5;stroke-linecap:round;stroke-linejoin:round;stroke-miterlimit:10;}
</style>
<linearGradient
   id="SVGID_1_"
   gradientUnits="userSpaceOnUse"
   x1="834.86969"
   y1="815.10248"
   x2="2601.7739"
   y2="815.10248"
   gradientTransform="translate(-642.40134,15.661227)">
	<stop
   offset="0"
   style="stop-color:#269BEA;stop-opacity:0.2"
   id="stop4" />
	<stop
   offset="0.0277"
   style="stop-color:#279BEA;stop-opacity:0.2"
   id="stop6" />
	<stop
   offset="0.1411"
   style="stop-color:#3198E9;stop-opacity:0.2"
   id="stop8" />
	<stop
   offset="0.3306"
   style="stop-color:#4A8FE6;stop-opacity:0.2"
   id="stop10" />
	<stop
   offset="0.5729"
   style="stop-color:#7480E1;stop-opacity:0.2"
   id="stop12" />
	<stop
   offset="0.8556"
   style="stop-color:#AE6CDA;stop-opacity:0.2"
   id="stop14" />
	<stop
   offset="1"
   style="stop-color:#CE61D6;stop-opacity:0.2"
   id="stop16" />
</linearGradient>
<path
   class="st0"
   d="m 1959.3687,900.62123 c -127.6,133.58997 -537.27,384.72997 -945.74,506.97997 -372.39004,-116.08 -789.15004,-346.42 -820.71004,-798.01997 -0.01,-0.1 -0.01,-0.18 -0.01,-0.28 -12.59,-183.84 245.06,-427.77 656.69,-335.03 0,0 187.16004,50.36 384.79004,145.23 106.9,51.3 216.85,115.63 301.93,192.04 167.28,150.24 335.11,244.86 423.05,289.08 z"
   id="path19"
   inkscape:connector-curvature="0"
   style="fill:url(#SVGID_1_)" />
<linearGradient
   id="SVGID_2_"
   gradientUnits="userSpaceOnUse"
   x1="1063.129"
   y1="1325.5646"
   x2="2631.4758"
   y2="1325.5646"
   gradientTransform="translate(-642.40134,15.661227)">
	<stop
   offset="0"
   style="stop-color:#269BEA;stop-opacity:0.2"
   id="stop21" />
	<stop
   offset="0.0277"
   style="stop-color:#279BEA;stop-opacity:0.2"
   id="stop23" />
	<stop
   offset="0.1411"
   style="stop-color:#3198E9;stop-opacity:0.2"
   id="stop25" />
	<stop
   offset="0.3306"
   style="stop-color:#4A8FE6;stop-opacity:0.2"
   id="stop27" />
	<stop
   offset="0.5729"
   style="stop-color:#7480E1;stop-opacity:0.2"
   id="stop29" />
	<stop
   offset="0.8556"
   style="stop-color:#AE6CDA;stop-opacity:0.2"
   id="stop31" />
	<stop
   offset="1"
   style="stop-color:#CE61D6;stop-opacity:0.2"
   id="stop33" />
</linearGradient>
<path
   class="st1"
   d="m 1915.0287,1102.3412 c -177.02,-178.70997 -504.58,99.38 -727.25,81.62 -245.74004,-19.59 -311.14004,-108.55 -484.52004,-110.75 -72.32,-0.92 -291.33,28.38 -282.26,237.19 7.23,166.36 108.51,307.34 373.58,328.54 265.08004,21.21 673.50004,-218.33 849.08004,-308.81 175.58,-90.48 345.26,-67.33 345.26,-67.33 0,0 7.08,-78.72 -73.89,-160.46 z"
   id="path36"
   inkscape:connector-curvature="0"
   style="fill:url(#SVGID_2_)" />
<linearGradient
   id="SVGID_3_"
   gradientUnits="userSpaceOnUse"
   x1="681.07819"
   y1="825.07593"
   x2="2703.7327"
   y2="825.07593"
   gradientTransform="translate(-642.40134,15.661227)">
	<stop
   offset="0"
   style="stop-color:#269BEA;stop-opacity:0.2"
   id="stop38" />
	<stop
   offset="0.0277"
   style="stop-color:#279BEA;stop-opacity:0.2"
   id="stop40" />
	<stop
   offset="0.1411"
   style="stop-color:#3198E9;stop-opacity:0.2"
   id="stop42" />
	<stop
   offset="0.3306"
   style="stop-color:#4A8FE6;stop-opacity:0.2"
   id="stop44" />
	<stop
   offset="0.5729"
   style="stop-color:#7480E1;stop-opacity:0.2"
   id="stop46" />
	<stop
   offset="0.8556"
   style="stop-color:#AE6CDA;stop-opacity:0.2"
   id="stop48" />
	<stop
   offset="1"
   style="stop-color:#CE61D6;stop-opacity:0.2"
   id="stop50" />
</linearGradient>
<path
   class="st2"
   d="m 1988.9687,864.22123 c 149.62,-236 34.48,-455.78 -52.56,-550.21 -172.89,-187.57 -533.53,-115.24 -664.35,58.32 -230.16,305.37 -471.60004,303.31 -700.46004,208.01 -162.17,-67.54 -265.64,-26.83 -265.64,-26.83 -223.839999,78.61 -316.549999,258.49 -241.889999,549.65997 222.229999,866.65 1779.510039,-9.62 1924.900039,-238.94997 z"
   id="path53"
   inkscape:connector-curvature="0"
   style="fill:url(#SVGID_3_)" />
<path
   class="st3"
   d="m 856.29866,1347.3712 c -65.54,53.86 -150.3,46.64 -150.3,46.64 0,0 52.5,63.65 71.43,78.53 0,0 60.66,1.36 116.02,-29.55 z"
   id="path55"
   inkscape:connector-curvature="0"
   style="fill:#24eca5" />
<path
   class="st3"
   d="m 433.33866,949.83123 -20.33,-109.09 c -143.43,122.75 -228.68,83.67 -228.68,83.67 0,0 -19.01,56.27 9.42,109.09997 0.01,-0.01 170.28,-0.01 239.59,-83.67997 z"
   id="path57"
   inkscape:connector-curvature="0"
   style="fill:#24eca5" />
<path
   class="st3"
   d="m 855.67866,358.17123 c -139.99,54.98 -299.86,33.06 -299.86,33.06 -12.33,-105.59 11.51,-121.52 11.51,-121.52 0,0 72.58,37.72 256.81,-27.02 0,0 5.15,28.32 14.97,64.73 11.77,43.64 16.57,50.75 16.57,50.75 z"
   id="path59"
   inkscape:connector-curvature="0"
   style="fill:#24eca5" />
<path
   class="st3"
   d="m 1085.1387,487.51123 c 0,0 -9.21,-139.2 94.87,-195.15 0,0 42.32,-16.89 130.58,-18.1 0,0 -90.24,74.05 -114.85,187.39 -0.01,0 -60.68,-21.27 -110.6,25.86 z"
   id="path61"
   inkscape:connector-curvature="0"
   style="fill:#24eca5" />
<path
   class="st3"
   d="m 1785.6987,525.74123 c -19.06,-172.32 -151.18,-192.38 -151.18,-192.38 0,0 -42.74,38.44 -75.46,103.87 0,0 81.09,-5.33 114.51,96.8 12.25,37.44 15.32,64.09 15.32,64.09 z"
   id="path63"
   inkscape:connector-curvature="0"
   style="fill:#24eca5" />
<path
   class="st3"
   d="m 1159.3887,891.03123 c 0,0 118.9,-41.2 144.85,-162.17 0,0 -29.42,-41.05 -58.62,-86.2 0,0 -22.48,109.39 -109.59,138.4 0,0 40.39,42.44 23.36,109.97 z"
   id="path65"
   inkscape:connector-curvature="0"
   style="fill:#24eca5" />
<path
   class="st4"
   d="m 1136.0287,781.06123 c 87.11,-29.01 109.59,-138.4 109.59,-138.4 4.84,7.49 9.69,14.86 14.4,21.95 -13.54,36.63 -45.96,99.58 -115.04,128.53 -4.94,-7.87 -8.95,-12.08 -8.95,-12.08 z"
   id="path67"
   inkscape:connector-curvature="0"
   style="fill:#21d892" />
<circle
   class="st5"
   cx="1230.3286"
   cy="777.42126"
   r="32.990002"
   id="circle69"
   style="fill:#b3f4db" />
<path
   class="st6"
   d="m 1263.4087,779.23123 c 0,0 -32.92,26.64 -42.19,16.19 -5.68,-6.41 32.34,-34.74 23.02,-42.06 -11.49,-9.01 -44.46,24.53 -44.46,24.53"
   id="path71"
   inkscape:connector-curvature="0"
   style="fill:none;stroke:#449978;stroke-width:6.02839994;stroke-linecap:round;stroke-linejoin:round;stroke-miterlimit:10" />
<line
   class="st6"
   x1="1253.4386"
   y1="800.42126"
   x2="1211.1886"
   y2="753.38123"
   id="line73"
   style="fill:none;stroke:#449978;stroke-width:6.02839994;stroke-linecap:round;stroke-linejoin:round;stroke-miterlimit:10" />
<path
   class="st4"
   d="m 1634.5087,333.37123 c 0,0 -6.72,6.05 -16.87,17.41 45.18,8.08 135.45,42.27 153.15,186.1 l 14.9,-11.14 c -19.05,-172.31 -151.18,-192.37 -151.18,-192.37 z"
   id="path75"
   inkscape:connector-curvature="0"
   style="fill:#21d892" />
<path
   class="st4"
   d="m 825.59866,250.13123 c -0.96,-4.76 -1.45,-7.44 -1.45,-7.44 -184.23,64.73 -256.81,27.02 -256.81,27.02 0,0 -6.12,4.1 -10.56,21.89 137.19,10.13 224.37,-19.38 268.82,-41.47 z"
   id="path77"
   inkscape:connector-curvature="0"
   style="fill:#21d892" />
<path
   class="st4"
   d="m 184.33866,924.40123 c 0,0 -1.99,5.89 -3.72,15.64 122.74,12.43 206.61,-57.05 235.04,-85.09 l -2.65,-14.22 c -143.42,122.76 -228.67,83.67 -228.67,83.67 z"
   id="path79"
   inkscape:connector-curvature="0"
   style="fill:#21d892" />
<path
   class="st4"
   d="m 1195.7287,461.65123 c 24.61,-113.34 114.85,-187.39 114.85,-187.39 -7.58,0.1 -14.8,0.33 -21.7,0.64 -36.33,35.19 -99.09,106.25 -107.03,183.52 8.65,1.4 13.88,3.23 13.88,3.23 z"
   id="path81"
   inkscape:connector-curvature="0"
   style="fill:#21d892" />
<path
   class="st4"
   d="m 856.29866,1347.3712 c -65.54,53.86 -150.3,46.64 -150.3,46.64 0,0 6.03,7.3 14.73,17.54 36.92,-6.45 97.12,-19.8 143.51,-43.77 z"
   id="path83"
   inkscape:connector-curvature="0"
   style="fill:#21d892" />
<path
   class="st7"
   d="m 1295.7787,1007.3812 c -6.57,-1.15 -34.04,-1.57 -40.92,-2.97 0,0 4.76,83.13 14.73,196.79 6.53,74.48 15.29,162.07 26.4,247.97 2.38,18.29 4.85,36.51 7.43,54.5 -123.91,57.04 -258.35,108.64 -378.91004,128.24 -5.88,-23.6 -12.73,-48.26 -19.71,-73.56 -9.59,-34.72 -20.22,-70.53 -31.25,-105.68 -40.73,-129.83 -86.39,-252.08 -100.61,-290.36 l -21.27,-93.33 19.44,-159.77997 c 73.55,-44.61 116.95,-63.9 116.95,-63.9 l 131.56004,-64.89 339.05,82.53 14.29,3.48 -21.97,-68.48 19.82,-3.5 79.68,-14.03 c 0,0 34.19,77.75 46.52,169.41 0,0 0,0 0,0.01 1.84,13.74 -0.93,-9.83 -0.26,4.33 0,0 -42.42,48.65997 -221.71,54.06997 z"
   id="path85"
   inkscape:connector-curvature="0"
   style="fill:#e3f9ff" />
<path
   class="st8"
   d="m 964.33866,974.37123 c 0,0 7.82,133.85997 20.05,206.48997"
   id="path87"
   inkscape:connector-curvature="0"
   style="fill:none;stroke:#b0e6f5;stroke-width:6.02839994;stroke-linecap:round;stroke-linejoin:round;stroke-miterlimit:10" />
<path
   class="st9"
   d="m 929.33866,926.37123 c 0,0 32,15 35,48 0,0 6,-52 52.00004,-70"
   id="path89"
   inkscape:connector-curvature="0"
   style="fill:#fda96b" />
<path
   class="st10"
   d="m 1042.3087,1389.6812 c -3.03,19.91 -8.74,37.89 -16.09,54 -33.82004,74.24 -102.25004,108.8 -102.25004,108.8 -6.95,-34.76 -23.78,-89.96 -43.05,-147.92 l 106.35,-40.08 53.00004,-19.98 z"
   id="path91"
   inkscape:connector-curvature="0"
   style="fill:#b0e6f5" />
<path
   class="st10"
   d="m 1270.7287,1471.0312 c -92.2,26.16 -185.11,16.04 -234.54,-23.75 -6.98,-5.62 -13.33,-12.1 -19.14,-19.33 -16.92,-21.04 -29.23004,-48.42 -38.95004,-79.2 l 53.00004,-19.98 217.72,-82.05 z"
   id="path93"
   inkscape:connector-curvature="0"
   style="fill:#b0e6f5" />
<path
   class="st11"
   d="m 1376.3187,879.54123 c 0,0 -208.74,-15.65 -229.85,-19.25 -12.94,-2.21 -36.47,-5.65 -60.12,-9.01 -14.92,-2.13 -29.89,-4.23 -42.29,-5.98 -6.25,-0.88 -11.86,-2.97 -16.84,-5.75 9.9,-31.07 11.8,-54.42 11.8,-54.42 l 64.72,15.76 269.23,65.54 z"
   id="path95"
   inkscape:connector-curvature="0"
   style="fill:#b3f4f4" />
<path
   class="st9"
   d="m 912.33866,816.37123 -12,22.88 -12.28,6.05 -10.72,18.07 52,63 c 0,0 32,15 35,48 0,0 6,-52 52.00004,-70 46,-18 50,-55 50,-55 l -50,-54 -21.00004,-11 z"
   id="path97"
   inkscape:connector-curvature="0"
   style="fill:#fda96b" />
<path
   class="st12"
   d="m 929.33866,926.37123 c 0,0 32,15 35,48 0,0 6,-52 52.00004,-70"
   id="path99"
   inkscape:connector-curvature="0"
   style="fill:none;stroke:#b3f4f4;stroke-width:6.02839994;stroke-linecap:round;stroke-linejoin:round;stroke-miterlimit:10" />
<path
   class="st13"
   d="m 981.42866,1497.0412 c 74.03004,-9.58 108.07004,-27.42 108.07004,-27.42 l 113.36,-56.25 17.39,96.72 -229.29004,60.85 -77.16,-7.61 v -48.9 z"
   id="path101"
   inkscape:connector-curvature="0"
   style="fill:#241638" />
<polygon
   class="st9"
   points="1662.02,764.74 1654.3,684.42 1561.76,726.4 1534.83,805.47 1566.05,821.74 1694.93,799.74 1689.75,771.6 "
   id="polygon103"
   style="fill:#fda96b"
   transform="translate(-642.40134,15.661227)" />
<path
   class="st14"
   d="m 900.33866,840.87123 c 0,0 55.3,-25.44 97.29,-126.23 5.93004,-14.24 18.11004,-24.32 17.00004,-15.11 -2.45,20.38 5.48,81.26 5.48,81.26 l 23.84,5.68 -17.03,74.91 c 0,0 -23.84,-21.57 -28.38004,-57.89 0,-0.01 -44.86,52.13 -98.2,37.38 z"
   id="path105"
   inkscape:connector-curvature="0"
   style="fill:#fb8c49" />
<path
   class="st9"
   d="m 1007.6487,600.55123 c 13.04,85.28 5.89,139.39 -32.38004,190.63 -38.27,51.24 -107.21,70.16 -145.69,33.04 -38.47,-37.12 -77.91,-205.95 -77.91,-205.95 l 2.6,-36.99 212.32,-116.49 53.03004,99.55 z"
   id="path107"
   inkscape:connector-curvature="0"
   style="fill:#fda96b" />
<path
   class="st14"
   d="m 939.76866,717.71123 c 0,0 51.55,-32.8 32.69,-128.62 -6.07,-30.86 -8.99,-41.36 -8.99,-41.36 0,0 -124.69,73.48 -211.79,70.54 l 50.04,-86.75 173.56,-29.49 58.00004,84.12 -58.00004,157.3 z"
   id="path109"
   inkscape:connector-curvature="0"
   style="fill:#fb8c49" />
<path
   class="st15"
   d="m 791.50866,713.65123 c -45.18,18.34 -64.35,-13.09 -71.73,-33.18 -3.07,-8.39 -4.1,-14.79 -4.1,-14.79 l 14.62,-5.12 88.58,-31.03 c 0.01,-0.02 11.25,68.44 -27.37,84.12 z"
   id="path111"
   inkscape:connector-curvature="0"
   style="fill:#92fff9" />
<path
   class="st16"
   d="m 779.44866,717.54123 c -36.62,8.63 -52.98,-18.88 -59.67,-37.07 -3.07,-8.39 -4.1,-14.79 -4.1,-14.79 l 14.62,-5.12 29.44,-10.32 c 4.88,18.31 11.7,42.55 19.71,67.3 z"
   id="path113"
   inkscape:connector-curvature="0"
   style="fill:#38f4e2" />
<path
   class="st15"
   d="m 971.84866,586.03123 -116.18,32.58 c 0,0 3.84,55.75 46.43,55.75 51.6,-0.01 71.33,-41.64 69.75,-88.33 z"
   id="path115"
   inkscape:connector-curvature="0"
   style="fill:#92fff9" />
<path
   class="st17"
   d="m 1007.6487,600.54123 c 13.03,85.29 5.88,139.39 -32.38004,190.63 -38.27,51.24 -107.21,70.16 -145.68,33.04 -9.66,-9.31 -19.38,-26.92 -28.5,-48.08 0,0 9.5,-23.03 16.33,-40.79 6.83,-17.76 67.61,-32.78 86.74,-35.51 19.13,-2.73 30.05,28 58.05,19.12 28,-8.88 29.37,-48.49 28.68,-90.15 -0.69,-41.66 -22.54,-110.64 -22.54,-110.64 0,0 -64.2,49.17 -179.62,90.83 -115.42,41.66 -118.78,-77.48 -118.78,-77.48 0,0 31.4,11.11 131.75,-74.82 100.35,-85.93 235.94004,-57.79 248.54004,79.33 10.79,117.51 -16.55,124.65 -6.18,165.55 l -35.53,-1.66"
   id="path117"
   inkscape:connector-curvature="0"
   style="fill:#250949" />
<path
   class="st7"
   d="m 794.57866,1111.3512 c -4.69,45.32 -17.35,63.35 -17.35,63.35 0,0 -73.39,198.29 -133.75,212.16 v 0 c -2.36,0.55 -4.71,0.83 -7.03,0.83 -51.62,0 -68.62,-112.9 -68.62,-112.9 l 18.8,-21.93 16.49,-35.76 46.41,-100.6 c 0,0 22.93,-152.20997 121.57,-207.30997 25.38,95.41997 27.81,160.38997 23.48,202.15997 z"
   id="path119"
   inkscape:connector-curvature="0"
   style="fill:#e3f9ff" />
<path
   class="st11"
   d="m 794.57866,1111.3512 c -4.69,45.32 -17.35,63.35 -17.35,63.35 0,0 -73.39,198.29 -133.75,212.16 0.92,-0.87 59.1,-72.08 151.1,-275.51 z"
   id="path121"
   inkscape:connector-curvature="0"
   style="fill:#b3f4f4" />
<path
   class="st11"
   d="m 670.59866,1228.7512 -67.47,-11.65 46.41,-100.6 c 0,0 22.93,-152.20997 121.57,-207.30997 -48.47,43.57 -110.5,164.58997 -100.51,319.55997 z"
   id="path123"
   inkscape:connector-curvature="0"
   style="fill:#b3f4f4" />
<linearGradient
   id="SVGID_4_"
   gradientUnits="userSpaceOnUse"
   x1="1217.6165"
   y1="857.9306"
   x2="1444.4159"
   y2="620.01343">
	<stop
   offset="0"
   style="stop-color:#FFFFFF;stop-opacity:0.5722"
   id="stop125" />
	<stop
   offset="1"
   style="stop-color:#FFFFFF;stop-opacity:0"
   id="stop127" />
</linearGradient>
<polygon
   class="st18"
   points="1456.7,813.02 1328.9,954.36 1168,798.85 1351.6,504.21 "
   id="polygon130"
   style="fill:url(#SVGID_4_)"
   transform="translate(-642.40134,15.661227)" />
<path
   class="st19"
   d="m 552.35866,1194.7812 c 0,0 87.66,-46.6 119.85,-19.35 l -50.33,35.82 -48.46,6.49 z"
   id="path132"
   inkscape:connector-curvature="0"
   style="fill:#71c1d9" />
<path
   class="st20"
   d="m 518.67866,824.90123 c -7.51,-24.46 92.77,-55.08 104.38,-37.56 11.13,16.79 64.57,146.93 72.81,173.32 4.65,14.9 -93.75,50.06997 -102.89,41.47997 -11.09,-10.41997 -69.78,-162.52997 -74.3,-177.23997 z"
   id="path134"
   inkscape:connector-curvature="0"
   style="fill:#a83eb0" />
<path
   class="st11"
   d="m 1103.7387,800.88123 v 0.01 c -2.2,6.84 -4.4,13.49 -6.6,19.95 -0.72,2.12 -1.44,4.23 -2.16,6.31 l -0.01,0.01 c -0.82,2.4 -1.65,4.77 -2.48,7.11 -0.26,0.74 -0.52,1.47 -0.78,2.2 -0.34,0.96 -0.68,1.92 -1.02,2.88 -0.74,2.06 -1.48,4.1 -2.21,6.12 -0.71,1.95 -1.41,3.88 -2.12,5.79 -0.01,0.01 -0.01,0.01 -0.01,0.02 -20.16,54.65 -37.18,88.99 -37.18,88.99 -13.73,-34.77 -68.14004,-12.94 -68.14004,-12.94 0,0 11.77,-13.29 31.21004,-50.08 6.53,-12.35 10.83,-24.9 14.51,-36.24 9.84,-30.37 12.08,-53.69 12.26,-55.73 0.01,-0.1 0.01,-0.15 0.01,-0.15 z"
   id="path136"
   inkscape:connector-curvature="0"
   style="fill:#b3f4f4" />
<path
   class="st11"
   d="m 888.05866,845.30123 c 15.09,46.52 59.35,89.74 59.35,89.74 -40.4,-9.5 -50.68,19.12 -50.68,19.12 l -57.61,-84.32 z"
   id="path138"
   inkscape:connector-curvature="0"
   style="fill:#b3f4f4" />
<g
   id="g144"
   transform="translate(-642.40134,15.661227)">
	<g
   id="g142">
		<path
   class="st21"
   d="m 1326.7,730.18 c 4.48,-5.71 8.95,-11.41 13.43,-17.12 3.53,-4.51 -2.79,-10.92 -6.36,-6.36 -4.48,5.71 -8.95,11.41 -13.43,17.12 -3.54,4.5 2.78,10.92 6.36,6.36 z"
   id="path140"
   inkscape:connector-curvature="0"
   style="fill:#958ab7" />
	</g>
</g>
<g
   id="g150"
   transform="translate(-642.40134,15.661227)">
	<g
   id="g148">
		<path
   class="st21"
   d="m 1138.28,711.07 c 3.69,10.7 7.37,21.4 11.06,32.1 1.88,5.44 10.57,3.1 8.68,-2.39 -3.69,-10.7 -7.37,-21.4 -11.06,-32.1 -1.88,-5.44 -10.58,-3.1 -8.68,2.39 z"
   id="path146"
   inkscape:connector-curvature="0"
   style="fill:#958ab7" />
	</g>
</g>
<g
   id="g156"
   transform="translate(-642.40134,15.661227)">
	<g
   id="g154">
		<path
   class="st21"
   d="m 1169.45,980.24 c -6.32,6.42 -12.64,12.84 -18.96,19.27 -4.07,4.13 2.29,10.5 6.36,6.36 6.32,-6.42 12.64,-12.84 18.96,-19.27 4.07,-4.13 -2.29,-10.5 -6.36,-6.36 z"
   id="path152"
   inkscape:connector-curvature="0"
   style="fill:#958ab7" />
	</g>
</g>
<g
   id="g162"
   transform="translate(-642.40134,15.661227)">
	<g
   id="g160">
		<path
   class="st3"
   d="m 1986.63,177.58 c 8.84,-13 16.91,-26.67 23.74,-40.83 2.5,-5.19 -5.26,-9.76 -7.77,-4.54 -6.82,14.16 -14.9,27.83 -23.74,40.83 -3.26,4.8 4.53,9.31 7.77,4.54 z"
   id="path158"
   inkscape:connector-curvature="0"
   style="fill:#24eca5" />
	</g>
</g>
<g
   id="g168"
   transform="translate(-642.40134,15.661227)">
	<g
   id="g166">
		<path
   class="st3"
   d="m 1543.41,165.82 c 3.01,23.13 3.09,47.17 0,70.26 -0.77,5.72 8.24,5.67 9,0 3.09,-23.09 3.01,-47.13 0,-70.26 -0.74,-5.67 -9.75,-5.74 -9,0 z"
   id="path164"
   inkscape:connector-curvature="0"
   style="fill:#24eca5" />
	</g>
</g>
<g
   id="g174"
   transform="translate(-642.40134,15.661227)">
	<g
   id="g172">
		<path
   class="st3"
   d="m 967.46,400.67 c 15.4,14.17 34.19,27.32 54.4,33.24 5.57,1.63 7.95,-7.05 2.39,-8.68 -18.7,-5.48 -36.18,-17.81 -50.43,-30.93 -4.26,-3.91 -10.64,2.44 -6.36,6.37 z"
   id="path170"
   inkscape:connector-curvature="0"
   style="fill:#24eca5" />
	</g>
</g>
<g
   id="g180"
   transform="translate(-642.40134,15.661227)">
	<g
   id="g178">
		<path
   class="st4"
   d="m 1267,1441.38 c -8.41,10.09 -13.12,23.58 -15.72,36.23 -1.16,5.65 7.51,8.07 8.68,2.39 1.74,-8.46 4.37,-16.71 8.46,-24.34 1.14,-2.13 2.37,-4.22 3.73,-6.21 0.38,-0.56 0.78,-1.12 1.18,-1.67 0.64,-0.88 -0.53,0.64 0.03,-0.04 3.69,-4.42 -2.65,-10.82 -6.36,-6.36 z"
   id="path176"
   inkscape:connector-curvature="0"
   style="fill:#21d892" />
	</g>
</g>
<g
   id="g186"
   transform="translate(-642.40134,15.661227)">
	<g
   id="g184">
		<path
   class="st4"
   d="m 2025.23,1173.9 c 6.42,8.15 16.28,14.44 26.42,16.49 5.66,1.14 8.07,-7.53 2.39,-8.68 -8.82,-1.78 -16.88,-7.11 -22.45,-14.18 -3.58,-4.53 -9.91,1.87 -6.36,6.37 z"
   id="path182"
   inkscape:connector-curvature="0"
   style="fill:#21d892" />
	</g>
</g>
<g
   id="g192"
   transform="translate(-642.40134,15.661227)">
	<g
   id="g190">
		<path
   class="st4"
   d="m 2267.33,742.62 c 12.57,-2.62 25.92,-2.61 38.66,-1.77 5.78,0.38 5.76,-8.62 0,-9 -13.56,-0.9 -27.68,-0.69 -41.05,2.09 -5.67,1.18 -3.27,9.85 2.39,8.68 z"
   id="path188"
   inkscape:connector-curvature="0"
   style="fill:#21d892" />
	</g>
</g>
<ellipse
   transform="rotate(-10.381719)"
   class="st22"
   cx="654.1192"
   cy="808.78436"
   rx="11.449662"
   ry="8.4397507"
   id="ellipse194"
   style="fill:#2a73a3;stroke-width:0.9999705" />
<ellipse
   transform="rotate(-10.381719)"
   class="st22"
   cx="784.49847"
   cy="792.25995"
   rx="11.449662"
   ry="8.4397507"
   id="ellipse196"
   style="fill:#2a73a3;stroke-width:0.9999705" />
<path
   class="st23"
   d="m 768.04866,680.13123 -49.49,-4.1 c -3.07,-8.39 -2.87,-10.36 -2.87,-10.36 l 7.18,-2.52 42.37,7.12 z"
   id="path198"
   inkscape:connector-curvature="0"
   style="fill:#54b3e8" />
<path
   class="st24"
   d="m 833.54866,674.35123 c 0,0 -5.28,6.39 -4.24,12.05 1.12,6.07 13.08,13.2 13.08,13.2"
   id="path200"
   inkscape:connector-curvature="0"
   style="fill:none;stroke:#ed7230;stroke-width:6.02839994;stroke-linecap:round;stroke-linejoin:round;stroke-miterlimit:10" />
<path
   class="st13"
   d="m 1303.4187,1503.6712 c -123.91,57.04 -258.35,108.64 -378.91004,128.24 -5.88,-23.6 -12.54,-48.31 -19.71,-73.56 l -1.39,-5.23 c 0,0 260.51004,-49 392.06004,-107.78 l 0.52,3.83 z"
   id="path202"
   inkscape:connector-curvature="0"
   style="fill:#241638" />
<path
   class="st25"
   d="m 902.27866,564.45123 c 0,0 20.64,-1.45 42.74,6.16"
   id="path204"
   inkscape:connector-curvature="0"
   style="fill:none;stroke:#0c0514;stroke-width:10;stroke-linecap:round;stroke-linejoin:round;stroke-miterlimit:10" />
<path
   class="st25"
   d="m 778.53866,598.13123 c 0,0 -16.66,15.58 -24.27,34.59"
   id="path206"
   inkscape:connector-curvature="0"
   style="fill:none;stroke:#0c0514;stroke-width:10;stroke-linecap:round;stroke-linejoin:round;stroke-miterlimit:10" />
<path
   class="st26"
   d="m 835.76866,752.92123 c 0,0 63.76,-19.02 75.29,-24.4 0,0 1.8,45.81 -20.66,58.68 -22.45,12.86 -45.2,-10.63 -54.63,-34.28 z"
   id="path208"
   inkscape:connector-curvature="0"
   style="fill:#ffffff" />
<path
   class="st27"
   d="m 909.34866,751.89123 c -2.25,13.33 -7.39,28.67 -18.95,35.3 -11.18,6.4 -22.41,3.81 -32.06,-3.34 12.68,-32.51 51.01,-31.96 51.01,-31.96 z"
   id="path210"
   inkscape:connector-curvature="0"
   style="fill:#af3f82" />
<path
   class="st7"
   d="m 1472.6487,806.69123 c -17.37,17.89 -82.26,30.13 -102.54,31.46 -14.52,0.95 -21.85,-0.75 -21.85,-0.75 -14.26,-26.37 -16.65,-61.43 -16.65,-61.43 l 20.23,-5.28 98.66,-25.74 z"
   id="path212"
   inkscape:connector-curvature="0"
   style="fill:#e3f9ff" />
<path
   class="st11"
   d="m 1340.2887,818.65123 c 0,0 73.61,-4.27 121.21,-43.02 l 11.14,31.05 c 0,0 -72.43,38.53 -124.38,30.72 z"
   id="path214"
   inkscape:connector-curvature="0"
   style="fill:#b3f4f4" />
<path
   class="st11"
   d="m 1369.0287,780.28123 c -21.9,-1.06 -29.47,-2.32 -37.42,-4.31 0,0 2.39,35.06 16.65,61.43 0,0 3.6,0.83 15.77,1.15 l 8.94,27.87 -14.29,-3.48 17.64,16.6 c 0,0 7.91,36.38 14.75,33.9 16.98,-6.17 -22.04,-133.16 -22.04,-133.16 z"
   id="path216"
   inkscape:connector-curvature="0"
   style="fill:#b3f4f4" />
<path
   class="st19"
   d="m 1331.6087,775.96123 c 0,0 86.38,-54.34 118.89,-31.01 0,0 -65,57.16 -118.89,31.01 z"
   id="path218"
   inkscape:connector-curvature="0"
   style="fill:#71c1d9" />
<path
   class="st11"
   d="m 1496.9887,957.93123 c 0,0 -85.21,73.73997 -242.13,46.47997 0.99,-0.16 55.04,-7.44997 137.82,-21.37997 82.21,-13.83 99.35,-59.25 99.52,-59.79 1.83,13.75 4.11,20.54 4.79,34.69 z"
   id="path220"
   inkscape:connector-curvature="0"
   style="fill:#b3f4f4" />
<path
   class="st28"
   d="m 647.28866,1155.6012 0.48,3.65 25.3,94.61 -35.8,9.37 -62.37,2.02 -6.65,-278.22997 c 0,0 -18.17,-39.26 -27.62,-58.89 -9.45,-19.63 1.05,-41.72 1.05,-41.72 l 8.92,22.09 c 0,0 81.9,-75.64 93.53,-75.64 4.35,0 8.98,2.03 13.08,5.62 6.88,6.05 12.27,16.53 12.27,29.27 0,20.35 -46.44,105.63 -46.44,105.63 z"
   id="path222"
   inkscape:connector-curvature="0"
   style="fill:#ffa96a" />
<path
   class="st14"
   d="m 623.05866,973.39123 46.44,273.90997 -26.96,17.96 c 9.5,-3.23 -33.9,-263.53 -32.05,-284.58997 1.87,-21.33 37.49,-86.25 42.69,-145.19 l 4.04,3.01 c 6.88,6.05 12.27,16.53 12.27,29.27 0.01,20.35 -46.43,105.63 -46.43,105.63 z"
   id="path224"
   inkscape:connector-curvature="0"
   style="fill:#fb8c49" />
<path
   class="st7"
   d="m 675.17866,1229.0812 c -38.02,28.1 -115.7,21.07 -115.7,21.07 l -3.35,-26.08 -3.76,-29.3 c 63.29,25.43 119.85,-19.35 119.85,-19.35 4.59,12.56 1.7,22.32 2.53,29.77 l 0.01,0.01 c 1.78,16.05 0.42,23.88 0.42,23.88 z"
   id="path226"
   inkscape:connector-curvature="0"
   style="fill:#e3f9ff" />
<path
   class="st11"
   d="m 690.66866,1251.0212 c -38.02,28.1 -127.74,26.56 -127.74,26.56 l -3.88,-30.22 c 0,0 63.98,11.15 128.07,-23.08 l 4.22,4.28 c 4.76,13.91 -0.67,22.46 -0.67,22.46 z"
   id="path228"
   inkscape:connector-curvature="0"
   style="fill:#b3f4f4" />
<path
   class="st29"
   d="m 1024.2187,1399.3812 c -16.97,111.6 -118.34004,162.8 -118.34004,162.8 -20.68,-103.38 -128.64,-387.47 -128.64,-387.47 0,0 46.76,-66.58 -6.12,-265.49997 l 43.2,-25.36 c 0,0 42.79,198.15997 170.08,297.01997 l 35.24004,116.61 z"
   id="path230"
   inkscape:connector-curvature="0"
   style="fill:#0101c5" />
<linearGradient
   id="SVGID_5_"
   gradientUnits="userSpaceOnUse"
   x1="1235.3412"
   y1="1373.8926"
   x2="1615.0933"
   y2="1136.2937"
   gradientTransform="translate(-642.40134,15.661227)">
	<stop
   offset="0"
   style="stop-color:#3F02C4"
   id="stop232" />
	<stop
   offset="1"
   style="stop-color:#5631DB"
   id="stop234" />
</linearGradient>
<path
   class="st30"
   d="m 1024.2187,1399.3812 c -16.97,111.6 -118.34004,162.8 -118.34004,162.8 -23.43,-98.83 -128.64,-387.47 -128.64,-387.47 0,0 46.76,-66.58 -6.12,-265.49997 l 43.2,-25.36 c 0,0 42.79,198.15997 170.08,297.01997 l 35.24004,116.61 z"
   id="path237"
   inkscape:connector-curvature="0"
   style="fill:url(#SVGID_5_)" />
<path
   class="st31"
   d="m 935.16866,1542.8112 c -1.37,1.05 -2.71,2.07 -4.02,3.03 -0.44,0.33 -0.87,0.64 -1.3,0.96 -1.3,0.95 -2.56,1.86 -3.79,2.72 -0.6,0.42 -1.18,0.83 -1.76,1.22 -8.31,5.75 -14.65,9.39 -17.58,10.99 -0.11,0.06 -0.22,0.12 -0.33,0.18 -0.11,0.06 -0.21,0.12 -0.3,0.16 -0.07,0.05 -0.14,0.08 -0.21,0.12 v -0.01 c -1.55,-5.51 -3.13,-11.07 -4.75,-16.63 v -0.01 c -33.95,-117.57 -77.93,-244.29 -105.76,-321.76 -0.36,-1 -0.72,-2 -1.08,-2.99 -0.16,-0.44 -0.32,-0.88 -0.48,-1.32 -6.55,-18.21 -12.13,-33.49 -16.38,-45.04 v -0.01 c 1.16,-1.78 7.32,-11.95 12.29,-33.29 0,0 86.71,242.3 145.45,401.68 z"
   id="path239"
   inkscape:connector-curvature="0"
   style="fill:#4107c6" />
<linearGradient
   id="SVGID_6_"
   gradientUnits="userSpaceOnUse"
   x1="1621.406"
   y1="1132.3981"
   x2="1942.2378"
   y2="1132.3981"
   gradientTransform="translate(-642.40134,15.661227)">
	<stop
   offset="0"
   style="stop-color:#3F02C4"
   id="stop241" />
	<stop
   offset="1"
   style="stop-color:#5631DB"
   id="stop243" />
</linearGradient>
<path
   class="st32"
   d="m 1299.8387,1477.9212 c -92.2,26.16 -185.11,16.04 -234.54,-23.75 -49.43,-39.79 -67.52004,-122.98 -83.19004,-207.38 -15.67,-84.4 30.14004,-103.69 91.63004,-214.61 61.49,-110.91997 41.67,-228.44997 41.67,-228.44997 l 71.18,17.32 c 0,0 -7.7,170.48 73.67,251.70997 z"
   id="path246"
   inkscape:connector-curvature="0"
   style="fill:url(#SVGID_6_)" />
<path
   class="st33"
   d="m 960.44866,1625.2312 -35.94,6.68 c -6,-24.52 -11.15,-43.3 -18.63,-69.72 3.26,-1.75 14.69,-8.13 29.29,-19.38 11.04,29.97 16.98,60.47 25.28,82.42 z"
   id="path248"
   inkscape:connector-curvature="0"
   style="fill:#0c0514" />
<path
   class="st34"
   d="m 815.52866,1280.6612 c 0,0 34.41,-8.97 66.99,-17.29 3.46,-0.88 6.99,1.17 7.93,4.61 l 15.81,57.51 c 0.41,1.49 0.28,3.06 -0.36,4.46 -3.23,7.03 -13.69,29.89 -22.17,48.95 -1.51,3.4 -5.55,4.86 -8.89,3.21 -9.97,-4.95 -29.29,-14.53 -29.29,-14.53 z"
   id="path250"
   inkscape:connector-curvature="0"
   style="fill:#5631db" />
<path
   class="st35"
   d="m 876.82866,1383.3212 -31.28,-15.53 -30.02,-87.13 c -0.02,-0.04 10.76,-2.72 22.21,-5.87 11.89,33.04 25.16,70.08 39.09,108.53 z"
   id="path252"
   inkscape:connector-curvature="0"
   style="opacity:0.5;fill:#2020a8" />
<path
   class="st36"
   d="m 895.67866,1285.5212 c -0.3,0.08 -34.2,9.69 -71.62,18.73 l -2.14,-5.71 c 37.63,-9.06 71.78,-18.71 72.07,-18.8 1.59,-0.47 3.27,0.45 3.73,2.04 0.47,1.6 -0.45,3.28 -2.04,3.74 z"
   id="path254"
   inkscape:connector-curvature="0"
   style="fill:#3f02c4" />
<path
   class="st34"
   d="m 1225.5287,1262.1012 -29.2,48.07 c -1.86,3.06 -5.84,4.06 -8.92,2.23 l -45.45,-26.84 c -1.61,-0.96 -2.73,-2.54 -3.09,-4.38 -1.5,-7.7 -5.89,-29.82 -11.23,-53.22 -0.45,-1.95 -0.9,-3.91 -1.35,-5.87 -1.08,-4.61 -2.19,-9.22 -3.31,-13.74 -0.86,-3.47 1.21,-6.98 4.66,-7.89 10.78,-2.86 32.87,-8.66 44.73,-11.34 10.6,-2.39 23.81,-5.81 31.59,-7.87 3.59,-0.95 7.25,1.28 8.05,4.91 0.72,3.29 1.66,7.6 2.72,12.5 0.41,1.91 0.84,3.91 1.29,5.97 4.06,18.97 9.11,43.35 10.4,53.24 0.2,1.47 -0.12,2.96 -0.89,4.23 z"
   id="path256"
   inkscape:connector-curvature="0"
   style="fill:#5631db" />
<path
   class="st36"
   d="m 1216.0187,1204.6312 c -45.79,13.97 -82.41,22.05 -88.38,23.33 -0.45,-1.95 -0.9,-3.91 -1.35,-5.87 5.59,-1.22 42.68,-9.48 88.44,-23.43 0.41,1.91 0.84,3.91 1.29,5.97 z"
   id="path258"
   inkscape:connector-curvature="0"
   style="fill:#3f02c4" />
<path
   class="st28"
   d="m 1431.8287,758.69123 c 0,0 -20.75,13.21 -35.86,18.42 -20.61,7.1 -38.11,5.58 -38.11,5.58 -5.86,-23.85 -50.06,-203.75 -54.88,-215.21 -5.16,-12.3 -30.6,-65.79 -30.6,-69.02 0,-3.23 7.75,-9.04 11.62,-16.8 3.88,-7.75 6.46,-22.52 6.46,-22.52 h 14.53 c 4.47,-18.74 5.59,-18.75 5.59,-18.75 61.02,8.44 76.87,23.11 76.87,23.11 -3.5,73.63 -16.62,120.46 -16.62,120.46 6.2,49.59 61,174.73 61,174.73 z"
   id="path260"
   inkscape:connector-curvature="0"
   style="fill:#ffa96a" />
<path
   class="st14"
   d="m 1357.8487,782.68123 c -5.86,-23.85 -39.32,-176.52 -44.14,-187.99 -5.16,-12.3 -41.34,-93.02 -41.34,-96.25 0,-3.23 7.75,-9.04 11.62,-16.8 3.88,-7.75 6.46,-22.52 6.46,-22.52 h 14.53 c -3.28,13.67 -10.37,45.13 -10.12,55.3 0,0 27.13,69.93 29.54,77.77 2.1,6.82 43.24,190.46 43.24,190.46 -4.81,0.35 -9.79,0.03 -9.79,0.03 z"
   id="path262"
   inkscape:connector-curvature="0"
   style="fill:#fb8c49" />
<path
   class="st37"
   d="m 1281.8087,501.10123 h 60.54 c 0,0 -1.44,-22.3 -7.74,-25.8 -6.3,-3.5 -18.19,3.5 -18.19,3.5 l 4.9,-11.2"
   id="path264"
   inkscape:connector-curvature="0"
   style="fill:none;stroke:#fb8c49;stroke-width:6.02839994;stroke-linecap:round;stroke-linejoin:round;stroke-miterlimit:10" />
<path
   class="st14"
   d="m 1359.8687,489.81123 c 0,10.28 -10.71,32.11 -33.35,32.11 -22.65,0 -31.65,-7.49 -31.65,-7.49 l -7.02,-13.33 h 54.5 c 0,0 -1.43,-22.29 -7.74,-25.79 0,0 -11.07,1.82 -14.67,-0.86 -3.99,-2.97 -0.42,-10.43 2.3,-9.71 30.16,7.9 37.63,19.06 37.63,25.07 z"
   id="path266"
   inkscape:connector-curvature="0"
   style="fill:#fb8c49" />
<ellipse
   transform="rotate(-18.168594)"
   class="st39"
   cx="291.98798"
   cy="967.53925"
   rx="8.5696106"
   ry="9.0895872"
   id="ellipse268"
   style="fill:#703577;stroke-width:0.99995464" />
<path
   class="st40"
   d="m 1187.3687,864.47123 c -20.58,-1.82 -35.94,-3.33 -40.9,-4.18 -6.94,-1.19 -16.92,-2.72 -28.34,-4.41 0.39,-26.26 -1.78,-45.26 -2.72,-52.15 -0.26,-1.87 0,0 0,0 l 71.18,17.32 c 0,0 0,0 0,0.01 -0.02,0.5 -0.76,17.64 0.78,43.41 z"
   id="path270"
   inkscape:connector-curvature="0"
   style="fill:#3307aa" />
<path
   class="st41"
   d="m 1103.7387,800.88123 v 0.01 c -2.2,6.84 -4.4,13.49 -6.6,19.95 -0.72,2.12 -1.45,4.23 -2.16,6.31 l -0.01,0.01 c -0.83,2.4 -1.66,4.77 -2.48,7.11 -0.26,0.74 -0.52,1.47 -0.78,2.2 -0.34,0.96 -0.68,1.92 -1.02,2.88 -0.74,2.06 -1.48,4.1 -2.21,6.12 -0.71,1.95 -1.42,3.88 -2.12,5.79 -0.01,0.01 -0.01,0.01 -0.01,0.02 -14.92,-2.13 -29.89,-4.23 -42.29,-5.98 -3.37,-0.47 -12.92,-3.07 -17.31,-4.29 9.84,-30.37 12.08,-53.69 12.26,-55.73 z"
   id="path272"
   inkscape:connector-curvature="0"
   style="fill:#93daed" />
<path
   class="st42"
   d="m 576.83866,480.64123 c 7.75,28.22 36.91,44.81 65.13,37.06 l 13.26,-3.64 -28.07,-102.18 -13.26,3.64 c -28.22,7.74 -44.81,36.9 -37.06,65.12 z"
   id="path274"
   inkscape:connector-curvature="0"
   style="fill:#f9d998" />
<path
   class="st42"
   d="m 412.00866,660.31123 c -1.94,-29.2 -27.18,-51.3 -56.38,-49.36 l -13.72,0.91 7.02,105.74 13.72,-0.91 c 29.2,-1.94 51.3,-27.18 49.36,-56.38 z"
   id="path276"
   inkscape:connector-curvature="0"
   style="fill:#f9d998" />
<path
   class="st42"
   d="m 354.87866,1107.6712 c -29.2,1.94 -51.3,27.18 -49.36,56.38 l 2.84,18.86 102.22,-1.51 1.28,-21.14 c -1.93,-29.2 -27.78,-54.53 -56.98,-52.59 z"
   id="path278"
   inkscape:connector-curvature="0"
   style="fill:#f9d998" />
<path
   class="st42"
   d="m 1418.8787,1312.9312 c -14.17,-13.46 -36.56,-11.34 -50.02,2.83 l -7.98,10.23 48.46,46.36 9.52,-7.64 c 13.45,-14.16 14.19,-38.32 0.02,-51.78 z"
   id="path280"
   inkscape:connector-curvature="0"
   style="fill:#f9d998" />
<path
   class="st42"
   d="m 386.37866,1472.3812 c 8.06,-19.68 -6.08,-43.84 -25.76,-51.9 l -9.54,-3.37 -28.38,70.2 11.14,5.47 c 19.68,8.06 44.47,-0.72 52.54,-20.4 z"
   id="path282"
   inkscape:connector-curvature="0"
   style="fill:#f9d998" />
<path
   class="st42"
   d="m 1808.3287,609.73123 c 14.04,28.69 48.69,40.57 77.39,26.52 l 13.48,-6.6 -50.86,-103.91 -13.48,6.6 c -28.7,14.05 -40.58,48.7 -26.53,77.39 z"
   id="path284"
   inkscape:connector-curvature="0"
   style="fill:#f9d998" />
<path
   class="st42"
   d="m 1866.2087,1181.5612 c -9.43,-17.12 -30.95,-23.36 -48.07,-13.94 l -10.61,7.05 31.96,58.67 10.99,-2.43 c 17.14,-9.43 25.16,-32.23 15.73,-49.35 z"
   id="path286"
   inkscape:connector-curvature="0"
   style="fill:#f9d998" />
<path
   class="st42"
   d="m 1126.6087,262.81123 c 18.95,2.89 36.65,-10.12 39.55,-29.06 l 1.36,-8.9 -68.61,-10.48 -1.36,8.9 c -2.89,18.94 10.12,36.64 29.06,39.54 z"
   id="path288"
   inkscape:connector-curvature="0"
   style="fill:#f9d998" />
<path
   class="st42"
   d="m 1582.9087,270.07123 c -11.74,-23.99 -40.71,-33.92 -64.7,-22.18 l -11.27,5.52 40.45,86.12 13.34,-4.76 c 24,-11.74 33.92,-40.71 22.18,-64.7 z"
   id="path290"
   inkscape:connector-curvature="0"
   style="fill:#f9d998" />
<path
   class="st42"
   d="m 1647.5187,827.55123 c -14.96,11.98 -17.37,33.82 -5.38,48.78 l 5.63,7.03 54.16,-43.4 -5.63,-7.03 c -11.99,-14.95 -33.82,-17.37 -48.78,-5.38 z"
   id="path292"
   inkscape:connector-curvature="0"
   style="fill:#f9d998" />
<path
   class="st42"
   d="m 1116.4687,599.09123 c -13.03,13.6 -12.57,35.18 1.03,48.21 l 6.39,6.12 47.18,-49.24 -6.39,-6.12 c -13.6,-13.02 -35.19,-12.56 -48.21,1.03 z"
   id="path294"
   inkscape:connector-curvature="0"
   style="fill:#f9d998" />
<circle
   class="st43"
   cx="976.39868"
   cy="1003.4813"
   r="7.3099999"
   id="circle296"
   style="fill:#87ddf5" />
<circle
   class="st43"
   cx="983.70862"
   cy="1081.9113"
   r="7.3099999"
   id="circle298"
   style="fill:#87ddf5" />
<circle
   class="st44"
   cx="1674.8486"
   cy="861.66125"
   r="34.700001"
   id="circle300"
   style="fill:#ffc757" />
<circle
   class="st44"
   cx="1147.4786"
   cy="628.81128"
   r="34.099998"
   id="circle302"
   style="fill:#ffc757" />
<circle
   class="st44"
   cx="1873.7686"
   cy="577.70123"
   r="57.84"
   id="circle304"
   style="fill:#ffc757" />
<circle
   class="st44"
   cx="1133.2086"
   cy="219.60123"
   r="34.700001"
   id="circle306"
   style="fill:#ffc757" />
<circle
   class="st44"
   cx="1531.6687"
   cy="295.13123"
   r="48.360001"
   id="circle308"
   style="fill:#ffc757" />
<circle
   class="st44"
   cx="641.1886"
   cy="462.96121"
   r="52.98"
   id="circle310"
   style="fill:#ffc757" />
<circle
   class="st44"
   cx="350.68869"
   cy="664.22125"
   r="52.98"
   id="circle312"
   style="fill:#ffc757" />
<circle
   class="st44"
   cx="358.94864"
   cy="1169.4912"
   r="52.98"
   id="circle314"
   style="fill:#ffc757" />
<circle
   class="st44"
   cx="340.98868"
   cy="1453.8512"
   r="38.540001"
   id="circle316"
   style="fill:#ffc757" />
<circle
   class="st44"
   cx="1391.0586"
   cy="1342.9812"
   r="35.119999"
   id="circle318"
   style="fill:#ffc757" />
<circle
   class="st44"
   cx="1829.9487"
   cy="1201.7213"
   r="35.119999"
   id="circle320"
   style="fill:#ffc757" />
<path
   class="st15"
   d="m 823.45866,654.37123 c -2.4,0 -3.93,-0.09 -4.2,-0.11 -1.87,-0.12 -3.28,-1.73 -3.17,-3.59 0.12,-1.87 1.74,-3.28 3.59,-3.17 0.28,0.02 28.55,1.63 41.02,-10.58 1.34,-1.31 3.48,-1.28 4.79,0.05 1.31,1.34 1.29,3.48 -0.05,4.79 -11.57,11.33 -32.92,12.61 -41.98,12.61 z"
   id="path322"
   inkscape:connector-curvature="0"
   style="fill:#92fff9" />
<path
   class="st11"
   d="m 672.20866,1175.4312 c 0,0 8.13,25.43 11.75,93.93 0.16,2.97 0.67,30.95 3.16,29.33 20.92,-13.59 12.49,-115.24 -14.91,-123.26 z"
   id="path324"
   inkscape:connector-curvature="0"
   style="fill:#b3f4f4" />
<linearGradient
   id="SVGID_7_"
   gradientUnits="userSpaceOnUse"
   x1="1995.2209"
   y1="657.5683"
   x2="2089.1794"
   y2="657.5683"
   gradientTransform="matrix(-0.9986,0.0535,-0.0535,-0.9986,2715.6234,1010.7671)">
	<stop
   offset="0"
   style="stop-color:#FCE0A2"
   id="stop326" />
	<stop
   offset="0.2287"
   style="stop-color:#FDEABB;stop-opacity:0.7713"
   id="stop328" />
	<stop
   offset="0.4702"
   style="stop-color:#FEF2CD;stop-opacity:0.5298"
   id="stop330" />
	<stop
   offset="0.7224"
   style="stop-color:#FFF7D8;stop-opacity:0.2776"
   id="stop332" />
	<stop
   offset="1"
   style="stop-color:#FFF8DC;stop-opacity:0"
   id="stop334" />
</linearGradient>
<path
   class="st45"
   d="m 600.16866,486.19123 c 12.63,22.66 41.24,30.78 63.9,18.15 22.66,-12.63 30.78,-41.24 18.15,-63.9 -12.63,-22.66 -41.24,-30.78 -63.9,-18.15 -22.66,12.63 -30.78,41.24 -18.15,63.9 z m 39,-60.63 c 20.85,-1.12 38.65,14.88 39.77,35.73 1.12,20.85 -14.88,38.65 -35.73,39.77 -20.85,1.12 -38.65,-14.88 -39.77,-35.73 -1.11,-20.85 14.88,-38.65 35.73,-39.77 z"
   id="path337"
   inkscape:connector-curvature="0"
   style="fill:url(#SVGID_7_)" />
<linearGradient
   id="SVGID_8_"
   gradientUnits="userSpaceOnUse"
   x1="2466.8879"
   y1="569.93323"
   x2="2568.7683"
   y2="569.93323"
   gradientTransform="matrix(-0.7926,0.6097,-0.6097,-0.7926,4216.9381,-505.08787)">
	<stop
   offset="0"
   style="stop-color:#FCE0A2"
   id="stop339" />
	<stop
   offset="0.2287"
   style="stop-color:#FDEABB;stop-opacity:0.7713"
   id="stop341" />
	<stop
   offset="0.4702"
   style="stop-color:#FEF2CD;stop-opacity:0.5298"
   id="stop343" />
	<stop
   offset="0.7224"
   style="stop-color:#FFF7D8;stop-opacity:0.2776"
   id="stop345" />
	<stop
   offset="1"
   style="stop-color:#FFF8DC;stop-opacity:0"
   id="stop347" />
</linearGradient>
<path
   class="st46"
   d="m 1851.1587,623.97123 c 25.2,12.48 55.76,2.17 68.24,-23.03 12.48,-25.2 2.17,-55.76 -23.03,-68.24 -25.2,-12.48 -55.76,-2.17 -68.24,23.03 -12.49,25.21 -2.18,55.76 23.03,68.24 z m -2.39,-78.12 c 17.94,-13.8 43.68,-10.45 57.48,7.5 13.8,17.94 10.45,43.68 -7.5,57.48 -17.94,13.8 -43.68,10.45 -57.48,-7.5 -13.8,-17.95 -10.44,-43.68 7.5,-57.48 z"
   id="path350"
   inkscape:connector-curvature="0"
   style="fill:url(#SVGID_8_)" />
<linearGradient
   id="SVGID_9_"
   gradientUnits="userSpaceOnUse"
   x1="2646.145"
   y1="-79.942001"
   x2="2710.2964"
   y2="-79.942001"
   gradientTransform="matrix(0.6643,-0.7475,0.7475,0.6643,-327.93254,3397.9676)">
	<stop
   offset="0"
   style="stop-color:#FCE0A2"
   id="stop352" />
	<stop
   offset="0.2287"
   style="stop-color:#FDEABB;stop-opacity:0.7713"
   id="stop354" />
	<stop
   offset="0.4702"
   style="stop-color:#FEF2CD;stop-opacity:0.5298"
   id="stop356" />
	<stop
   offset="0.7224"
   style="stop-color:#FFF7D8;stop-opacity:0.2776"
   id="stop358" />
	<stop
   offset="1"
   style="stop-color:#FFF8DC;stop-opacity:0"
   id="stop360" />
</linearGradient>
<path
   class="st47"
   d="m 1400.0487,1312.0812 c -17.06,-4.75 -34.74,5.24 -39.49,22.3 -4.75,17.06 5.24,34.74 22.3,39.49 17.06,4.75 34.74,-5.24 39.49,-22.3 4.74,-17.06 -5.24,-34.74 -22.3,-39.49 z m 10.69,48.04 c -9.47,10.65 -25.78,11.62 -36.44,2.15 -10.65,-9.47 -11.62,-25.78 -2.15,-36.44 9.47,-10.65 25.78,-11.62 36.44,-2.15 10.66,9.47 11.62,25.79 2.15,36.44 z"
   id="path363"
   inkscape:connector-curvature="0"
   style="fill:url(#SVGID_9_)" />
<linearGradient
   id="SVGID_10_"
   gradientUnits="userSpaceOnUse"
   x1="2131.6628"
   y1="280.3588"
   x2="2216.4766"
   y2="280.3588"
   gradientTransform="translate(-642.40134,15.661227)">
	<stop
   offset="0"
   style="stop-color:#FCE0A2"
   id="stop365" />
	<stop
   offset="0.2287"
   style="stop-color:#FDEABB;stop-opacity:0.7713"
   id="stop367" />
	<stop
   offset="0.4702"
   style="stop-color:#FEF2CD;stop-opacity:0.5298"
   id="stop369" />
	<stop
   offset="0.7224"
   style="stop-color:#FFF7D8;stop-opacity:0.2776"
   id="stop371" />
	<stop
   offset="1"
   style="stop-color:#FFF8DC;stop-opacity:0"
   id="stop373" />
</linearGradient>
<path
   class="st48"
   d="m 1569.7487,277.38123 c -10.29,-21.03 -35.69,-29.74 -56.72,-19.44 -21.03,10.29 -29.74,35.69 -19.44,56.72 10.29,21.03 35.69,29.74 56.72,19.44 21.03,-10.29 29.73,-35.69 19.44,-56.72 z m -38.08,52.76 c -18.85,0 -34.12,-15.28 -34.12,-34.12 0,-18.85 15.28,-34.12 34.12,-34.12 18.84,0 34.12,15.28 34.12,34.12 0,18.84 -15.28,34.12 -34.12,34.12 z"
   id="path376"
   inkscape:connector-curvature="0"
   style="fill:url(#SVGID_10_)" />
<linearGradient
   id="SVGID_11_"
   gradientUnits="userSpaceOnUse"
   x1="1766.2786"
   y1="253.27431"
   x2="1827.7935"
   y2="253.27431"
   gradientTransform="matrix(-0.1091,0.994,-0.994,-0.1091,1581.0028,-1539.0823)">
	<stop
   offset="0"
   style="stop-color:#FCE0A2"
   id="stop378" />
	<stop
   offset="0.2287"
   style="stop-color:#FDEABB;stop-opacity:0.7713"
   id="stop380" />
	<stop
   offset="0.4702"
   style="stop-color:#FEF2CD;stop-opacity:0.5298"
   id="stop382" />
	<stop
   offset="0.7224"
   style="stop-color:#FFF7D8;stop-opacity:0.2776"
   id="stop384" />
	<stop
   offset="1"
   style="stop-color:#FFF8DC;stop-opacity:0"
   id="stop386" />
</linearGradient>
<path
   class="st49"
   d="m 1143.6387,248.53123 c 15.98,-5.76 24.26,-23.38 18.5,-39.35 -5.76,-15.97 -23.38,-24.26 -39.35,-18.5 -15.98,5.76 -24.26,23.38 -18.5,39.35 5.75,15.97 23.37,24.26 39.35,18.5 z m -35.03,-31.63 c 1.49,-13.59 13.71,-23.39 27.3,-21.9 13.59,1.49 23.39,13.71 21.9,27.3 -1.49,13.59 -13.71,23.39 -27.3,21.9 -13.58,-1.49 -23.39,-13.71 -21.9,-27.3 z"
   id="path389"
   inkscape:connector-curvature="0"
   style="fill:url(#SVGID_11_)" />
<linearGradient
   id="SVGID_12_"
   gradientUnits="userSpaceOnUse"
   x1="1477.6696"
   y1="649.5708"
   x2="1541.3483"
   y2="649.5708"
   gradientTransform="matrix(-0.7538,-0.6571,0.6571,-0.7538,1858.9251,2110.3067)">
	<stop
   offset="0"
   style="stop-color:#FCE0A2"
   id="stop391" />
	<stop
   offset="0.2287"
   style="stop-color:#FDEABB;stop-opacity:0.7713"
   id="stop393" />
	<stop
   offset="0.4702"
   style="stop-color:#FEF2CD;stop-opacity:0.5298"
   id="stop395" />
	<stop
   offset="0.7224"
   style="stop-color:#FFF7D8;stop-opacity:0.2776"
   id="stop397" />
	<stop
   offset="1"
   style="stop-color:#FFF8DC;stop-opacity:0"
   id="stop399" />
</linearGradient>
<path
   class="st50"
   d="m 1117.0387,620.57123 c -4.55,16.98 5.53,34.44 22.51,38.98 16.98,4.55 34.44,-5.53 38.98,-22.51 4.55,-16.98 -5.53,-34.44 -22.51,-38.98 -16.98,-4.55 -34.43,5.53 -38.98,22.51 z m 47.58,-11.08 c 10.67,9.3 11.78,25.48 2.48,36.15 -9.3,10.67 -25.48,11.78 -36.15,2.48 -10.67,-9.3 -11.78,-25.48 -2.48,-36.15 9.3,-10.66 25.48,-11.77 36.15,-2.48 z"
   id="path402"
   inkscape:connector-curvature="0"
   style="fill:url(#SVGID_12_)" />
<linearGradient
   id="SVGID_13_"
   gradientUnits="userSpaceOnUse"
   x1="2212.5803"
   y1="377.3652"
   x2="2306.5388"
   y2="377.3652"
   gradientTransform="matrix(0.9471,0.3208,-0.3208,0.9471,-1668.3676,-417.10927)">
	<stop
   offset="0"
   style="stop-color:#FCE0A2"
   id="stop404" />
	<stop
   offset="0.2287"
   style="stop-color:#FDEABB;stop-opacity:0.7713"
   id="stop406" />
	<stop
   offset="0.4702"
   style="stop-color:#FEF2CD;stop-opacity:0.5298"
   id="stop408" />
	<stop
   offset="0.7224"
   style="stop-color:#FFF7D8;stop-opacity:0.2776"
   id="stop410" />
	<stop
   offset="1"
   style="stop-color:#FFF8DC;stop-opacity:0"
   id="stop412" />
</linearGradient>
<path
   class="st51"
   d="m 397.26866,659.19123 c -3.33,-25.73 -26.88,-43.88 -52.6,-40.56 -25.73,3.33 -43.88,26.88 -40.56,52.6 3.33,25.73 26.88,43.88 52.6,40.56 25.73,-3.32 43.89,-26.88 40.56,-52.6 z m -58.71,41.82 c -19.77,-6.7 -30.37,-28.16 -23.68,-47.93 6.7,-19.77 28.16,-30.37 47.93,-23.68 19.77,6.69 30.37,28.16 23.68,47.93 -6.69,19.78 -28.15,30.38 -47.93,23.68 z"
   id="path415"
   inkscape:connector-curvature="0"
   style="fill:url(#SVGID_13_)" />
<linearGradient
   id="SVGID_14_"
   gradientUnits="userSpaceOnUse"
   x1="2517.5703"
   y1="779.73499"
   x2="2611.5288"
   y2="779.73499"
   gradientTransform="matrix(0.2261,-0.9741,0.9741,0.2261,-980.52674,3492.2708)">
	<stop
   offset="0"
   style="stop-color:#FCE0A2"
   id="stop417" />
	<stop
   offset="0.2287"
   style="stop-color:#FDEABB;stop-opacity:0.7713"
   id="stop419" />
	<stop
   offset="0.4702"
   style="stop-color:#FEF2CD;stop-opacity:0.5298"
   id="stop421" />
	<stop
   offset="0.7224"
   style="stop-color:#FFF7D8;stop-opacity:0.2776"
   id="stop423" />
	<stop
   offset="1"
   style="stop-color:#FFF8DC;stop-opacity:0"
   id="stop425" />
</linearGradient>
<path
   class="st52"
   d="m 348.36866,1124.7212 c -25.27,5.84 -41.03,31.06 -35.19,56.34 5.84,25.27 31.06,41.03 56.34,35.19 25.27,-5.84 41.03,-31.06 35.19,-56.34 -5.84,-25.28 -31.06,-41.03 -56.34,-35.19 z m 47.4,54.31 c -4.72,20.34 -25.03,32.99 -45.37,28.27 -20.34,-4.72 -32.99,-25.03 -28.27,-45.37 4.72,-20.34 25.03,-32.99 45.37,-28.27 20.33,4.72 32.99,25.03 28.27,45.37 z"
   id="path428"
   inkscape:connector-curvature="0"
   style="fill:url(#SVGID_14_)" />
<linearGradient
   id="SVGID_15_"
   gradientUnits="userSpaceOnUse"
   x1="2282.2256"
   y1="852.95569"
   x2="2352.7886"
   y2="852.95569"
   gradientTransform="matrix(0.8795,0.4759,-0.4759,0.8795,-1290.7478,-398.90587)">
	<stop
   offset="0"
   style="stop-color:#FCE0A2"
   id="stop430" />
	<stop
   offset="0.2287"
   style="stop-color:#FDEABB;stop-opacity:0.7713"
   id="stop432" />
	<stop
   offset="0.4702"
   style="stop-color:#FEF2CD;stop-opacity:0.5298"
   id="stop434" />
	<stop
   offset="0.7224"
   style="stop-color:#FFF7D8;stop-opacity:0.2776"
   id="stop436" />
	<stop
   offset="1"
   style="stop-color:#FFF8DC;stop-opacity:0"
   id="stop438" />
</linearGradient>
<path
   class="st53"
   d="m 376.91866,1455.5212 c 0.79,-19.46 -14.34,-35.89 -33.81,-36.68 -19.46,-0.79 -35.89,14.34 -36.68,33.81 -0.79,19.46 14.34,35.89 33.81,36.68 19.46,0.79 35.89,-14.34 36.68,-33.81 z m -48.75,23.53 c -13.79,-7.46 -18.92,-24.69 -11.46,-38.48 7.46,-13.79 24.69,-18.92 38.48,-11.46 13.79,7.46 18.92,24.69 11.46,38.48 -7.46,13.79 -24.69,18.92 -38.48,11.46 z"
   id="path441"
   inkscape:connector-curvature="0"
   style="fill:url(#SVGID_15_)" />
<linearGradient
   id="SVGID_16_"
   gradientUnits="userSpaceOnUse"
   x1="2862.0791"
   y1="437.9191"
   x2="2922.7271"
   y2="437.9191"
   gradientTransform="matrix(-0.6017,-0.7987,0.7987,-0.6017,3065.4962,3435.3279)">
	<stop
   offset="0"
   style="stop-color:#FCE0A2"
   id="stop443" />
	<stop
   offset="0.2287"
   style="stop-color:#FDEABB;stop-opacity:0.7713"
   id="stop445" />
	<stop
   offset="0.4702"
   style="stop-color:#FEF2CD;stop-opacity:0.5298"
   id="stop447" />
	<stop
   offset="0.7224"
   style="stop-color:#FFF7D8;stop-opacity:0.2776"
   id="stop449" />
	<stop
   offset="1"
   style="stop-color:#FFF8DC;stop-opacity:0"
   id="stop451" />
</linearGradient>
<path
   class="st54"
   d="m 1647.7787,847.93123 c -7.58,14.93 -1.63,33.18 13.3,40.76 14.93,7.58 33.18,1.63 40.76,-13.3 7.58,-14.93 1.63,-33.18 -13.3,-40.76 -14.93,-7.58 -33.17,-1.63 -40.76,13.3 z m 46.52,-0.95 c 8.11,10.76 5.96,26.06 -4.81,34.17 -10.76,8.11 -26.06,5.96 -34.17,-4.81 -8.11,-10.77 -5.96,-26.06 4.81,-34.17 10.77,-8.11 26.06,-5.96 34.17,4.81 z"
   id="path454"
   inkscape:connector-curvature="0"
   style="fill:url(#SVGID_16_)" />
<linearGradient
   id="SVGID_17_"
   gradientUnits="userSpaceOnUse"
   x1="3095.845"
   y1="153.44099"
   x2="3159.9963"
   y2="153.44099"
   gradientTransform="matrix(0.3978,0.9175,-0.9175,0.3978,726.37456,-1729.0751)">
	<stop
   offset="0"
   style="stop-color:#FCE0A2"
   id="stop456" />
	<stop
   offset="0.2287"
   style="stop-color:#FDEABB;stop-opacity:0.7713"
   id="stop458" />
	<stop
   offset="0.4702"
   style="stop-color:#FEF2CD;stop-opacity:0.5298"
   id="stop460" />
	<stop
   offset="0.7224"
   style="stop-color:#FFF7D8;stop-opacity:0.2776"
   id="stop462" />
	<stop
   offset="1"
   style="stop-color:#FFF8DC;stop-opacity:0"
   id="stop464" />
</linearGradient>
<path
   class="st55"
   d="m 1854.3487,1222.5312 c 11.5,-13.47 9.9,-33.71 -3.58,-45.21 -13.47,-11.5 -33.71,-9.9 -45.21,3.58 -11.5,13.47 -9.9,33.71 3.58,45.21 13.47,11.5 33.71,9.9 45.21,-3.58 z m -48.07,-10.55 c -5.67,-13.08 0.33,-28.28 13.41,-33.95 13.08,-5.67 28.28,0.33 33.95,13.41 5.67,13.08 -0.33,28.28 -13.41,33.95 -13.09,5.68 -28.28,-0.33 -33.95,-13.41 z"
   id="path467"
   inkscape:connector-curvature="0"
   style="fill:url(#SVGID_17_)" />
<path
   class="st56"
   d="m 1026.0087,605.86123 c -1.22,-3.73 -3.16,-4.79 -11.42,-7.87 l -42.73004,-11.97 c 0.14,4.1 0.11,8.17 -0.09,12.17 l 36.76004,6.29 c 0,0 17.06,2 23.15,14.72 z"
   id="path469"
   inkscape:connector-curvature="0"
   style="fill:#6db5af" />
<path
   class="st9"
   d="m 1008.5187,604.49123 c 0,0 23.12,2.62 24.64,20.86 1.81,21.71 -19.45,25.92 -19.45,25.92"
   id="path471"
   inkscape:connector-curvature="0"
   style="fill:#fda96b" />
<circle
   class="st5"
   cx="697.55859"
   cy="336.71121"
   r="44.759998"
   id="circle473"
   style="fill:#b3f4db" />
<circle
   class="st5"
   cx="317.42868"
   cy="965.19128"
   r="41.560001"
   id="circle475"
   style="fill:#b3f4db" />
<circle
   class="st5"
   cx="1694.5986"
   cy="455.99121"
   r="43.41"
   id="circle477"
   style="fill:#b3f4db" />
<circle
   class="st5"
   cx="826.9386"
   cy="1422.5012"
   r="32.360001"
   id="circle479"
   style="fill:#b3f4db" />
<circle
   class="st5"
   cx="1167.5187"
   cy="361.66122"
   r="39.830002"
   id="circle481"
   style="fill:#b3f4db" />
<path
   class="st6"
   d="m 713.94866,309.20123 c 0,0 -35.15,-0.44 -33.13,18.09 1.24,11.36 40.21,9.34 40.12,24.66 -0.11,18.88 -39.87,11.3 -39.87,11.3"
   id="path483"
   inkscape:connector-curvature="0"
   style="fill:none;stroke:#449978;stroke-width:6.02839994;stroke-linecap:round;stroke-linejoin:round;stroke-miterlimit:10" />
<line
   class="st6"
   x1="694.60864"
   y1="295.43121"
   x2="703.40869"
   y2="379.30124"
   id="line485"
   style="fill:none;stroke:#449978;stroke-width:6.02839994;stroke-linecap:round;stroke-linejoin:round;stroke-miterlimit:10" />
<path
   class="st6"
   d="m 1726.2787,454.87123 c 0,0 -20.85,-28.98 -35.78,-18.54 -9.15,6.4 16.16,37.34 2.75,44.53 -16.52,8.86 -33.94,-27.27 -33.94,-27.27"
   id="path487"
   inkscape:connector-curvature="0"
   style="fill:none;stroke:#449978;stroke-width:6.02839994;stroke-linecap:round;stroke-linejoin:round;stroke-miterlimit:10" />
<line
   class="st6"
   x1="1726.5886"
   y1="432.51123"
   x2="1658.7886"
   y2="479.47122"
   id="line489"
   style="fill:none;stroke:#449978;stroke-width:6.02839994;stroke-linecap:round;stroke-linejoin:round;stroke-miterlimit:10" />
<path
   class="st6"
   d="m 1147.1287,344.12123 c 0,0 -8.51,35.5 7.92,37.99 10.07,1.52 17.34,-38.46 30.51,-34.61 16.23,4.73 0.51,43.15 0.51,43.15"
   id="path491"
   inkscape:connector-curvature="0"
   style="fill:none;stroke:#449978;stroke-width:6.02839994;stroke-linecap:round;stroke-linejoin:round;stroke-miterlimit:10" />
<line
   class="st6"
   x1="1130.7986"
   y1="360.36124"
   x2="1205.0486"
   y2="371.96121"
   id="line493"
   style="fill:none;stroke:#449978;stroke-width:6.02839994;stroke-linecap:round;stroke-linejoin:round;stroke-miterlimit:10" />
<path
   class="st6"
   d="m 329.90866,939.05123 c 0,0 -34.26,2.82 -30.99,18.91 2.01,9.87 39.82,4.53 40.8,18 1.22,16.59 -38.03,13.56 -38.03,13.56"
   id="path495"
   inkscape:connector-curvature="0"
   style="fill:none;stroke:#449978;stroke-width:6.02839994;stroke-linecap:round;stroke-linejoin:round;stroke-miterlimit:10" />
<line
   class="st6"
   x1="310.09866"
   y1="928.72125"
   x2="324.55869"
   y2="1001.6013"
   id="line497"
   style="fill:none;stroke:#449978;stroke-width:6.02839994;stroke-linecap:round;stroke-linejoin:round;stroke-miterlimit:10" />
<path
   class="st6"
   d="m 839.84866,1400.1612 c 0,0 -32.89,5.61 -25.42,18.15 4.58,7.69 40.29,-0.28 44.82,10.39 5.58,13.14 -33.75,14.56 -33.75,14.56"
   id="path499"
   inkscape:connector-curvature="0"
   style="fill:none;stroke:#449978;stroke-width:6.02839994;stroke-linecap:round;stroke-linejoin:round;stroke-miterlimit:10" />
<line
   class="st6"
   x1="817.67859"
   y1="1393.8512"
   x2="851.14868"
   y2="1450.6713"
   id="line501"
   style="fill:none;stroke:#449978;stroke-width:6.02839994;stroke-linecap:round;stroke-linejoin:round;stroke-miterlimit:10" />
<path
   class="st3"
   d="m 906.31866,941.52123 41.09,38.84 8.13,37.98997 -0.69,136.44 c 0,0 19.25,20.23 29.54,26.07 5.72,-14.6 20.20004,-42.74 32.66004,-59.38 0.69,-18.78 -10.2,-55.87 -29.00004,-103.13 2.99,-22.17997 6.69,-47.65997 6.69,-47.65997 l 37.14004,-47.45 c 0,0 -15.52,-6.46 -40.16004,0.68 0,0 -5.32,3.11 -15.19,21.44 -6.41,11.9 -12.17,29 -12.17,29 0,0 -8.5,-29.33 -28.66,-41.13 -6.36,-0.06 -14.74,-1.56 -29.38,8.29 z"
   id="path503"
   inkscape:connector-curvature="0"
   style="fill:#24eca5" />
<line
   class="st57"
   x1="620.75867"
   y1="438.90121"
   x2="635.91858"
   y2="494.08124"
   id="line505"
   style="fill:none;stroke:#fff4dc;stroke-width:6.02839994;stroke-linecap:round;stroke-linejoin:round;stroke-miterlimit:10" />
<line
   class="st57"
   x1="629.83862"
   y1="426.61124"
   x2="649.99866"
   y2="500.01123"
   id="line507"
   style="fill:none;stroke:#fff4dc;stroke-width:6.02839994;stroke-linecap:round;stroke-linejoin:round;stroke-miterlimit:10" />
<path
   class="st57"
   d="m 620.75866,438.90123 15.09,-4.15 c 6.67,-1.83 13.57,2.09 15.41,8.77 v 0 c 1.83,6.67 -2.09,13.57 -8.77,15.41 l -2.29,0.63"
   id="path509"
   inkscape:connector-curvature="0"
   style="fill:none;stroke:#fff4dc;stroke-width:6.02839994;stroke-linecap:round;stroke-linejoin:round;stroke-miterlimit:10" />
<path
   class="st57"
   d="m 640.19866,459.56123 5.71,-1.57 c 8.56,-2.35 17.41,2.68 19.76,11.25 v 0 c 2.35,8.56 -2.68,17.41 -11.25,19.76 l -18.51,5.09"
   id="path511"
   inkscape:connector-curvature="0"
   style="fill:none;stroke:#fff4dc;stroke-width:6.02839994;stroke-linecap:round;stroke-linejoin:round;stroke-miterlimit:10" />
<line
   class="st57"
   x1="320.37869"
   y1="655.40125"
   x2="363.43869"
   y2="693.10126"
   id="line513"
   style="fill:none;stroke:#fff4dc;stroke-width:6.02839994;stroke-linecap:round;stroke-linejoin:round;stroke-miterlimit:10" />
<line
   class="st57"
   x1="321.18869"
   y1="640.14124"
   x2="378.44864"
   y2="690.28125"
   id="line515"
   style="fill:none;stroke:#fff4dc;stroke-width:6.02839994;stroke-linecap:round;stroke-linejoin:round;stroke-miterlimit:10" />
<path
   class="st57"
   d="m 320.37866,655.40123 10.31,-11.78 c 4.56,-5.21 12.48,-5.73 17.69,-1.17 v 0 c 5.21,4.56 5.73,12.48 1.17,17.69 l -1.56,1.79"
   id="path517"
   inkscape:connector-curvature="0"
   style="fill:none;stroke:#fff4dc;stroke-width:6.02839994;stroke-linecap:round;stroke-linejoin:round;stroke-miterlimit:10" />
<path
   class="st57"
   d="m 347.98866,661.92123 3.9,-4.45 c 5.85,-6.68 16.01,-7.36 22.69,-1.51 v 0 c 6.68,5.85 7.36,16.01 1.51,22.69 l -12.65,14.44"
   id="path519"
   inkscape:connector-curvature="0"
   style="fill:none;stroke:#fff4dc;stroke-width:6.02839994;stroke-linecap:round;stroke-linejoin:round;stroke-miterlimit:10" />
<line
   class="st58"
   x1="1112.9286"
   y1="214.90123"
   x2="1142.3486"
   y2="238.12123"
   id="line521"
   style="fill:none;stroke:#fff4dc;stroke-width:4;stroke-linecap:round;stroke-linejoin:round;stroke-miterlimit:10" />
<line
   class="st58"
   x1="1112.9386"
   y1="204.89122"
   x2="1152.0786"
   y2="235.77122"
   id="line523"
   style="fill:none;stroke:#fff4dc;stroke-width:4;stroke-linecap:round;stroke-linejoin:round;stroke-miterlimit:10" />
<path
   class="st58"
   d="m 1112.9287,214.90123 6.35,-8.05 c 2.81,-3.56 7.97,-4.17 11.53,-1.36 v 0 c 3.56,2.81 4.17,7.97 1.36,11.53 l -0.96,1.22"
   id="path525"
   inkscape:connector-curvature="0"
   style="fill:none;stroke:#fff4dc;stroke-width:4;stroke-linecap:round;stroke-linejoin:round;stroke-miterlimit:10" />
<path
   class="st58"
   d="m 1131.1987,218.24123 2.4,-3.04 c 3.6,-4.57 10.22,-5.35 14.79,-1.74 v 0 c 4.57,3.6 5.35,10.23 1.74,14.79 l -7.79,9.87"
   id="path527"
   inkscape:connector-curvature="0"
   style="fill:none;stroke:#fff4dc;stroke-width:4;stroke-linecap:round;stroke-linejoin:round;stroke-miterlimit:10" />
<line
   class="st57"
   x1="1510.8687"
   y1="277.12122"
   x2="1533.8386"
   y2="324.04123"
   id="line529"
   style="fill:none;stroke:#fff4dc;stroke-width:6.02839994;stroke-linecap:round;stroke-linejoin:round;stroke-miterlimit:10" />
<line
   class="st57"
   x1="1516.9287"
   y1="264.56122"
   x2="1547.4688"
   y2="326.96121"
   id="line531"
   style="fill:none;stroke:#fff4dc;stroke-width:6.02839994;stroke-linecap:round;stroke-linejoin:round;stroke-miterlimit:10" />
<path
   class="st57"
   d="m 1510.8687,277.12123 12.83,-6.28 c 5.67,-2.78 12.53,-0.43 15.3,5.25 v 0 c 2.78,5.67 0.43,12.53 -5.25,15.3 l -1.95,0.95"
   id="path533"
   inkscape:connector-curvature="0"
   style="fill:none;stroke:#fff4dc;stroke-width:6.02839994;stroke-linecap:round;stroke-linejoin:round;stroke-miterlimit:10" />
<path
   class="st57"
   d="m 1531.8187,292.34123 4.85,-2.38 c 7.28,-3.56 16.07,-0.55 19.64,6.73 v 0 c 3.56,7.28 0.55,16.07 -6.73,19.64 l -15.74,7.7"
   id="path535"
   inkscape:connector-curvature="0"
   style="fill:none;stroke:#fff4dc;stroke-width:6.02839994;stroke-linecap:round;stroke-linejoin:round;stroke-miterlimit:10" />
<line
   class="st57"
   x1="1846.9587"
   y1="556.04126"
   x2="1874.4287"
   y2="612.15125"
   id="line537"
   style="fill:none;stroke:#fff4dc;stroke-width:6.02839994;stroke-linecap:round;stroke-linejoin:round;stroke-miterlimit:10" />
<line
   class="st57"
   x1="1854.2087"
   y1="541.02124"
   x2="1890.7385"
   y2="615.65125"
   id="line539"
   style="fill:none;stroke:#fff4dc;stroke-width:6.02839994;stroke-linecap:round;stroke-linejoin:round;stroke-miterlimit:10" />
<path
   class="st57"
   d="m 1846.9587,556.04123 15.35,-7.51 c 6.79,-3.32 14.98,-0.51 18.31,6.27 v 0 c 3.32,6.79 0.51,14.98 -6.27,18.31 l -2.33,1.14"
   id="path541"
   inkscape:connector-curvature="0"
   style="fill:none;stroke:#fff4dc;stroke-width:6.02839994;stroke-linecap:round;stroke-linejoin:round;stroke-miterlimit:10" />
<path
   class="st57"
   d="m 1872.0187,574.25123 5.81,-2.84 c 8.71,-4.26 19.22,-0.66 23.49,8.05 v 0 c 4.26,8.71 0.66,19.22 -8.05,23.49 l -18.83,9.21"
   id="path543"
   inkscape:connector-curvature="0"
   style="fill:none;stroke:#fff4dc;stroke-width:6.02839994;stroke-linecap:round;stroke-linejoin:round;stroke-miterlimit:10" />
<line
   class="st59"
   x1="1683.4187"
   y1="841.58124"
   x2="1654.1687"
   y2="865.02124"
   id="line545"
   style="fill:none;stroke:#fff4dc;stroke-width:5;stroke-linecap:round;stroke-linejoin:round;stroke-miterlimit:10" />
<line
   class="st59"
   x1="1693.1587"
   y1="843.86127"
   x2="1654.2585"
   y2="875.02124"
   id="line547"
   style="fill:none;stroke:#fff4dc;stroke-width:5;stroke-linecap:round;stroke-linejoin:round;stroke-miterlimit:10" />
<path
   class="st59"
   d="m 1683.4187,841.58123 6.41,8 c 2.83,3.54 2.26,8.7 -1.27,11.54 v 0 c -3.54,2.83 -8.7,2.26 -11.54,-1.27 l -0.97,-1.21"
   id="path549"
   inkscape:connector-curvature="0"
   style="fill:none;stroke:#fff4dc;stroke-width:5;stroke-linecap:round;stroke-linejoin:round;stroke-miterlimit:10" />
<path
   class="st59"
   d="m 1676.0387,858.64123 2.42,3.03 c 3.64,4.54 2.91,11.17 -1.63,14.8 v 0 c -4.54,3.64 -11.17,2.91 -14.8,-1.63 l -7.86,-9.81"
   id="path551"
   inkscape:connector-curvature="0"
   style="fill:none;stroke:#fff4dc;stroke-width:5;stroke-linecap:round;stroke-linejoin:round;stroke-miterlimit:10" />
<line
   class="st58"
   x1="1154.0187"
   y1="609.58124"
   x2="1128.5386"
   y2="636.17126"
   id="line553"
   style="fill:none;stroke:#fff4dc;stroke-width:4;stroke-linecap:round;stroke-linejoin:round;stroke-miterlimit:10" />
<line
   class="st58"
   x1="1163.8086"
   y1="610.54126"
   x2="1129.9186"
   y2="645.90125"
   id="line555"
   style="fill:none;stroke:#fff4dc;stroke-width:4;stroke-linecap:round;stroke-linejoin:round;stroke-miterlimit:10" />
<path
   class="st58"
   d="m 1154.0187,609.58123 7.27,6.97 c 3.22,3.08 3.33,8.19 0.24,11.4 v 0 c -3.08,3.22 -8.19,3.33 -11.4,0.24 l -1.1,-1.06"
   id="path557"
   inkscape:connector-curvature="0"
   style="fill:none;stroke:#fff4dc;stroke-width:4;stroke-linecap:round;stroke-linejoin:round;stroke-miterlimit:10" />
<path
   class="st58"
   d="m 1149.0287,627.14123 2.75,2.64 c 4.13,3.95 4.27,10.5 0.31,14.63 v 0 c -3.95,4.13 -10.5,4.27 -14.63,0.31 l -8.92,-8.55"
   id="path559"
   inkscape:connector-curvature="0"
   style="fill:none;stroke:#fff4dc;stroke-width:4;stroke-linecap:round;stroke-linejoin:round;stroke-miterlimit:10" />
<line
   class="st57"
   x1="327.08865"
   y1="1149.3712"
   x2="392.0087"
   y2="1189.8413"
   id="line561"
   style="fill:none;stroke:#fff4dc;stroke-width:6.02839994;stroke-linecap:round;stroke-linejoin:round;stroke-miterlimit:10" />
<path
   class="st57"
   d="m 327.02866,1166.0812 51.24,30.89 c 0,0 24.9,-32.37 11.45,-40.48 -12.7,-7.66 -30.48,13.6 -30.48,13.6 0,0 2.29,-19.33 -4.89,-23.66 -11.76,-7.1 -27.32,19.65 -27.32,19.65 z"
   id="path563"
   inkscape:connector-curvature="0"
   style="fill:none;stroke:#fff4dc;stroke-width:6.02839994;stroke-linecap:round;stroke-linejoin:round;stroke-miterlimit:10" />
<line
   class="st59"
   x1="332.02866"
   y1="1430.2113"
   x2="351.31863"
   y2="1474.3413"
   id="line565"
   style="fill:none;stroke:#fff4dc;stroke-width:5;stroke-linecap:round;stroke-linejoin:round;stroke-miterlimit:10" />
<path
   class="st59"
   d="m 326.04866,1438.8712 15.6,34.29 c 0,0 24.45,-7.94 20.36,-16.94 -3.87,-8.5 -20.67,-3.79 -20.67,-3.79 0,0 8.07,-9.22 5.89,-14.02 -3.58,-7.89 -21.18,0.46 -21.18,0.46 z"
   id="path567"
   inkscape:connector-curvature="0"
   style="fill:none;stroke:#fff4dc;stroke-width:5;stroke-linecap:round;stroke-linejoin:round;stroke-miterlimit:10" />
<line
   class="st59"
   x1="1410.4487"
   y1="1321.5713"
   x2="1375.7687"
   y2="1358.5913"
   id="line569"
   style="fill:none;stroke:#fff4dc;stroke-width:5;stroke-linecap:round;stroke-linejoin:round;stroke-miterlimit:10" />
<path
   class="st59"
   d="m 1399.5887,1319.3812 -26.69,29.36 c 0,0 17.85,20.36 24.85,12.66 6.62,-7.28 -4.92,-21.58 -4.92,-21.58 0,0 12.28,3.98 16.02,-0.13 6.13,-6.75 -9.26,-20.31 -9.26,-20.31 z"
   id="path571"
   inkscape:connector-curvature="0"
   style="fill:none;stroke:#fff4dc;stroke-width:5;stroke-linecap:round;stroke-linejoin:round;stroke-miterlimit:10" />
<line
   class="st59"
   x1="1819.6487"
   y1="1181.8313"
   x2="1842.1086"
   y2="1221.6012"
   id="line573"
   style="fill:none;stroke:#fff4dc;stroke-width:5;stroke-linecap:round;stroke-linejoin:round;stroke-miterlimit:10" />
<path
   class="st59"
   d="m 1814.8487,1190.5712 18.02,30.84 c 0,0 22.3,-9.85 17.57,-17.94 -4.47,-7.65 -19.86,-1.59 -19.86,-1.59 0,0 6.73,-9.48 4.2,-13.8 -4.14,-7.08 -19.93,2.49 -19.93,2.49 z"
   id="path575"
   inkscape:connector-curvature="0"
   style="fill:none;stroke:#fff4dc;stroke-width:5;stroke-linecap:round;stroke-linejoin:round;stroke-miterlimit:10" />
<path
   class="st4"
   d="m 1031.8587,923.24123 c 0,0 -15.52,-6.46 -40.16004,0.68 0,0 -5.31,3.11 -15.19,21.44 -6.41,11.9 -12.17,29 -12.17,29 0,0 -8.5,-29.33 -28.66,-41.13 -6.34,-0.06 -14.72,-1.57 -29.36,8.28 l 41.09,38.84 47.32,-9.67 z"
   id="path577"
   inkscape:connector-curvature="0"
   style="fill:#21d892" />
<path
   class="st4"
   d="m 984.37866,1180.8612 c 5.72,-14.6 20.20004,-42.74 32.66004,-59.38 0.69,-18.78 -10.2,-55.87 -29.00004,-103.14 h -32.5 l -0.69,136.44 c -0.01,0 19.24,20.24 29.53,26.08 z"
   id="path579"
   inkscape:connector-curvature="0"
   style="fill:#21d892" />
<ellipse
   class="st13"
   cx="1008.6686"
   cy="1228.7612"
   rx="12.35"
   ry="12.95"
   id="ellipse581"
   style="fill:#241638" />
<ellipse
   class="st13"
   cx="1033.5786"
   cy="1342.9812"
   rx="12.35"
   ry="12.95"
   id="ellipse583"
   style="fill:#241638" />
<path
   class="st3"
   d="m 1491.3787,1313.3112 c 0,0 9.52,-125.47 119.87,-181.42 0,0 47.19,17.98 98.3,34.7 0,0 -100.04,49.63 -105.88,141.26 0,0 -51.33,-28.23 -112.29,5.46 z"
   id="path585"
   inkscape:connector-curvature="0"
   style="fill:#24eca5" />
<path
   class="st4"
   d="m 1603.6687,1307.8512 c 5.84,-91.63 105.88,-141.26 105.88,-141.26 -8.47,-2.77 -16.83,-5.58 -24.89,-8.33 -31.97,22.43 -84.57,69.84 -94.95,144.01 8.87,2.79 13.96,5.58 13.96,5.58 z"
   id="path587"
   inkscape:connector-curvature="0"
   style="fill:#21d892" />
<circle
   class="st5"
   cx="1583.1487"
   cy="1215.7512"
   r="32.990002"
   id="circle589"
   style="fill:#b3f4db" />
<path
   class="st6"
   d="m 1572.9587,1184.2212 c 0,0 -17.37,38.63 -4.9,44.92 7.65,3.86 25.34,-40.13 34.8,-32.98 11.64,8.81 -12.38,49.24 -12.38,49.24"
   id="path591"
   inkscape:connector-curvature="0"
   style="fill:none;stroke:#449978;stroke-width:6.02839994;stroke-linecap:round;stroke-linejoin:round;stroke-miterlimit:10" />
<line
   class="st6"
   x1="1555.0186"
   y1="1199.2612"
   x2="1611.2786"
   y2="1228.1212"
   id="line593"
   style="fill:none;stroke:#449978;stroke-width:6.02839994;stroke-linecap:round;stroke-linejoin:round;stroke-miterlimit:10" />
</svg>