<?xml version="1.0" encoding="utf-8"?>
<!-- Generator: Adobe Illustrator 21.0.0, SVG Export Plug-In . SVG Version: 6.00 Build 0)  -->
<svg version="1.1" id="Layer_1" xmlns="http://www.w3.org/2000/svg" xmlns:xlink="http://www.w3.org/1999/xlink" x="0px" y="0px"
	 viewBox="0 0 129 19" style="enable-background:new 0 0 129 19;" xml:space="preserve">
<style type="text/css">
	.st0{fill:#24ECA6;}
	.st1{fill:#16C481;}
</style>
<g>
	<path class="st0" d="M41.5,4.6v10.1h-0.7V5.8L37,11.3l-3.8-5.5v8.8h-0.7v-10h0.8l3.7,5.5l3.7-5.5H41.5z"/>
	<path class="st0" d="M48.9,9.1h4.8v0.7h-4.8v4h5.5v0.7h-6.2V4.6h6.2v0.7h-5.5V9.1z"/>
	<path class="st0" d="M66.8,14.6l-2.7-4.2h-2.9v4.2h-0.9v-10h3.6c2.2,0,3.3,1.1,3.3,2.9c0,2.1-1.6,2.7-2.4,2.8l2.8,4.3
		C67.7,14.6,66.8,14.6,66.8,14.6z M61.2,5.3v4.4h2.7c2,0,2.6-1,2.6-2.2S66,5.3,63.9,5.3L61.2,5.3L61.2,5.3z"/>
	<path class="st0" d="M77.1,14.1c1,0,2-0.2,2.9-0.6v0.7c-0.9,0.3-2,0.6-3,0.6c-2.7,0-4.7-1.5-4.7-5.2s1.9-5.2,4.7-5.2
		c1.1,0,2.1,0.2,3,0.6v0.7c-0.9-0.3-1.9-0.6-2.9-0.6c-2.4,0-4,1.2-4,4.5S74.7,14.1,77.1,14.1z"/>
	<path class="st0" d="M93.5,14.6h-0.8c-0.4-1.1-0.8-2.2-1.2-3.2h-4.7l-1.2,3.2h-0.8c1.4-3.3,2.7-6.7,4.1-10.1h0.7L93.5,14.6z
		 M87.1,10.7h4.2l-2.1-5.2L87.1,10.7z"/>
	<path class="st0" d="M104.4,4.6v0.7h-3.7v9.3h-0.8V5.3h-3.7V4.6H104.4z"/>
	<path class="st0" d="M109.9,4.6v6.2c0,2.2,1.1,3.3,3.2,3.3s3.2-1.2,3.2-3.3V4.6h0.7v6.1c0,2.7-1.4,4.1-4,4.1s-4-1.4-4-4.1V4.6
		H109.9z"/>
	<path class="st0" d="M129,12.1c0,1.6-1.2,2.7-3.5,2.7c-1.2,0-2.3-0.3-3.1-0.7v-0.8c0.7,0.4,1.7,0.7,3,0.7c1.6,0,2.8-0.6,2.8-1.9
		c0-3.2-5.7-1.5-5.7-4.9c0-1.4,0.9-2.7,3.3-2.7c1.1,0,2,0.2,2.7,0.6v0.8c-0.7-0.3-1.6-0.7-2.6-0.7c-1.7,0-2.6,0.7-2.6,2
		C123.2,9.7,129,8.2,129,12.1z"/>
</g>
<g>
	<polygon class="st1" points="11,10.7 0,4 0,0 11,6.7 	"/>
	<polygon class="st1" points="11,16.5 0,9.8 0,5.8 11,12.6 	"/>
	<polygon class="st1" points="5.5,19 0,15.7 0,11.7 5.5,15 	"/>
	<polygon class="st0" points="11,10.7 22.1,4 22.1,0 11,6.7 	"/>
	<polygon class="st0" points="11,16.5 22.1,9.8 22.1,5.8 11,12.6 	"/>
	<polygon class="st0" points="16.6,19 22.1,15.7 22.1,11.7 16.6,15 	"/>
</g>
</svg>
