<svg xmlns="http://www.w3.org/2000/svg" xmlns:xlink="http://www.w3.org/1999/xlink" height="39" viewBox="0 0 882.471 240.228" version="1.1">
    <defs>
        <clipPath id="clip1">
            <path d="M 758 37 L 882.472656 37 L 882.472656 182 L 758 182 Z M 758 37 " />
        </clipPath>
        <clipPath id="clip2">
            <path d="M 0 152 L 72 152 L 72 240.226563 L 0 240.226563 Z M 0 152 " />
        </clipPath>
        <clipPath id="clip3">
            <path d="M 215 152 L 288 152 L 288 240.226563 L 215 240.226563 Z M 215 152 " />
        </clipPath>
    </defs>
    <g id="surface1">
        <path style=" stroke:none;fill-rule:nonzero;fill:rgb(13.699341%,92.498779%,65.098572%);fill-opacity:1;" d="M 530.09375 37.472656 L 513.691406 37.472656 C 512.046875 37.472656 510.5 38.238281 509.503906 39.542969 L 465.574219 97.015625 C 464.519531 98.398438 462.4375 98.394531 461.382813 97.007813 L 417.761719 39.554688 C 416.765625 38.246094 415.210938 37.472656 413.566406 37.472656 L 397.171875 37.472656 C 395.71875 37.472656 394.539063 38.652344 394.539063 40.109375 L 394.539063 179.046875 C 394.539063 180.5 395.71875 181.679688 397.171875 181.679688 L 411.855469 181.679688 C 413.3125 181.679688 414.492188 180.5 414.492188 179.046875 L 414.492188 75.816406 C 414.492188 73.292969 417.699219 72.214844 419.222656 74.226563 L 459.289063 127.074219 C 461.394531 129.847656 465.5625 129.855469 467.675781 127.085938 L 508.046875 74.179688 C 509.574219 72.175781 512.773438 73.257813 512.773438 75.777344 L 512.773438 179.046875 C 512.773438 180.5 513.953125 181.679688 515.410156 181.679688 L 530.09375 181.679688 C 531.546875 181.679688 532.726563 180.5 532.726563 179.046875 L 532.726563 40.109375 C 532.726563 38.652344 531.546875 37.472656 530.09375 37.472656 " />
        <path style=" stroke:none;fill-rule:nonzero;fill:rgb(13.699341%,92.498779%,65.098572%);fill-opacity:1;" d="M 674.503906 158.140625 C 669.121094 161.871094 660.867188 163.734375 649.75 163.734375 L 619.777344 163.929688 C 618.316406 163.9375 617.125 162.753906 617.125 161.292969 L 617.125 119.074219 C 617.125 117.617188 618.304688 116.4375 619.761719 116.4375 L 648.269531 116.4375 C 659.316406 116.4375 667.800781 118.058594 673.710938 121.296875 C 679.625 124.535156 682.578125 130.625 682.578125 139.558594 C 682.578125 148.214844 679.886719 154.410156 674.503906 158.140625 M 617.125 57.84375 C 617.125 56.390625 618.304688 55.210938 619.761719 55.210938 L 644.785156 55.210938 C 654.429688 55.210938 661.730469 56.84375 666.691406 60.113281 C 671.652344 63.382813 674.136719 69.175781 674.136719 77.488281 C 674.136719 85.660156 671.792969 91.242188 667.113281 94.226563 C 662.433594 97.214844 655.625 98.707031 646.6875 98.707031 L 619.761719 98.707031 C 618.304688 98.707031 617.125 97.527344 617.125 96.070313 Z M 693.71875 117.101563 C 691.5 114.824219 688.929688 112.753906 686.011719 110.898438 C 683.089844 109.039063 681.066406 107.898438 679.941406 107.480469 L 677.195313 106.320313 L 678.882813 105.472656 C 680.082031 104.90625 681.539063 103.863281 683.265625 102.34375 C 684.988281 100.824219 686.679688 99.007813 688.332031 96.886719 C 689.988281 94.765625 691.394531 91.9375 692.554688 88.402344 C 693.71875 84.871094 694.296875 81.019531 694.296875 76.847656 C 694.296875 72.347656 693.71875 68.125 692.554688 64.179688 C 691.394531 60.242188 689.300781 56.105469 686.277344 51.78125 C 683.25 47.449219 678.375 43.984375 671.652344 41.378906 C 664.929688 38.777344 656.679688 37.472656 646.898438 37.472656 L 599.597656 37.472656 C 598.144531 37.472656 596.964844 38.652344 596.964844 40.109375 L 596.964844 179.046875 C 596.964844 180.503906 598.144531 181.683594 599.597656 181.683594 L 651.015625 181.683594 C 661.710938 181.683594 670.703125 180.34375 677.988281 177.671875 C 685.273438 174.996094 690.566406 171.386719 693.875 166.847656 C 697.183594 162.308594 699.488281 157.964844 700.789063 153.8125 C 702.089844 149.660156 702.742188 145.191406 702.742188 140.402344 C 702.742188 135.492188 701.792969 130.957031 699.894531 126.78125 C 697.992188 122.609375 695.933594 119.382813 693.71875 117.101563 " />
        <g clip-path="url(#clip1)" clip-rule="nonzero">
            <path style=" stroke:none;fill-rule:nonzero;fill:rgb(13.699341%,92.498779%,65.098572%);fill-opacity:1;" d="M 879.835938 37.472656 L 864.941406 37.472656 C 863.484375 37.472656 862.308594 38.652344 862.308594 40.109375 L 862.308594 152.230469 L 783.226563 39.714844 C 782.238281 38.308594 780.632813 37.472656 778.917969 37.472656 L 761.378906 37.472656 C 759.925781 37.472656 758.746094 38.652344 758.746094 40.109375 L 758.746094 179.046875 C 758.746094 180.5 759.925781 181.679688 761.378906 181.679688 L 776.273438 181.679688 C 777.726563 181.679688 778.90625 180.5 778.90625 179.046875 L 778.90625 74.507813 C 778.90625 71.9375 782.214844 70.886719 783.695313 72.992188 L 858.621094 179.445313 C 859.609375 180.847656 861.214844 181.679688 862.929688 181.679688 L 879.835938 181.679688 C 881.292969 181.679688 882.46875 180.5 882.46875 179.046875 L 882.46875 40.109375 C 882.46875 38.652344 881.292969 37.472656 879.835938 37.472656 " />
        </g>
        <path style=" stroke:none;fill-rule:nonzero;fill:rgb(13.699341%,92.498779%,65.098572%);fill-opacity:1;" d="M 279.953125 77.054688 L 161.808594 148.828125 L 149.449219 156.335938 C 147.765625 157.355469 145.871094 157.867188 143.976563 157.867188 L 143.976563 209.976563 C 145.871094 209.976563 147.765625 209.464844 149.449219 208.445313 L 172.523438 194.425781 L 172.519531 194.429688 L 282.890625 127.375 C 286.035156 125.464844 287.957031 122.050781 287.957031 118.371094 L 287.957031 81.558594 C 287.957031 77.449219 283.460938 74.921875 279.953125 77.054688 " />
        <path style=" stroke:none;fill-rule:nonzero;fill:rgb(8.599854%,76.899719%,50.59967%);fill-opacity:1;" d="M 138.507813 208.445313 C 140.1875 209.464844 142.082031 209.976563 143.976563 209.976563 L 143.976563 157.867188 C 142.082031 157.867188 140.1875 157.355469 138.507813 156.335938 L 126.148438 148.828125 L 126.144531 148.828125 L 8.003906 77.054688 C 4.496094 74.921875 0.00390625 77.449219 0.00390625 81.558594 L 0.00390625 118.371094 C 0.00390625 122.050781 1.921875 125.464844 5.066406 127.375 L 115.433594 194.429688 L 115.433594 194.425781 Z M 138.507813 208.445313 " />
        <g clip-path="url(#clip2)" clip-rule="nonzero">
            <path style="stroke:none;fill-rule:nonzero;fill:rgb(8.599854%,76.899719%,50.59967%);fill-opacity:1;" d="M 66.921875 189.128906 L 8.003906 153.335938 C 4.492188 151.203125 0 153.730469 0 157.839844 L 0 194.65625 C 0 198.335938 1.921875 201.75 5.066406 203.660156 L 63.984375 239.453125 C 67.496094 241.585938 71.988281 239.058594 71.988281 234.953125 L 71.988281 198.132813 C 71.988281 194.453125 70.070313 191.039063 66.921875 189.128906 " />
        </g>
        <g clip-path="url(#clip3)" clip-rule="nonzero">
            <path style="stroke:none;fill-rule:nonzero;fill:rgb(13.699341%,92.498779%,65.098572%);fill-opacity:1;" d="M 279.953125 153.335938 L 221.03125 189.128906 C 217.886719 191.039063 215.964844 194.453125 215.964844 198.132813 L 215.964844 234.953125 C 215.964844 239.058594 220.457031 241.585938 223.96875 239.453125 L 282.890625 203.660156 C 286.035156 201.75 287.953125 198.335938 287.953125 194.65625 L 287.953125 157.839844 C 287.953125 153.730469 283.460938 151.203125 279.953125 153.335938 " />
        </g>
        <path style=" stroke:none;fill-rule:nonzero;fill:rgb(13.699341%,92.498779%,65.098572%);fill-opacity:1;" d="M 149.449219 80.058594 C 147.765625 81.082031 145.871094 81.59375 143.976563 81.589844 L 143.976563 133.695313 C 145.867188 133.695313 147.761719 133.1875 149.441406 132.167969 L 282.890625 51.097656 C 286.035156 49.183594 287.953125 45.769531 287.953125 42.089844 L 287.953125 5.277344 C 287.953125 1.167969 283.460938 -1.359375 279.953125 0.773438 L 172.515625 66.042969 L 172.523438 66.042969 Z M 149.449219 80.058594 " />
        <path style=" stroke:none;fill-rule:nonzero;fill:rgb(8.599854%,76.899719%,50.59967%);fill-opacity:1;" d="M 138.507813 132.164063 C 140.1875 133.1875 142.082031 133.695313 143.976563 133.695313 L 143.976563 81.589844 C 142.082031 81.589844 140.1875 81.082031 138.507813 80.058594 L 115.433594 66.042969 L 115.4375 66.042969 L 8.003906 0.773438 C 4.492188 -1.359375 0 1.167969 0 5.277344 L 0 42.089844 C 0 45.769531 1.921875 49.183594 5.066406 51.097656 L 115.433594 118.148438 Z M 138.507813 132.164063 " />
    </g>
</svg>