<svg xmlns="http://www.w3.org/2000/svg" width="478" height="488" fill="none" viewBox="0 0 290 240.228">

        <path style=" stroke:none;fill-rule:nonzero;fill:rgb(13.699341%,92.498779%,65.098572%);fill-opacity:1;" d="M 279.953125 77.054688 L 161.808594 148.828125 L 149.449219 156.335938 C 147.765625 157.355469 145.871094 157.867188 143.976563 157.867188 L 143.976563 209.976563 C 145.871094 209.976563 147.765625 209.464844 149.449219 208.445313 L 172.523438 194.425781 L 172.519531 194.429688 L 282.890625 127.375 C 286.035156 125.464844 287.957031 122.050781 287.957031 118.371094 L 287.957031 81.558594 C 287.957031 77.449219 283.460938 74.921875 279.953125 77.054688 " />
        <path style=" stroke:none;fill-rule:nonzero;fill:rgb(8.599854%,76.899719%,50.59967%);fill-opacity:1;" d="M 138.507813 208.445313 C 140.1875 209.464844 142.082031 209.976563 143.976563 209.976563 L 143.976563 157.867188 C 142.082031 157.867188 140.1875 157.355469 138.507813 156.335938 L 126.148438 148.828125 L 126.144531 148.828125 L 8.003906 77.054688 C 4.496094 74.921875 0.00390625 77.449219 0.00390625 81.558594 L 0.00390625 118.371094 C 0.00390625 122.050781 1.921875 125.464844 5.066406 127.375 L 115.433594 194.429688 L 115.433594 194.425781 Z M 138.507813 208.445313 " />
        <g clip-path="url(#clip2)" clip-rule="nonzero">
            <path style="stroke:none;fill-rule:nonzero;fill:rgb(8.599854%,76.899719%,50.59967%);fill-opacity:1;" d="M 66.921875 189.128906 L 8.003906 153.335938 C 4.492188 151.203125 0 153.730469 0 157.839844 L 0 194.65625 C 0 198.335938 1.921875 201.75 5.066406 203.660156 L 63.984375 239.453125 C 67.496094 241.585938 71.988281 239.058594 71.988281 234.953125 L 71.988281 198.132813 C 71.988281 194.453125 70.070313 191.039063 66.921875 189.128906 " />
        </g>
        <g clip-path="url(#clip3)" clip-rule="nonzero">
            <path style="stroke:none;fill-rule:nonzero;fill:rgb(13.699341%,92.498779%,65.098572%);fill-opacity:1;" d="M 279.953125 153.335938 L 221.03125 189.128906 C 217.886719 191.039063 215.964844 194.453125 215.964844 198.132813 L 215.964844 234.953125 C 215.964844 239.058594 220.457031 241.585938 223.96875 239.453125 L 282.890625 203.660156 C 286.035156 201.75 287.953125 198.335938 287.953125 194.65625 L 287.953125 157.839844 C 287.953125 153.730469 283.460938 151.203125 279.953125 153.335938 " />
        </g>
        <path style=" stroke:none;fill-rule:nonzero;fill:rgb(13.699341%,92.498779%,65.098572%);fill-opacity:1;" d="M 149.449219 80.058594 C 147.765625 81.082031 145.871094 81.59375 143.976563 81.589844 L 143.976563 133.695313 C 145.867188 133.695313 147.761719 133.1875 149.441406 132.167969 L 282.890625 51.097656 C 286.035156 49.183594 287.953125 45.769531 287.953125 42.089844 L 287.953125 5.277344 C 287.953125 1.167969 283.460938 -1.359375 279.953125 0.773438 L 172.515625 66.042969 L 172.523438 66.042969 Z M 149.449219 80.058594 " />
        <path style=" stroke:none;fill-rule:nonzero;fill:rgb(8.599854%,76.899719%,50.59967%);fill-opacity:1;" d="M 138.507813 132.164063 C 140.1875 133.1875 142.082031 133.695313 143.976563 133.695313 L 143.976563 81.589844 C 142.082031 81.589844 140.1875 81.082031 138.507813 80.058594 L 115.433594 66.042969 L 115.4375 66.042969 L 8.003906 0.773438 C 4.492188 -1.359375 0 1.167969 0 5.277344 L 0 42.089844 C 0 45.769531 1.921875 49.183594 5.066406 51.097656 L 115.433594 118.148438 Z M 138.507813 132.164063 " />
</svg>
