<?xml version="1.0" encoding="UTF-8" standalone="no"?>
<svg
   xmlns:dc="http://purl.org/dc/elements/1.1/"
   xmlns:cc="http://creativecommons.org/ns#"
   xmlns:rdf="http://www.w3.org/1999/02/22-rdf-syntax-ns#"
   xmlns:svg="http://www.w3.org/2000/svg"
   xmlns="http://www.w3.org/2000/svg"
   height="512"
   width="512"
   xml:space="preserve"
   viewBox="0 0 511.99998 511.99998"
   y="0px"
   x="0px"
   id="Слой_1"
   version="1.1"><metadata
   id="metadata11"><rdf:RDF><cc:Work
       rdf:about=""><dc:format>image/svg+xml</dc:format><dc:type
         rdf:resource="http://purl.org/dc/dcmitype/StillImage" /><dc:title></dc:title></cc:Work></rdf:RDF></metadata><defs
   id="defs9" />
<style
   id="style2"
   type="text/css">
	.st0{fill:#9092A0;}
</style>
<path
   style="fill:#9092a0;stroke-width:19.40864372"
   id="path4"
   d="M 342.95072,253.86505 173.70735,227.66338 c -27.1721,-4.2699 -50.26838,-30.85974 -50.26838,-58.03184 v -63.46626 c 0,-12.227448 4.65807,-22.902202 13.00379,-29.889313 8.34572,-7.375285 19.9909,-10.286581 32.60652,-8.345717 l 169.24337,26.201668 c 27.1721,4.269902 50.26838,30.665652 50.26838,58.031842 h 31.05383 c 0,-43.08719 -33.57695,-81.904473 -76.66414,-88.697498 L 271.52691,52.403336 V 0 H 240.47309 V 47.551175 L 173.70735,37.264594 C 152.16376,33.771039 131.5906,39.399545 116.06368,52.597422 100.73086,65.795299 92.38514,84.81577 92.38514,106.16528 v 63.46626 c 0,43.08719 33.57695,81.90447 76.66414,88.6975 l 169.24337,26.20167 c 27.36618,4.2699 50.26838,30.85974 50.26838,58.03184 v 63.46626 c 0,12.22744 -4.65807,22.9022 -13.00379,29.88931 -8.5398,7.37528 -20.18499,10.28658 -32.60652,8.34572 L 173.70735,418.06217 c -27.36618,-4.2699 -50.26838,-30.85974 -50.26838,-58.03184 H 92.38514 c 0,43.08718 33.57695,81.90447 76.66414,88.69749 l 71.42381,11.06293 V 512 h 31.05382 v -47.35709 l 66.76574,10.28658 c 4.07581,0.58226 8.34571,0.97043 12.42153,0.97043 17.0796,0 32.8006,-5.6285 45.22214,-16.30326 15.33282,-13.19787 23.67854,-32.21834 23.67854,-53.56785 v -63.46626 c 0,-43.08719 -33.77104,-82.09856 -76.66414,-88.6975 z"
   class="st0" />
</svg>