<?xml version="1.0" encoding="UTF-8" standalone="no"?>
<svg
   xmlns:dc="http://purl.org/dc/elements/1.1/"
   xmlns:cc="http://creativecommons.org/ns#"
   xmlns:rdf="http://www.w3.org/1999/02/22-rdf-syntax-ns#"
   xmlns:svg="http://www.w3.org/2000/svg"
   xmlns="http://www.w3.org/2000/svg"
   version="1.1"
   id="Слой_1"
   x="0px"
   y="0px"
   viewBox="0 0 511.99998 511.99998"
   xml:space="preserve"
   width="512"
   height="512"><metadata
   id="metadata11"><rdf:RDF><cc:Work
       rdf:about=""><dc:format>image/svg+xml</dc:format><dc:type
         rdf:resource="http://purl.org/dc/dcmitype/StillImage" /><dc:title></dc:title></cc:Work></rdf:RDF></metadata><defs
   id="defs9" />
<style
   type="text/css"
   id="style2">
	.st0{fill:#9092A0;}
</style>

<g
   transform="matrix(18.149592,0,0,18.149592,110.71252,4.84e-6)"
   id="g14"><path
     style="fill:#9092a0"
     id="path4-3"
     d="M 12.27,13.93 3.95,12.74 C 2.58,12.54 1.55,11.35 1.55,9.97 V 7.9 C 1.55,7.09 1.9,6.32 2.52,5.79 3.13,5.26 3.94,5.02 4.75,5.13 l 7.31,1.04 c 1.37,0.2 2.4,1.39 2.4,2.77 h 1.55 c 0,-2.15 -1.6,-4 -3.73,-4.3 L 4.96,3.59 C 3.71,3.42 2.45,3.79 1.5,4.61 0.55,5.44 0,6.63 0,7.9 v 2.08 c 0,2.15 1.6,4 3.73,4.3 l 8.32,1.19 c 1.37,0.2 2.4,1.39 2.4,2.77 v 2.08 c 0,0.81 -0.35,1.58 -0.97,2.11 -0.61,0.53 -1.43,0.77 -2.23,0.66 L 3.94,22.05 C 2.57,21.85 1.54,20.66 1.54,19.28 H 0 c 0,2.15 1.6,4 3.73,4.3 l 7.31,1.04 c 0.21,0.03 0.41,0.04 0.62,0.04 1.04,0 2.05,-0.37 2.85,-1.06 0.95,-0.83 1.5,-2.02 1.5,-3.28 v -2.08 c 0,-2.15 -1.61,-4 -3.74,-4.31 z"
     class="st0" /><polygon
     style="fill:#9092a0"
     id="polygon6"
     points="6.72,0.22 5.17,0 5.17,2.05 6.72,2.27 "
     class="st0" /><polygon
     style="fill:#9092a0"
     id="polygon8"
     points="10.85,0.81 9.3,0.59 9.3,2.64 10.85,2.86 "
     class="st0" /><polygon
     style="fill:#9092a0"
     id="polygon10"
     points="5.17,27.4 6.72,27.62 6.72,25.56 5.17,25.34 "
     class="st0" /><polygon
     style="fill:#9092a0"
     id="polygon12"
     points="9.3,27.99 10.85,28.21 10.85,26.15 9.3,25.93 "
     class="st0" /></g></svg>