<?xml version="1.0" encoding="utf-8"?>
<!-- Generator: Adobe Illustrator 23.0.4, SVG Export Plug-In . SVG Version: 6.00 Build 0)  -->
<svg version="1.1" id="Слой_1" xmlns="http://www.w3.org/2000/svg" xmlns:xlink="http://www.w3.org/1999/xlink" x="0px" y="0px"
	 viewBox="0 0 23.97 20.37" style="enable-background:new 0 0 23.97 20.37;" xml:space="preserve">
<style type="text/css">
	.st0{fill:#9094A1;}
</style>
<g>
	<path class="st0" d="M23.97,2.69c0-1.75-3.72-2.69-7.23-2.69S9.52,0.94,9.52,2.69l0,0v3.26C9.46,5.94,9.39,5.93,9.33,5.91
		C9.11,5.85,8.88,5.8,8.65,5.76C8.53,5.74,8.42,5.72,8.31,5.7C8.03,5.67,7.75,5.65,7.46,5.64c-0.03,0-0.07-0.01-0.1-0.01
		c-1.94,0-3.7,0.76-5.02,1.99C0.91,8.97,0,10.88,0,13c0,1.64,0.55,3.15,1.46,4.38c1.34,1.81,3.49,2.99,5.91,2.99
		c0.5,0,1-0.06,1.47-0.15c0.02,0,0.03-0.01,0.04-0.01c0.22-0.05,0.44-0.1,0.65-0.17c0.02-0.01,0.04-0.01,0.06-0.02
		c0.21-0.07,0.42-0.14,0.62-0.23c0.01-0.01,0.03-0.01,0.04-0.02c0.21-0.09,0.42-0.19,0.62-0.3h0.01c0.42-0.23,0.81-0.49,1.18-0.79
		c1.34,0.41,3.04,0.62,4.7,0.62c3.5,0,7.22-0.94,7.22-2.69l0,0V2.69H23.97z M12.8,16.78c-0.04,0.06-0.09,0.12-0.13,0.18
		c-0.22,0.3-0.47,0.58-0.73,0.83c-0.05,0.05-0.11,0.1-0.17,0.15c-0.17,0.15-0.34,0.3-0.54,0.43c-0.01,0.01-0.02,0.01-0.03,0.02
		c-0.27,0.19-0.55,0.36-0.84,0.51c-0.01,0-0.02,0.01-0.03,0.01c-0.58,0.29-1.2,0.5-1.85,0.61c-0.05,0.01-0.1,0.02-0.15,0.02
		c-0.32,0.05-0.64,0.08-0.97,0.08c-0.91,0-1.78-0.19-2.57-0.52c-2.37-1-4.04-3.36-4.04-6.1c0-2.05,0.94-3.89,2.41-5.11
		c1.14-0.94,2.61-1.51,4.2-1.51c0.37,0,0.72,0.03,1.07,0.09c0.02,0,0.04,0.01,0.06,0.01c0.35,0.06,0.69,0.15,1.03,0.27
		c0.26,0.08,0.5,0.18,0.74,0.31c0.48,0.23,0.93,0.52,1.34,0.86c0.26,0.22,0.5,0.46,0.73,0.71c0.03,0.03,0.06,0.06,0.09,0.1
		c0.2,0.24,0.38,0.49,0.55,0.76c0.04,0.07,0.09,0.14,0.13,0.21c0.15,0.26,0.28,0.53,0.4,0.8c0.03,0.08,0.06,0.17,0.09,0.26
		c0.1,0.27,0.18,0.55,0.24,0.83c0.1,0.45,0.15,0.92,0.15,1.41c0,0.06-0.01,0.12-0.01,0.18c-0.01,0.23-0.02,0.46-0.05,0.68
		c-0.01,0.11-0.03,0.21-0.05,0.31c-0.04,0.2-0.08,0.39-0.13,0.59c-0.08,0.28-0.17,0.55-0.28,0.82l0,0
		c-0.04,0.08-0.08,0.16-0.12,0.24C13.19,16.16,13.01,16.48,12.8,16.78z M10.26,3.92c1.26,0.95,3.93,1.46,6.49,1.46
		s5.22-0.5,6.48-1.45v2.11c-0.03,0.81-2.49,1.93-6.48,1.93c-2,0-3.62-0.28-4.74-0.67C12,7.3,12,7.3,12,7.3
		c-0.02-0.01-0.04-0.03-0.06-0.04c-0.2-0.16-0.41-0.31-0.63-0.45c-0.08-0.05-0.16-0.1-0.24-0.15c-0.19-0.11-0.38-0.21-0.58-0.31
		c-0.05-0.02-0.1-0.06-0.15-0.08c-0.05-0.08-0.08-0.17-0.08-0.25V3.92z M14.61,11.72c-0.05-0.27-0.11-0.55-0.19-0.81
		c-0.01-0.02-0.01-0.04-0.02-0.07c-0.09-0.28-0.19-0.56-0.31-0.82C14.06,9.96,14.03,9.9,14,9.84c-0.11-0.22-0.22-0.43-0.35-0.64
		c-0.03-0.05-0.05-0.09-0.08-0.14c-0.16-0.25-0.33-0.49-0.52-0.72c1.13,0.23,2.43,0.36,3.69,0.36c2.56,0,5.22-0.5,6.48-1.45v2.74
		c-0.03,0.81-2.49,1.93-6.48,1.93c-0.77,0-1.48-0.04-2.12-0.11C14.63,11.77,14.62,11.75,14.61,11.72z M14.48,14.9
		c0.06-0.21,0.1-0.42,0.14-0.64c0.02-0.11,0.04-0.22,0.05-0.34c0.04-0.29,0.06-0.58,0.06-0.88c0-0.01,0-0.02,0-0.03
		c0-0.15,0-0.31-0.02-0.46c0.67,0.07,1.36,0.11,2.04,0.11c2.56,0,5.22-0.5,6.48-1.45v2.1c-0.03,0.81-2.49,1.93-6.48,1.93
		c-0.85,0-1.62-0.05-2.32-0.14C14.45,15.03,14.46,14.96,14.48,14.9z M16.75,0.75c4.02,0,6.48,1.13,6.48,1.94s-2.47,1.94-6.48,1.94
		s-6.48-1.13-6.48-1.94S12.73,0.75,16.75,0.75z M16.75,18.55c-1.63,0-3-0.18-4.06-0.46c0.1-0.1,0.19-0.21,0.28-0.32
		c0.03-0.04,0.07-0.08,0.1-0.12c0.08-0.11,0.16-0.22,0.24-0.33c0.06-0.09,0.13-0.17,0.19-0.26c0.05-0.07,0.09-0.14,0.13-0.21
		c0.08-0.13,0.17-0.27,0.24-0.41c0.01-0.02,0.02-0.04,0.03-0.05C14,16.2,14.09,16,14.18,15.8c0.83,0.12,1.71,0.18,2.58,0.18
		c2.56,0,5.22-0.51,6.48-1.46v2.09l0,0C23.23,17.43,20.76,18.55,16.75,18.55z"/>
	<path class="st0" d="M8.74,9.88L7.75,9.73V8.9H6.99v0.71L6.11,9.48c-0.37-0.07-0.73,0.03-1,0.27c-0.27,0.23-0.42,0.56-0.42,0.94
		v0.98c0,0.73,0.57,1.4,1.31,1.51l2.62,0.41c0.35,0.05,0.66,0.41,0.66,0.76v0.98c0,0.15-0.05,0.27-0.15,0.36
		c-0.1,0.09-0.24,0.12-0.39,0.1l-2.62-0.41c-0.35-0.05-0.66-0.41-0.66-0.76v-0.14H4.69v0.14c0,0.73,0.57,1.4,1.31,1.51l0.99,0.15
		v0.83h0.76V16.4l0.87,0.14c0.37,0.05,0.74-0.04,1-0.27c0.27-0.23,0.42-0.56,0.42-0.94v-0.98c0-0.74-0.57-1.4-1.31-1.51l-2.62-0.41
		c-0.35-0.05-0.66-0.41-0.66-0.76v-0.98c0-0.15,0.05-0.27,0.15-0.36c0.1-0.08,0.24-0.12,0.39-0.1l2.62,0.41
		c0.36,0.06,0.66,0.4,0.66,0.76v0.14h0.76V11.4C10.04,10.66,9.47,10,8.74,9.88z"/>
</g>
</svg>
