<?xml version="1.0" encoding="utf-8"?>
<!-- Generator: Adobe Illustrator 23.0.4, SVG Export Plug-In . SVG Version: 6.00 Build 0)  -->
<svg version="1.1" id="Слой_1" xmlns="http://www.w3.org/2000/svg" xmlns:xlink="http://www.w3.org/1999/xlink" x="0px" y="0px"
	 viewBox="0 0 18.38 13.74" style="enable-background:new 0 0 18.38 13.74;" xml:space="preserve">
<style type="text/css">
	.st0{fill:#9094A1;}
</style>
<g>
	<g>
		<path class="st0" d="M2.24,12h13.9l-0.13,0.9c-0.07,0.48-0.48,0.84-0.97,0.84H3.34c-0.49,0-0.9-0.36-0.97-0.84L2.24,12z"/>
		<path class="st0" d="M16.83,7.23l-0.52,3.57H2.07L1.55,7.23C1.44,6.44,2.27,5.85,2.98,6.22L5.04,7.3
			c0.42,0.23,0.95,0.11,1.24-0.27l2.13-2.84c0.39-0.52,1.17-0.52,1.56,0l2.14,2.84c0.28,0.38,0.81,0.5,1.23,0.27l2.06-1.08
			C16.11,5.85,16.94,6.44,16.83,7.23z"/>
	</g>
	<g>
		<circle class="st0" cx="17.52" cy="4.01" r="0.86"/>
		<circle class="st0" cx="0.86" cy="4.01" r="0.86"/>
	</g>
	<g>
		<circle class="st0" cx="9.19" cy="1.1" r="1.1"/>
	</g>
</g>
</svg>
