<?xml version="1.0" encoding="UTF-8"?>
<svg width="226px" height="40px" viewBox="0 0 226 40" version="1.1" xmlns="http://www.w3.org/2000/svg" xmlns:xlink="http://www.w3.org/1999/xlink">
    <!-- Generator: Sketch 46.2 (44496) - http://www.bohemiancoding.com/sketch -->
    <title>Combined Shape</title>
    <desc>Created with Sketch.</desc>
    <defs></defs>
    <g id="Symbols" stroke="none" stroke-width="1" fill="none" fill-rule="evenodd">
        <g id="ratings-/-bronze" transform="translate(-34.000000, -658.000000)" fill="#A76F45">
            <g id="ratings">
                <g id="best-v2" transform="translate(5.000000, 623.000000)">
                    <g id="1">
                        <path d="M44.0725709,72.636 C44.3825709,72.847 44.6885709,73.063 45.0005709,73.269 C44.4075709,73.655 43.8015709,74.031 43.1805709,74.398 C41.4575709,75.456 38.9395709,75.118 37.0785709,73.388 C35.9055709,72.282 34.7765709,71.095 33.7725709,69.756 C34.5085709,69.646 35.2255709,69.517 35.9315709,69.362 C36.9395709,69.147 37.9695709,69.189 38.9535709,69.45 C38.6305709,69.118 38.3265709,68.768 38.0205709,68.418 C38.0165709,68.427 38.0135709,68.435 38.0105709,68.443 C37.5245709,67.892 37.0635709,67.317 36.6315709,66.719 C36.5045709,66.544 36.3855709,66.365 36.2635709,66.185 C36.1915709,66.079 36.1175709,65.974 36.0475709,65.866 C34.9875709,64.237 34.1555709,62.448 33.6405709,60.56 C33.2345709,60.485 32.8255709,60.402 32.4135709,60.303 C31.9055709,60.187 31.4585709,59.957 31.0225709,59.635 C30.5825709,59.314 30.1975709,58.892 29.8895709,58.384 C29.2345709,57.378 28.9245709,56.02 29.0155709,54.617 C29.1555709,52.822 29.5515709,51.062 30.1295709,49.401 C30.6165709,49.985 31.0935709,50.527 31.6315709,51.055 C32.3575709,51.787 32.8865709,52.699 33.2545709,53.657 C33.2855709,53.461 33.3275709,53.266 33.3655709,53.071 L33.3645709,53.072 C33.3665709,53.061 33.3695709,53.051 33.3715709,53.04 C33.5055709,52.362 33.6825709,51.695 33.9015709,51.04 C33.9125709,51.003 33.9265709,50.967 33.9385709,50.93 C33.9995709,50.752 34.0535709,50.573 34.1205709,50.397 C34.1485709,50.324 34.1815709,50.253 34.2105709,50.179 C34.3615709,49.787 34.5205709,49.399 34.6965709,49.019 C34.7255709,48.959 34.7655709,48.908 34.7965709,48.849 C35.4725709,47.449 36.3075709,46.134 37.2665709,44.921 C37.0865709,44.545 36.8985709,44.177 36.7305709,43.789 C35.9075709,41.948 36.6295709,39.358 38.5745709,37.772 C39.7935709,36.739 41.0865709,35.857 42.3855709,35 C42.4445709,35.741 42.5165709,36.474 42.6035709,37.198 C42.8175709,39.224 41.9525709,41.299 40.4125709,42.733 C40.1575709,42.973 39.9055709,43.218 39.6585709,43.467 C39.4215709,43.702 39.1915709,43.945 38.9655709,44.19 C38.8085709,44.36 38.6595709,44.534 38.5095709,44.708 C38.4285709,44.802 38.3455709,44.893 38.2665709,44.988 C38.0585709,45.238 37.8555709,45.492 37.6605709,45.753 L37.6605709,45.751 C37.3915709,46.104 37.1305709,46.463 36.8845709,46.832 C37.7785709,46.415 38.7895709,46.365 39.7135709,46.644 C40.3705709,46.839 41.0485709,47.076 41.6905709,47.32 C40.9435709,48.165 40.2855709,49.056 39.7565709,49.984 C39.3225709,50.7 38.7595709,51.266 38.0105709,51.71 C37.6565709,51.936 37.2585709,52.13 36.8165709,52.287 C36.3865709,52.447 35.9365709,52.574 35.4465709,52.646 C35.0405709,52.706 34.6385709,52.782 34.2385709,52.866 C33.9505709,54.173 33.8345709,55.514 33.8875709,56.849 C33.8955709,57.044 33.9095709,57.238 33.9245709,57.432 C33.9385709,57.605 33.9525709,57.778 33.9715709,57.95 C33.9875709,58.091 34.0065709,58.23 34.0255709,58.37 C34.0635709,58.64 34.1045709,58.91 34.1575709,59.178 C34.1645709,59.213 34.1705709,59.248 34.1775709,59.283 C34.3625709,60.188 34.6295709,61.072 34.9585709,61.934 C35.0585709,61.454 35.2325709,61.006 35.4695709,60.614 C35.7245709,60.206 36.0675709,59.85 36.4545709,59.563 C37.0055709,59.151 37.5815709,58.772 38.1815709,58.428 C38.3775709,59.407 38.6995709,60.378 39.1355709,61.328 C39.8175709,62.772 39.7785709,64.695 38.9065709,66.497 C38.7195709,66.859 38.5505709,67.22 38.3855709,67.585 C39.5065709,68.911 40.7655709,70.115 42.1275709,71.199 C42.3965709,71.417 42.6705709,71.631 42.9495709,71.836 C43.3185709,72.111 43.6925709,72.378 44.0725709,72.636 Z M239.928,72.636 C240.308,72.378 240.682,72.111 241.051,71.836 C241.33,71.631 241.604,71.417 241.873,71.199 C243.235,70.115 244.494,68.911 245.615,67.585 C245.45,67.22 245.281,66.859 245.094,66.497 C244.222,64.695 244.183,62.772 244.865,61.328 C245.301,60.378 245.623,59.407 245.819,58.428 C246.419,58.772 246.995,59.151 247.546,59.563 C247.933,59.85 248.276,60.206 248.531,60.614 C248.768,61.006 248.942,61.454 249.042,61.934 C249.371,61.072 249.638,60.188 249.823,59.283 C249.83,59.248 249.836,59.213 249.843,59.178 C249.896,58.91 249.937,58.64 249.975,58.37 C249.994,58.23 250.013,58.091 250.029,57.95 C250.048,57.778 250.062,57.605 250.076,57.432 C250.091,57.238 250.105,57.044 250.113,56.849 C250.166,55.514 250.05,54.173 249.762,52.866 C249.362,52.782 248.96,52.706 248.554,52.646 C248.064,52.574 247.614,52.447 247.184,52.287 C246.742,52.13 246.344,51.936 245.99,51.71 C245.241,51.266 244.678,50.7 244.244,49.984 C243.715,49.056 243.057,48.165 242.31,47.32 C242.952,47.076 243.63,46.839 244.287,46.644 C245.211,46.365 246.222,46.415 247.116,46.832 C246.87,46.463 246.609,46.104 246.34,45.751 L246.34,45.753 C246.145,45.492 245.942,45.238 245.734,44.988 C245.655,44.893 245.572,44.802 245.491,44.708 C245.341,44.534 245.192,44.36 245.035,44.19 C244.809,43.945 244.579,43.702 244.342,43.467 C244.095,43.218 243.843,42.973 243.588,42.733 C242.048,41.299 241.183,39.224 241.397,37.198 C241.484,36.474 241.556,35.741 241.615,35 C242.914,35.857 244.207,36.739 245.426,37.772 C247.371,39.358 248.093,41.948 247.27,43.789 C247.102,44.177 246.914,44.545 246.734,44.921 C247.693,46.134 248.528,47.449 249.204,48.849 C249.235,48.908 249.275,48.959 249.304,49.019 C249.48,49.399 249.639,49.787 249.79,50.179 C249.819,50.253 249.852,50.324 249.88,50.397 C249.947,50.573 250.001,50.752 250.062,50.93 C250.074,50.967 250.088,51.003 250.099,51.04 C250.318,51.695 250.495,52.362 250.629,53.04 C250.631,53.051 250.634,53.061 250.636,53.072 L250.635,53.071 C250.673,53.266 250.715,53.461 250.746,53.657 C251.114,52.699 251.643,51.787 252.369,51.055 C252.907,50.527 253.384,49.985 253.871,49.401 C254.449,51.062 254.845,52.822 254.985,54.617 C255.076,56.02 254.766,57.378 254.111,58.384 C253.803,58.892 253.418,59.314 252.978,59.635 C252.542,59.957 252.095,60.187 251.587,60.303 C251.175,60.402 250.766,60.485 250.36,60.56 C249.845,62.448 249.013,64.237 247.953,65.866 C247.883,65.974 247.809,66.079 247.737,66.185 C247.615,66.365 247.496,66.544 247.369,66.719 C246.937,67.317 246.476,67.892 245.99,68.443 C245.987,68.435 245.984,68.427 245.98,68.418 C245.674,68.768 245.37,69.118 245.047,69.45 C246.031,69.189 247.061,69.147 248.069,69.362 C248.775,69.517 249.492,69.646 250.228,69.756 C249.224,71.095 248.095,72.282 246.922,73.388 C245.061,75.118 242.543,75.456 240.82,74.398 C240.199,74.031 239.593,73.655 239,73.269 C239.312,73.063 239.618,72.847 239.928,72.636 Z" id="Combined-Shape"></path>
                    </g>
                </g>
            </g>
        </g>
    </g>
</svg>
