<svg xmlns="http://www.w3.org/2000/svg" viewBox="0 0 110.512 21.098">
  <defs>
    <style>
      .cls-1 {
        fill: #fff;
      }
    </style>
  </defs>
  <path id="CIPHER" class="cls-1" d="M16.451,6.191A7.719,7.719,0,0,0,13.89,4.225a6.944,6.944,0,0,0-6.484.205A6.6,6.6,0,0,0,4.918,6.94a6.982,6.982,0,0,0-.907,3.506,6.982,6.982,0,0,0,.907,3.506,6.706,6.706,0,0,0,2.488,2.524,6.775,6.775,0,0,0,3.483.924,7.3,7.3,0,0,0,2.942-.646,8.44,8.44,0,0,0,2.62-1.79l2.312,2.582a12.1,12.1,0,0,1-3.747,2.6,10.538,10.538,0,0,1-4.332.954,10.7,10.7,0,0,1-5.415-1.408A10.311,10.311,0,0,1,1.405,15.86,10.475,10.475,0,0,1,0,10.5,10.3,10.3,0,0,1,5.342,1.379,11.077,11.077,0,0,1,10.831,0a11.069,11.069,0,0,1,4.3.88,10.568,10.568,0,0,1,3.6,2.435ZM21.983.264h3.9V20.8h-3.9Zm17.183,0a8.828,8.828,0,0,1,5.986,1.849,6.556,6.556,0,0,1,2.122,5.223,7.062,7.062,0,0,1-2.122,5.472,8.521,8.521,0,0,1-5.986,1.951h-4.5V20.8h-3.9V.264ZM38.942,11.3a5.27,5.27,0,0,0,3.41-.968,3.5,3.5,0,0,0,1.186-2.876,3.375,3.375,0,0,0-1.186-2.817,5.387,5.387,0,0,0-3.41-.939H34.668v7.6ZM50.28.264h3.9V8.774H64.916V.264h3.9V20.8h-3.9V12.471H54.182V20.8h-3.9ZM73.7.264H88.333V3.7H77.6V8.774h9.757v3.433H77.6v5.164H88.333V20.8H73.7ZM106.033,20.8l-3.542-6.074a6.516,6.516,0,0,1-.732.029H97.115V20.8h-3.9V.264h8.547a9.2,9.2,0,0,1,6.147,1.849,6.492,6.492,0,0,1,2.166,5.223,7.736,7.736,0,0,1-1.039,4.108A6.365,6.365,0,0,1,106,14l4.508,6.808ZM97.115,11.3h4.625a5.207,5.207,0,0,0,3.4-.968,3.516,3.516,0,0,0,1.171-2.876,3.394,3.394,0,0,0-1.171-2.817,5.323,5.323,0,0,0-3.4-.939H97.115Z" transform="translate(0 0)"/>
</svg>
