<?xml version="1.0" encoding="UTF-8" standalone="no"?>
<svg
   xmlns:dc="http://purl.org/dc/elements/1.1/"
   xmlns:cc="http://creativecommons.org/ns#"
   xmlns:rdf="http://www.w3.org/1999/02/22-rdf-syntax-ns#"
   xmlns:svg="http://www.w3.org/2000/svg"
   xmlns="http://www.w3.org/2000/svg"
   xml:space="preserve"
   style="enable-background:new 0 0 129 19;"
   viewBox="0 0 129 19"
   y="0px"
   x="0px"
   id="Layer_1"
   version="1.1"><metadata
     id="metadata41"><rdf:RDF><cc:Work
         rdf:about=""><dc:format>image/svg+xml</dc:format><dc:type
           rdf:resource="http://purl.org/dc/dcmitype/StillImage" /><dc:title></dc:title></cc:Work></rdf:RDF></metadata><defs
     id="defs39" /><style
     id="style2"
     type="text/css">
	.st0{fill:#24ECA6;}
	.st1{fill:#16C481;}
</style><g
     id="g34"><polygon
       id="polygon22"
       points="11,10.7 0,4 0,0 11,6.7  "
       class="st1" /><polygon
       id="polygon24"
       points="11,16.5 0,9.8 0,5.8 11,12.6  "
       class="st1" /><polygon
       id="polygon26"
       points="5.5,19 0,15.7 0,11.7 5.5,15  "
       class="st1" /><polygon
       id="polygon28"
       points="11,10.7 22.1,4 22.1,0 11,6.7  "
       class="st0" /><polygon
       id="polygon30"
       points="11,16.5 22.1,9.8 22.1,5.8 11,12.6  "
       class="st0" /><polygon
       id="polygon32"
       points="16.6,19 22.1,15.7 22.1,11.7 16.6,15  "
       class="st0" /></g><g
     aria-label="MEMBRANA"
     transform="matrix(1.0330982,0,0,1.0263189,-3.8316755,-0.28217848)"
     style="font-style:normal;font-variant:normal;font-weight:normal;font-stretch:normal;font-size:15.7577858px;line-height:1.25;font-family:'Maven Pro Light';-inkscape-font-specification:'Maven Pro Light, ';text-align:center;letter-spacing:2.30568004px;word-spacing:0px;text-anchor:middle;fill:#24eca6;fill-opacity:1;stroke:none;stroke-width:0.9711538"
     id="text850"><path
       d="M 32.393192,14.597976 V 4.464673 h 0.830977 l 3.770173,5.485987 3.76248,-5.485987 h 0.854059 V 14.597976 H 40.818375 V 5.7573039 L 36.994342,11.243291 33.162615,5.7573039 v 8.8406721 z"
       style="text-align:center;letter-spacing:2.30568004px;text-anchor:middle;fill:#24eca6;fill-opacity:1;stroke-width:0.9711538"
       id="path875" /><path
       d="M 46.578766,14.597976 V 4.464673 h 6.270798 v 0.7232578 h -5.501375 v 3.924058 h 4.85506 v 0.7617289 h -4.85506 V 13.85933 h 5.501375 v 0.738646 z"
       style="text-align:center;letter-spacing:2.30568004px;text-anchor:middle;fill:#24eca6;fill-opacity:1;stroke-width:0.9711538"
       id="path877" /><path
       d="M 57.224993,14.597976 V 4.464673 h 0.830977 l 3.770173,5.485987 3.762479,-5.485987 h 0.85406 V 14.597976 H 65.650176 V 5.7573039 L 61.826143,11.243291 57.994416,5.7573039 v 8.8406721 z"
       style="text-align:center;letter-spacing:2.30568004px;text-anchor:middle;fill:#24eca6;fill-opacity:1;stroke-width:0.9711538"
       id="path879" /><path
       d="M 71.410564,14.597976 V 4.464673 h 3.323908 q 0.900225,0 1.554235,0.2154385 0.661704,0.2077443 1.023333,0.5770674 0.361629,0.3693231 0.530902,0.8155885 0.169273,0.4385712 0.169273,0.9617789 0,0.5232077 -0.153885,0.9617789 -0.153885,0.430877 -0.392406,0.6847866 -0.238521,0.2539097 -0.477042,0.4001001 -0.230827,0.1461904 -0.430877,0.1769673 0.176967,0.015388 0.407794,0.100025 0.230827,0.076942 0.523208,0.2769923 0.300075,0.1923558 0.538596,0.4693485 0.238521,0.269298 0.4001,0.730952 0.169273,0.453959 0.169273,1.007944 0,1.354185 -0.923307,2.05436 -0.923308,0.700175 -2.592956,0.700175 z m 0.769423,-0.723258 h 2.962279 q 0.584762,0 1.046416,-0.107719 0.461654,-0.107719 0.830977,-0.346241 0.377017,-0.238521 0.577067,-0.654009 0.207744,-0.415489 0.207744,-0.992556 0,-2.0312772 -2.69298,-2.0312772 h -2.931503 z m 0,-4.85506 h 2.723758 q 1.084887,0 1.70812,-0.4462654 0.630927,-0.4539597 0.630927,-1.4465155 0,-1.9235578 -2.431378,-1.9235578 h -2.631427 z"
       style="text-align:center;letter-spacing:2.30568004px;text-anchor:middle;fill:#24eca6;fill-opacity:1;stroke-width:0.9711538"
       id="path881" /><path
       d="M 83.057041,14.597976 V 4.464673 h 3.593206 q 1.608094,0 2.477543,0.761729 0.877142,0.7540346 0.877142,2.1543847 0,0.6001501 -0.176967,1.0925809 -0.176968,0.4924308 -0.446266,0.8002 -0.261604,0.3000751 -0.607844,0.5232078 -0.338546,0.2231326 -0.630927,0.3308516 -0.292381,0.100025 -0.569373,0.138496 l 2.823783,4.331853 h -0.915614 l -2.723758,-4.208745 h -2.916113 v 4.208745 z m 0.784812,-4.947391 h 2.754534 q 0.730952,0 1.25416,-0.1692731 0.523208,-0.1769673 0.807894,-0.4924308 0.292381,-0.3231577 0.423183,-0.7001751 0.130802,-0.3847115 0.130802,-0.8617539 0,-2.2236328 -2.616039,-2.2236328 h -2.754534 z"
       style="text-align:center;letter-spacing:2.30568004px;text-anchor:middle;fill:#24eca6;fill-opacity:1;stroke-width:0.9711538"
       id="path883" /><path
       d="m 94.203393,14.597976 q 0.692481,-1.685037 2.062054,-5.0628045 1.377268,-3.3854618 2.069749,-5.0704985 h 0.769423 l 4.116411,10.133303 h -0.83867 q -0.23852,-0.569373 -0.6694,-1.65426 -0.42318,-1.084887 -0.62323,-1.561929 h -4.755035 l -1.277242,3.216189 z m 2.431377,-3.954835 h 4.17027 L 98.712213,5.4110635 Z"
       style="text-align:center;letter-spacing:2.30568004px;text-anchor:middle;fill:#24eca6;fill-opacity:1;stroke-width:0.9711538"
       id="path885" /><path
       d="M 107.36563,14.597976 V 4.464673 h 0.87715 l 6.38621,8.979168 V 4.464673 h 0.78481 v 10.133303 h -0.86175 l -6.4016,-8.9637798 v 8.9637798 z"
       style="text-align:center;letter-spacing:2.30568004px;text-anchor:middle;fill:#24eca6;fill-opacity:1;stroke-width:0.9711538"
       id="path887" /><path
       d="m 119.5584,14.597976 q 0.69249,-1.685037 2.06206,-5.0628045 1.37727,-3.3854618 2.06975,-5.0704985 h 0.76942 l 4.11641,10.133303 h -0.83867 q -0.23852,-0.569373 -0.6694,-1.65426 -0.42318,-1.084887 -0.62323,-1.561929 h -4.75503 l -1.27725,3.216189 z m 2.43138,-3.954835 h 4.17027 l -2.09283,-5.2320775 z"
       style="text-align:center;letter-spacing:2.30568004px;text-anchor:middle;fill:#24eca6;fill-opacity:1;stroke-width:0.9711538"
       id="path889" /></g></svg>