<?xml version="1.0" encoding="UTF-8"?>
<svg version="1.1" viewBox="0 0 11 11" xmlns="http://www.w3.org/2000/svg" xmlns:cc="http://creativecommons.org/ns#" xmlns:dc="http://purl.org/dc/elements/1.1/" xmlns:rdf="http://www.w3.org/1999/02/22-rdf-syntax-ns#">
<metadata>
<rdf:RDF>
<cc:Work rdf:about="">
<dc:format>image/svg+xml</dc:format>
<dc:type rdf:resource="http://purl.org/dc/dcmitype/StillImage"/>
<dc:title/>
</cc:Work>
</rdf:RDF>
</metadata>
<path d="m5.5 1.5a4 4 0 0 0 -4 4 4 4 0 0 0 4 4 4 4 0 0 0 4 -4 4 4 0 0 0 -4 -4zm0.034375 1.6609c0.37816 0 0.70643 0.037315 0.98594 0.11406 0.27951 0.074491 0.49701 0.17932 0.65156 0.3125 0.15455 0.13092 0.26828 0.27307 0.34062 0.42656 0.075631 0.15124 0.11406 0.31456 0.11406 0.49062 0 0.15801-0.038431 0.30015-0.11406 0.42656-0.072342 0.12641-0.16476 0.22968-0.27656 0.31094l-0.35938 0.25156-0.35625 0.24688c-0.1118 0.076748-0.20406 0.17654-0.27969 0.29844-0.072343 0.11964-0.10938 0.25171-0.10938 0.39844v0.071876h-1.3859v-0.092188c0-0.23476 0.051188-0.44129 0.15313-0.62188 0.10194-0.18058 0.22563-0.32516 0.37031-0.43125 0.14469-0.10609 0.29109-0.20259 0.43906-0.29062 0.14797-0.088034 0.2701-0.18019 0.36875-0.275 0.10194-0.094806 0.15313-0.19391 0.15313-0.3 0-0.10158-0.024113-0.18784-0.073438-0.25781-0.049324-0.069976-0.12462-0.11823-0.22656-0.14531-0.10194-0.027087-0.20012-0.045658-0.29219-0.054687-0.088784-0.0090294-0.19676-0.014062-0.325-0.014062-0.5919 0-1.0964 0.11507-1.5141 0.34531v-0.88594c0.19401-0.092549 0.44838-0.1703 0.76406-0.23125 0.31897-0.063204 0.64304-0.09375 0.97188-0.09375zm-0.87812 3.7922h1.5641v0.88594h-1.5641z" fill="#989898" opacity=".97"/>
</svg>

