<?xml version="1.0" encoding="utf-8"?>
<!-- Svg Vector Icons : http://www.onlinewebfonts.com/icon -->
<!DOCTYPE svg PUBLIC "-//W3C//DTD SVG 1.1//EN" "http://www.w3.org/Graphics/SVG/1.1/DTD/svg11.dtd">
<svg version="1.1" xmlns="http://www.w3.org/2000/svg" xmlns:xlink="http://www.w3.org/1999/xlink" x="0px" y="0px" viewBox="0 0 1000 1000" enable-background="new 0 0 1000 1000" style='fill:#32B994;' xml:space="preserve">
<metadata> Svg Vector Icons : http://www.onlinewebfonts.com/icon </metadata>
<g><path d="M828.3,495.8c-4.3,0-7.9-0.7-11-2.3c-3.1-1.5-5.7-3.6-7.7-6.1c-2.1-2.6-3.6-5.6-4.8-9.2c-1.1-3.5-1.7-7.3-1.8-11.1h-27.8c-0.1,8.5,1.1,16,3.6,22.5c2.5,6.5,6.2,12,10.8,16.5s10.3,7.9,17,10.3c6.7,2.4,14.1,3.5,22.2,3.5c7,0,13.7-1.1,20.2-3.1c6.5-2.1,12.2-5.1,17.1-9.1c5-4,8.9-9,11.9-15c3-6,4.4-12.8,4.4-20.4c0-8.3-2.3-15.5-6.8-21.4c-4.5-6-10.8-9.8-18.8-11.7v-0.4c6.8-1.9,11.8-5.6,15.2-11c3.4-5.4,5.1-11.7,5.1-18.7c0-6.5-1.4-12.3-4.3-17.3c-2.9-5-6.6-9.2-11.2-12.7c-4.6-3.5-9.8-6.1-15.6-7.8c-5.8-1.7-11.5-2.6-17.3-2.6c-7.4,0-14.2,1.2-20.2,3.6c-6,2.4-11.2,5.9-15.6,10.3c-4.3,4.4-7.7,9.7-10.1,15.9c-2.4,6.2-3.7,13-4,20.5h27.9c-0.1-7.5,1.7-13.7,5.5-18.6c3.8-4.9,9.4-7.4,16.8-7.4c5.4,0,10.1,1.7,14.2,5c4.1,3.3,6.2,8.1,6.2,14.4c0,4.2-1,7.5-3,10c-2,2.5-4.6,4.4-7.6,5.7c-3.1,1.3-6.4,2.1-10,2.4c-3.6,0.3-6.9,0.3-10.1,0v20.8c3.6,0,7.3,0.1,11.2,0.3c3.9,0.2,7.5,1,10.8,2.3c3.3,1.3,6,3.4,8.2,6.4c2.1,2.9,3.2,7.2,3.2,12.7c0,7.1-2.3,12.7-6.8,16.8C840.5,493.8,834.9,495.8,828.3,495.8L828.3,495.8z M184.4,301.7c-3,2.8-6.2,5.3-9.8,7.6c-3.6,2.3-7,4.6-10.1,6.8c-6.2,4.3-12.1,8.5-17.6,12.7c-5.6,4.2-10.4,8.7-14.5,13.6c-4.1,4.9-7.4,10.5-9.8,16.8c-2.4,6.2-3.6,13.6-3.6,22.1h106.1v-25.4h-68.3c3.6-5,7.7-9.4,12.4-13.1c4.7-3.7,9.5-7.2,14.4-10.5c5-3.3,9.9-6.6,14.8-9.9c4.9-3.3,9.2-7,13.1-11.1c3.9-4.1,6.9-8.8,9.3-14c2.3-5.3,3.5-11.6,3.5-19c0-7.1-1.3-13.5-4-19.1c-2.7-5.7-6.3-10.5-10.8-14.4c-4.5-3.9-9.8-6.9-15.8-8.9c-6-2.1-12.3-3.1-18.9-3.1c-8.7,0-16.3,1.5-23,4.5c-6.7,3-12.2,7.2-16.6,12.5c-4.4,5.3-7.7,11.6-9.9,18.7c-2.2,7.1-3.2,14.9-2.9,23.2h28.1c0-3.9,0.4-7.8,1.1-11.7c0.8-4,2-7.6,3.8-10.8c1.8-3.3,4.2-5.9,7.1-7.9c3-2,6.6-3,10.8-3c6.3,0,11.5,2,15.6,5.9c4.1,3.9,6.1,9.5,6.1,16.5c0,4.4-1,8.4-3,11.9C189.8,295.8,187.3,298.9,184.4,301.7L184.4,301.7z M484.7,173H514V27.3h-23.3c-0.8,5.5-2.5,10.2-5.2,14c-2.6,3.8-5.8,6.8-9.6,9c-3.8,2.3-8,3.9-12.8,4.8c-4.7,0.9-9.7,1.3-14.7,1.1v22.3h36.3V173L484.7,173z M929.8,920.6H680.5V661.3l0-21.9c0-4.9,3.9-8.8,8.8-8.8h239.2c4.8,0,8.8,4,8.8,8.8l1.1,272.6C938.4,916.7,934.6,920.6,929.8,920.6L929.8,920.6z M61.6,911.9l1.1-427.8c0-4.8,3.9-8.8,8.8-8.8h239.5c4.8,0,8.8,3.9,8.8,8.8l-0.2,21.8v414.7H70.2C65.4,920.6,61.6,916.7,61.6,911.9L61.6,911.9z M371,277.5c0-4.8,3.9-8.7,8.6-8.7h240.7c4.7,0,8.6,3.9,8.6,8.7v643.1H371V277.5L371,277.5z M928.5,577.6H700.2c-6.9,0-13.5,1.2-19.7,3.3V277.5c0-33.6-27-60.9-60.2-60.9H379.7c-33.2,0-60.2,27.3-60.2,60.9v148.7c-6.2-2.1-12.8-3.3-19.7-3.3H71.5c-33.9,0-61.5,27.5-61.5,61.3v427.8c0,33.5,27,60.7,60.2,60.7h859.7c33.2,0,60.2-27.2,60.2-60.7V639.4C990,605.3,962.4,577.6,928.5,577.6L928.5,577.6z"/></g>
</svg>