<?xml version="1.0" encoding="UTF-8"?>
<!-- Generator: Adobe Illustrator 22.1.0, SVG Export Plug-In . SVG Version: 6.00 Build 0)  -->
<svg version="1.1" id="Слой_1" xmlns="http://www.w3.org/2000/svg" xmlns:xlink="http://www.w3.org/1999/xlink" x="0px" y="0px" viewBox="0 0 1000 1000" style="enable-background:new 0 0 1000 1000;" xml:space="preserve">
<style type="text/css">
	.st0{fill:#32B994;}
</style>
<g>
	<path class="st0" d="M818.2,199.3v50.2c44,0,79.8,35.9,79.8,80s-35.8,80.1-80.2,80.1l-2.6,24.8l-5.9,24.4c3.9,1,7.2,1,9,1   c71.7,0,130-58.4,130-130.2C948.2,257.7,889.9,199.3,818.2,199.3z"/>
	<path class="st0" d="M181.8,409.5c-44,0-79.8-35.9-79.8-80.1s35.8-80,79.8-80v-50.2c-71.7,0-130,58.4-130,130.2   c0,71.8,58.3,130.2,130,130.2c1.8,0,5,0,9-1L178.9,410C180.6,409.6,181.9,409.5,181.8,409.5z"/>
	<path class="st0" d="M203.9,392.7c0,15.4,1.1,30.6,3.3,45.6c21.4,136.6,131.9,237.9,267.6,249.2v104.7H351.9v50.2h295.9v-50.2H525   V687.5C660.5,676.3,771.1,575,792.6,438.1c2.2-14.7,3.3-29.9,3.3-45.3V157.6h-592V392.7z M254.1,207.8h491.6v184.9   c0,13.1-0.9,25.5-2.7,37.8C724.1,551,621.9,638.4,499.7,638.4c-119.9,0-224.4-89.4-242.9-207.7c-1.9-12.4-2.7-24.9-2.7-38V207.8z"/>
</g>
<script xmlns=""/></svg>