<?xml version="1.0" encoding="UTF-8" standalone="no"?>
<svg
   xmlns:dc="http://purl.org/dc/elements/1.1/"
   xmlns:cc="http://creativecommons.org/ns#"
   xmlns:rdf="http://www.w3.org/1999/02/22-rdf-syntax-ns#"
   xmlns:svg="http://www.w3.org/2000/svg"
   xmlns="http://www.w3.org/2000/svg"
   xmlns:sodipodi="http://sodipodi.sourceforge.net/DTD/sodipodi-0.dtd"
   xmlns:inkscape="http://www.inkscape.org/namespaces/inkscape"
   width="18px"
   height="18px"
   viewBox="0 0 18 18"
   version="1.1"
   id="svg854"
   sodipodi:docname="profile_hover.svg"
   inkscape:version="0.92.2 5c3e80d, 2017-08-06">
  <metadata
     id="metadata858">
    <rdf:RDF>
      <cc:Work
         rdf:about="">
        <dc:format>image/svg+xml</dc:format>
        <dc:type
           rdf:resource="http://purl.org/dc/dcmitype/StillImage" />
        <dc:title>glyphs/exchange</dc:title>
      </cc:Work>
    </rdf:RDF>
  </metadata>
  <sodipodi:namedview
     pagecolor="#ffffff"
     bordercolor="#666666"
     borderopacity="1"
     objecttolerance="10"
     gridtolerance="10"
     guidetolerance="10"
     inkscape:pageopacity="0"
     inkscape:pageshadow="2"
     inkscape:window-width="1896"
     inkscape:window-height="510"
     id="namedview856"
     showgrid="false"
     inkscape:zoom="46.888889"
     inkscape:cx="9"
     inkscape:cy="9"
     inkscape:window-x="10"
     inkscape:window-y="33"
     inkscape:window-maximized="0"
     inkscape:current-layer="svg854" />
  <!-- Generator: Sketch 46.2 (44496) - http://www.bohemiancoding.com/sketch -->
  <title
     id="title844">glyphs/exchange</title>
  <desc
     id="desc846">Created with Sketch.</desc>
  <defs
     id="defs848" />
  <path
     style="fill:#32b994;fill-opacity:1;fill-rule:nonzero;stroke-width:1"
     id="path4830"
     d="M 9.0000001,12.375 C 11.791688,12.375 14.0625,9.5985001 14.0625,6.1875001 14.0625,2.7765001 11.791125,2.5e-8 9.0000001,2.5e-8 c -1.3764375,0 -2.662875,0.660374985 -3.621375,1.859062475 -0.9298125,1.1615626 -1.441125,2.6994376 -1.441125,4.3290001 0,3.4104375 2.2708125,6.1869374 5.0625,6.1869374 z m 0,-11.2494375 c 2.1706879,0 3.9374999,2.2708126 3.9374999,5.0625001 0,2.791125 -1.766812,5.0624994 -3.9374999,5.0624994 -2.1706875,0 -3.9375,-2.2713744 -3.9380625,-5.0624994 0,-2.7916875 1.7668125,-5.0625001 3.9380625,-5.0625001 z M 12.9375,11.25 c -0.311062,0 -0.5625,0.251438 -0.5625,0.5625 0,0.311063 0.251438,0.5625 0.5625,0.5625 2.170688,0 3.9375,1.766812 3.9375,3.9375 0,0.309937 -0.252563,0.5625 -0.5625,0.5625 H 1.6875001 c -0.3099375,0 -0.5625,-0.252563 -0.5625,-0.5625 0,-2.170688 1.7668125,-3.9375 3.9375,-3.9375 0.3110625,0 0.5625,-0.251437 0.5625,-0.5625 0,-0.311062 -0.2514375,-0.5625 -0.5625,-0.5625 C 2.2708126,11.25 1.1e-7,13.520813 1.1e-7,16.3125 1.1e-7,17.242875 0.75712509,18 1.6875001,18 H 16.3125 C 17.242875,18 18,17.242875 18,16.3125 18,13.521375 15.729188,11.25 12.9375,11.25 Z"
     inkscape:connector-curvature="0" />
</svg>
