<?xml version="1.0" encoding="utf-8"?>
<!-- Generator: Adobe Illustrator 21.0.0, SVG Export Plug-In . SVG Version: 6.00 Build 0)  -->
<svg version="1.1" id="Layer_1" xmlns="http://www.w3.org/2000/svg" xmlns:xlink="http://www.w3.org/1999/xlink" x="0px" y="0px"
	 viewBox="0 0 160 19" style="enable-background:new 0 0 160 19;" xml:space="preserve">
<style type="text/css">
	.st0{fill:#24ECA6;}
	.st1{fill:#16C481;}
</style>
<g>
	<path class="st0" d="M54.9,3.5v12.1H54V5l-4.6,6.6L44.8,5v10.6h-0.9V3.5h1l4.5,6.6l4.5-6.6H54.9z"/>
	<path class="st0" d="M63.8,9h5.8v0.9h-5.8v4.8h6.6v0.9h-7.5V3.5h7.5v0.9h-6.6V9z"/>
	<path class="st0" d="M85.2,15.6l-3.3-5h-3.5v5h-0.9V3.5h4.3c2.6,0,4,1.3,4,3.5c0,2.5-1.9,3.3-2.9,3.4l3.4,5.2H85.2z M78.5,4.4v5.3
		h3.3c2.4,0,3.1-1.2,3.1-2.7c0-1.4-0.6-2.7-3.1-2.7H78.5z"/>
	<path class="st0" d="M97.6,14.9c1.2,0,2.4-0.2,3.5-0.7v0.9c-1.1,0.4-2.4,0.7-3.6,0.7c-3.3,0-5.6-1.8-5.6-6.2c0-4.4,2.3-6.3,5.6-6.3
		c1.3,0,2.5,0.2,3.6,0.7v0.9c-1.1-0.4-2.3-0.7-3.5-0.7c-2.9,0-4.8,1.4-4.8,5.4C92.8,13.5,94.7,14.9,97.6,14.9z"/>
	<path class="st0" d="M117.4,15.6h-1c-0.5-1.3-1-2.6-1.5-3.8h-5.7l-1.5,3.8h-1c1.7-4,3.3-8.1,4.9-12.1h0.9L117.4,15.6z M109.6,10.9
		h5l-2.5-6.3L109.6,10.9z"/>
	<path class="st0" d="M130.4,3.5v0.9H126v11.2H125V4.4h-4.4V3.5H130.4z"/>
	<path class="st0" d="M137.1,3.5v7.4c0,2.7,1.3,4,3.8,4c2.5,0,3.9-1.4,3.9-4V3.5h0.9v7.3c0,3.2-1.7,4.9-4.8,4.9
		c-3.1,0-4.8-1.7-4.8-4.9V3.5H137.1z"/>
	<path class="st0" d="M160,12.5c0,1.9-1.4,3.3-4.2,3.3c-1.5,0-2.8-0.4-3.7-0.8v-1c0.8,0.5,2,0.9,3.6,0.9c1.9,0,3.4-0.7,3.4-2.3
		c0-3.8-6.9-1.8-6.9-5.9c0-1.7,1.1-3.3,4-3.3c1.3,0,2.4,0.3,3.2,0.7v1c-0.8-0.4-1.9-0.8-3.1-0.8c-2.1,0-3.1,0.9-3.1,2.4
		C153,9.7,160,7.9,160,12.5z"/>
</g>
<g>
	<polygon class="st1" points="11,10.7 0,4 0,0 11,6.7 	"/>
	<polygon class="st1" points="11,16.5 0,9.8 0,5.8 11,12.6 	"/>
	<polygon class="st1" points="5.5,19 0,15.7 0,11.7 5.5,15 	"/>
	<polygon class="st0" points="11,10.7 22.1,4 22.1,0 11,6.7 	"/>
	<polygon class="st0" points="11,16.5 22.1,9.8 22.1,5.8 11,12.6 	"/>
	<polygon class="st0" points="16.6,19 22.1,15.7 22.1,11.7 16.6,15 	"/>
</g>
</svg>
